<svg id="visual" viewBox="0 0 960 540" width="960" height="540" xmlns="http://www.w3.org/2000/svg" xmlns:xlink="http://www.w3.org/1999/xlink" version="1.1"><rect x="0" y="0" width="960" height="540" fill="#001220"></rect><defs><linearGradient id="grad1_0" x1="43.8%" y1="0%" x2="100%" y2="100%"><stop offset="14.444444444444446%" stop-color="#009473" stop-opacity="1"></stop><stop offset="85.55555555555554%" stop-color="#009473" stop-opacity="1"></stop></linearGradient></defs><defs><linearGradient id="grad1_1" x1="43.8%" y1="0%" x2="100%" y2="100%"><stop offset="14.444444444444446%" stop-color="#009473" stop-opacity="1"></stop><stop offset="85.55555555555554%" stop-color="#008172" stop-opacity="1"></stop></linearGradient></defs><defs><linearGradient id="grad1_2" x1="43.8%" y1="0%" x2="100%" y2="100%"><stop offset="14.444444444444446%" stop-color="#006d6d" stop-opacity="1"></stop><stop offset="85.55555555555554%" stop-color="#008172" stop-opacity="1"></stop></linearGradient></defs><defs><linearGradient id="grad1_3" x1="43.8%" y1="0%" x2="100%" y2="100%"><stop offset="14.444444444444446%" stop-color="#006d6d" stop-opacity="1"></stop><stop offset="85.55555555555554%" stop-color="#005964" stop-opacity="1"></stop></linearGradient></defs><defs><linearGradient id="grad1_4" x1="43.8%" y1="0%" x2="100%" y2="100%"><stop offset="14.444444444444446%" stop-color="#004657" stop-opacity="1"></stop><stop offset="85.55555555555554%" stop-color="#005964" stop-opacity="1"></stop></linearGradient></defs><defs><linearGradient id="grad1_5" x1="43.8%" y1="0%" x2="100%" y2="100%"><stop offset="14.444444444444446%" stop-color="#004657" stop-opacity="1"></stop><stop offset="85.55555555555554%" stop-color="#003446" stop-opacity="1"></stop></linearGradient></defs><defs><linearGradient id="grad1_6" x1="43.8%" y1="0%" x2="100%" y2="100%"><stop offset="14.444444444444446%" stop-color="#002334" stop-opacity="1"></stop><stop offset="85.55555555555554%" stop-color="#003446" stop-opacity="1"></stop></linearGradient></defs><defs><linearGradient id="grad1_7" x1="43.8%" y1="0%" x2="100%" y2="100%"><stop offset="14.444444444444446%" stop-color="#002334" stop-opacity="1"></stop><stop offset="85.55555555555554%" stop-color="#001220" stop-opacity="1"></stop></linearGradient></defs><defs><linearGradient id="grad2_0" x1="0%" y1="0%" x2="56.3%" y2="100%"><stop offset="14.444444444444446%" stop-color="#009473" stop-opacity="1"></stop><stop offset="85.55555555555554%" stop-color="#009473" stop-opacity="1"></stop></linearGradient></defs><defs><linearGradient id="grad2_1" x1="0%" y1="0%" x2="56.3%" y2="100%"><stop offset="14.444444444444446%" stop-color="#008172" stop-opacity="1"></stop><stop offset="85.55555555555554%" stop-color="#009473" stop-opacity="1"></stop></linearGradient></defs><defs><linearGradient id="grad2_2" x1="0%" y1="0%" x2="56.3%" y2="100%"><stop offset="14.444444444444446%" stop-color="#008172" stop-opacity="1"></stop><stop offset="85.55555555555554%" stop-color="#006d6d" stop-opacity="1"></stop></linearGradient></defs><defs><linearGradient id="grad2_3" x1="0%" y1="0%" x2="56.3%" y2="100%"><stop offset="14.444444444444446%" stop-color="#005964" stop-opacity="1"></stop><stop offset="85.55555555555554%" stop-color="#006d6d" stop-opacity="1"></stop></linearGradient></defs><defs><linearGradient id="grad2_4" x1="0%" y1="0%" x2="56.3%" y2="100%"><stop offset="14.444444444444446%" stop-color="#005964" stop-opacity="1"></stop><stop offset="85.55555555555554%" stop-color="#004657" stop-opacity="1"></stop></linearGradient></defs><defs><linearGradient id="grad2_5" x1="0%" y1="0%" x2="56.3%" y2="100%"><stop offset="14.444444444444446%" stop-color="#003446" stop-opacity="1"></stop><stop offset="85.55555555555554%" stop-color="#004657" stop-opacity="1"></stop></linearGradient></defs><defs><linearGradient id="grad2_6" x1="0%" y1="0%" x2="56.3%" y2="100%"><stop offset="14.444444444444446%" stop-color="#003446" stop-opacity="1"></stop><stop offset="85.55555555555554%" stop-color="#002334" stop-opacity="1"></stop></linearGradient></defs><defs><linearGradient id="grad2_7" x1="0%" y1="0%" x2="56.3%" y2="100%"><stop offset="14.444444444444446%" stop-color="#001220" stop-opacity="1"></stop><stop offset="85.55555555555554%" stop-color="#002334" stop-opacity="1"></stop></linearGradient></defs><g transform="translate(960, 0)"><path d="M0 486C-48.2 439.1 -96.4 392.3 -154.2 372.3C-212.1 352.4 -279.6 359.4 -333 333C-386.5 306.7 -425.9 247 -449 186C-472.2 124.9 -479.1 62.5 -486 0L0 0Z" fill="#011a2a"></path><path d="M0 425.3C-42.2 384.2 -84.3 343.2 -134.9 325.8C-185.6 308.3 -244.7 314.5 -291.4 291.4C-338.2 268.4 -372.6 216.2 -392.9 162.7C-413.1 109.3 -419.2 54.7 -425.2 0L0 0Z" fill="#002b3d"></path><path d="M0 364.5C-36.1 329.3 -72.3 294.2 -115.7 279.2C-159.1 264.3 -209.7 269.5 -249.8 249.8C-289.9 230 -319.4 185.3 -336.8 139.5C-354.1 93.7 -359.3 46.8 -364.5 0L0 0Z" fill="#003d4f"></path><path d="M0 303.8C-30.1 274.5 -60.2 245.2 -96.4 232.7C-132.5 220.2 -174.8 224.6 -208.2 208.2C-241.6 191.7 -266.2 154.4 -280.6 116.2C-295.1 78.1 -299.4 39 -303.7 0L0 0Z" fill="#00505e"></path><path d="M0 243C-24.1 219.6 -48.2 196.1 -77.1 186.2C-106 176.2 -139.8 179.7 -166.5 166.5C-193.2 153.4 -212.9 123.5 -224.5 93C-236.1 62.5 -239.5 31.2 -243 0L0 0Z" fill="#006369"></path><path d="M0 182.3C-18.1 164.7 -36.1 147.1 -57.8 139.6C-79.5 132.1 -104.9 134.8 -124.9 124.9C-144.9 115 -159.7 92.6 -168.4 69.7C-177.1 46.8 -179.7 23.4 -182.2 0L0 0Z" fill="#007770"></path><path d="M0 121.5C-12 109.8 -24.1 98.1 -38.6 93.1C-53 88.1 -69.9 89.8 -83.3 83.3C-96.6 76.7 -106.5 61.8 -112.3 46.5C-118 31.2 -119.8 15.6 -121.5 0L0 0Z" fill="#008a73"></path><path d="M0 60.8C-6 54.9 -12 49 -19.3 46.5C-26.5 44 -35 44.9 -41.6 41.6C-48.3 38.3 -53.2 30.9 -56.1 23.2C-59 15.6 -59.9 7.8 -60.7 0L0 0Z" fill="#009473"></path></g><g transform="translate(0, 540)"><path d="M0 -486C68.3 -477.5 136.5 -469 178.3 -430.5C220.1 -392.1 235.4 -323.7 282.8 -282.8C330.3 -242 409.8 -228.5 449 -186C488.2 -143.4 487.1 -71.7 486 0L0 0Z" fill="#011a2a"></path><path d="M0 -425.2C59.7 -417.8 119.5 -410.3 156 -376.7C192.6 -343.1 206 -283.3 247.5 -247.5C289 -211.7 358.6 -200 392.9 -162.7C427.2 -125.5 426.2 -62.7 425.3 0L0 0Z" fill="#002b3d"></path><path d="M0 -364.5C51.2 -358.1 102.4 -351.7 133.7 -322.9C165.1 -294.1 176.6 -242.8 212.1 -212.1C247.7 -181.5 307.3 -171.4 336.8 -139.5C366.2 -107.6 365.3 -53.8 364.5 0L0 0Z" fill="#003d4f"></path><path d="M0 -303.7C42.7 -298.4 85.3 -293.1 111.5 -269.1C137.6 -245.1 147.1 -202.3 176.8 -176.8C206.4 -151.2 256.1 -142.8 280.6 -116.2C305.1 -89.6 304.4 -44.8 303.8 0L0 0Z" fill="#00505e"></path><path d="M0 -243C34.1 -238.7 68.3 -234.5 89.2 -215.3C110.1 -196 117.7 -161.9 141.4 -141.4C165.1 -121 204.9 -114.3 224.5 -93C244.1 -71.7 243.6 -35.9 243 0L0 0Z" fill="#006369"></path><path d="M0 -182.2C25.6 -179.1 51.2 -175.9 66.9 -161.4C82.5 -147 88.3 -121.4 106.1 -106.1C123.8 -90.7 153.7 -85.7 168.4 -69.7C183.1 -53.8 182.7 -26.9 182.3 0L0 0Z" fill="#007770"></path><path d="M0 -121.5C17.1 -119.4 34.1 -117.2 44.6 -107.6C55 -98 58.9 -80.9 70.7 -70.7C82.6 -60.5 102.4 -57.1 112.3 -46.5C122.1 -35.9 121.8 -17.9 121.5 0L0 0Z" fill="#008a73"></path><path d="M0 -60.7C8.5 -59.7 17.1 -58.6 22.3 -53.8C27.5 -49 29.4 -40.5 35.4 -35.4C41.3 -30.2 51.2 -28.6 56.1 -23.2C61 -17.9 60.9 -9 60.8 0L0 0Z" fill="#009473"></path></g></svg>