<?xml version="1.0" encoding="utf-8"?>
<!-- Generator: Adobe Illustrator 27.5.0, SVG Export Plug-In . SVG Version: 6.00 Build 0)  -->
<svg version="1.1" xmlns="http://www.w3.org/2000/svg" xmlns:xlink="http://www.w3.org/1999/xlink" x="0px" y="0px"
	 viewBox="0 0 500 500" style="enable-background:new 0 0 500 500;" xml:space="preserve">
<g id="BACKGROUND">
	<rect style="fill:#FFFFFF;" width="500" height="500"/>
</g>
<g id="OBJECTS">
	<path style="fill:#DFE6EE;" d="M104.483,141.791c62.724-62.429,148.858-85.357,214.79-78.503
		c75.357,7.834,127.898,55.959,141.864,121.064c0.962,4.484,1.743,9.058,2.327,13.718c3.693,29.446-0.7,62.456-14.732,96.181
		c-55.346,133.013-221.225,162.473-313.66,133.411C33.706,395.793-12.84,258.563,104.483,141.791z"/>
	<g>
		<g>
			<path style="fill:#FFBB39;" d="M173.323,80.081c-0.078-2.841-0.153-5.682-0.238-8.523c-0.009-0.302-0.143-2.197-0.378-2.402
				c-0.22-0.457-45.264-0.035-54.112-0.098c-8.687-0.062-51.971,0.116-52.218,0.12c-1.156,0.021-0.948,1.348-0.975,1.348
				c0.002,0.2-0.057,37.998-0.016,56.961c0.26,0.248,18.667,0.185,27.208,0.195c8.885,0.011,17.769-0.029,26.653-0.043
				c8.723-0.014,48.295,0.143,52.599-0.279c0.128-0.012,0.222-0.051,0.337-0.074c0.37-0.038,0.711-0.13,0.978-0.268
				c0.134-8.9,0.184-17.809,0.041-26.625C173.092,93.586,173.192,86.828,173.323,80.081z"/>
			<path style="fill:#B345B5;" d="M173.321,80.022c-0.077-2.821-0.152-5.643-0.236-8.464c-0.009-0.302-0.143-2.197-0.378-2.402
				c-0.22-0.457-45.264-0.035-54.112-0.098c-8.687-0.062-51.971,0.116-52.218,0.12c-1.156,0.021-0.948,1.348-0.975,1.348
				c0.001,0.063-0.005,3.814-0.011,9.519c6.571,0.022,18.341,0.015,24.851,0.019c9.671,0.005,19.341-0.005,29.011-0.007
				C127.621,80.055,162.057,80.099,173.321,80.022z"/>
			<path style="fill:#FFD075;" d="M164.897,76.12c-0.455-0.837-0.547-1.716-0.175-2.593c0.089-0.209,0.337-0.593,0.495-0.756
				c0.118-0.123,0.272-0.289,0.413-0.385c0.316-0.216,0.559-0.352,0.928-0.458c0.198-0.057,0.448-0.135,0.654-0.148
				c0.23-0.014,0.445,0.002,0.674,0.028c0.651,0.073,1.245,0.418,1.697,0.893c0.807,0.847,1.039,2.105,0.484,3.261
				c-0.828,1.722-2.773,2.129-4.211,1.19C165.458,76.893,165.124,76.537,164.897,76.12z"/>
			<path style="fill:#FFFFFF;" d="M156.225,76.12c-0.455-0.837-0.546-1.716-0.175-2.593c0.089-0.209,0.337-0.593,0.495-0.756
				c0.118-0.123,0.272-0.289,0.413-0.385c0.316-0.216,0.559-0.352,0.928-0.458c0.198-0.057,0.449-0.135,0.654-0.148
				c0.23-0.014,0.445,0.002,0.674,0.028c0.651,0.073,1.245,0.418,1.697,0.893c0.807,0.847,1.039,2.105,0.484,3.261
				c-0.827,1.722-2.773,2.129-4.211,1.19C156.786,76.893,156.452,76.537,156.225,76.12z"/>
			<path style="fill:#FFFFFF;" d="M147.553,76.12c-0.455-0.837-0.547-1.716-0.175-2.593c0.089-0.209,0.337-0.593,0.495-0.756
				c0.118-0.123,0.272-0.289,0.413-0.385c0.316-0.216,0.559-0.352,0.928-0.458c0.198-0.057,0.449-0.135,0.654-0.148
				c0.23-0.014,0.445,0.002,0.674,0.028c0.651,0.073,1.245,0.418,1.697,0.893c0.807,0.847,1.039,2.105,0.484,3.261
				c-0.827,1.722-2.773,2.129-4.211,1.19C148.114,76.893,147.78,76.537,147.553,76.12z"/>
		</g>
		<g>
			<path style="fill:#FFFFFF;" d="M167.415,92.688c-0.07-1.761-0.137-3.521-0.213-5.282c-0.008-0.187-0.128-1.361-0.337-1.488
				c-0.196-0.284-40.312-0.026-48.192-0.065c-7.737-0.039-46.285,0.067-46.505,0.07c-1.029,0.013-0.844,0.835-0.868,0.835
				c0.002,0.124-0.048,23.548-0.01,35.3c0.232,0.154,16.624,0.116,24.231,0.123c7.913,0.007,15.825-0.017,23.737-0.025
				c7.769-0.008,43.011,0.092,46.844-0.169c0.114-0.008,0.197-0.032,0.3-0.046c0.329-0.024,0.633-0.081,0.871-0.166
				c0.119-5.516,0.162-11.037,0.035-16.5C167.211,101.057,167.299,96.869,167.415,92.688z"/>
			<text transform="matrix(1 0 0 1 81.7127 110.834)" style="fill:#4C5980; font-family:'Rubik-Medium'; font-size:19.4932px;">{...}/&lt;...&gt;</text>
		</g>
	</g>
	<g>
		<g>
			<path style="fill:#4C5980;" d="M191.993,286.932c-0.096-9.387-0.188-18.773-0.293-28.161c-0.011-0.997-0.179-7.258-0.473-7.936
				c-0.276-1.511-56.73-0.09-67.819-0.292c-10.887-0.199-65.136,0.413-65.445,0.428c-1.448,0.069-1.189,4.455-1.223,4.453
				c0.003,0.662-0.095,125.553-0.055,188.212c0.326,0.821,23.395,0.599,34.099,0.628c11.135,0.03,22.27-0.106,33.405-0.159
				c10.933-0.053,60.528,0.443,65.923-0.955c0.16-0.041,0.278-0.17,0.422-0.244c0.464-0.127,0.891-0.431,1.226-0.887
				c0.174-29.408,0.241-58.845,0.068-87.975C191.697,331.553,191.825,309.224,191.993,286.932z"/>
			<path style="fill:#B345B5;" d="M191.739,262.528c-0.014-1.252-0.025-2.505-0.039-3.757c-0.011-0.997-0.178-7.258-0.473-7.936
				c-0.276-1.511-56.73-0.09-67.819-0.292c-10.888-0.199-65.136,0.413-65.445,0.428c-1.448,0.069-1.189,4.455-1.223,4.453
				c0,0.093-0.001,2.639-0.004,7.119c8.374,0.022,22.831,0.016,30.89,0.02c12.202,0.006,24.404-0.004,36.605-0.006
				C134.617,262.556,176.827,262.603,191.739,262.528z"/>
			<path style="fill:#FFD075;" d="M181.786,257.752c-0.456-0.837-0.547-1.716-0.175-2.593c0.089-0.209,0.337-0.593,0.495-0.757
				c0.118-0.123,0.272-0.289,0.413-0.385c0.316-0.216,0.559-0.352,0.928-0.458c0.198-0.057,0.449-0.135,0.654-0.148
				c0.23-0.014,0.445,0.002,0.674,0.028c0.651,0.073,1.245,0.418,1.697,0.893c0.807,0.847,1.039,2.105,0.484,3.261
				c-0.828,1.722-2.773,2.129-4.211,1.19C182.348,258.525,182.013,258.169,181.786,257.752z"/>
			<path style="fill:#FFFFFF;" d="M173.114,257.752c-0.455-0.837-0.546-1.716-0.175-2.593c0.089-0.209,0.337-0.593,0.495-0.757
				c0.118-0.123,0.272-0.289,0.413-0.385c0.316-0.216,0.559-0.352,0.927-0.458c0.198-0.057,0.449-0.135,0.654-0.148
				c0.23-0.014,0.445,0.002,0.674,0.028c0.651,0.073,1.245,0.418,1.697,0.893c0.807,0.847,1.039,2.105,0.484,3.261
				c-0.827,1.722-2.773,2.129-4.211,1.19C173.676,258.525,173.341,258.169,173.114,257.752z"/>
			<path style="fill:#FFFFFF;" d="M164.442,257.752c-0.456-0.837-0.547-1.716-0.175-2.593c0.089-0.209,0.337-0.593,0.495-0.757
				c0.118-0.123,0.272-0.289,0.413-0.385c0.316-0.216,0.559-0.352,0.928-0.458c0.198-0.057,0.448-0.135,0.654-0.148
				c0.23-0.014,0.445,0.002,0.674,0.028c0.651,0.073,1.245,0.418,1.697,0.893c0.807,0.847,1.039,2.105,0.484,3.261
				c-0.827,1.722-2.773,2.129-4.211,1.19C165.004,258.525,164.669,258.169,164.442,257.752z"/>
		</g>
		<g>
			<path style="fill:#D66EC0;" d="M117.783,271.89c-6.645,0.189-22.036,0.092-25.974,0.104c-4.873,0.014-9.747,0.053-14.621,0.043
				c-2.921-0.006-7.939,0.016-11.342-0.024c-0.167,0.376-0.12,0.998-0.13,0.998c0,0.037-0.001,1.412-0.003,3.73
				c3.297,0.054,8.743,0.028,11.814,0.034c4.761,0.009,9.521-0.029,14.282-0.043c4.007-0.012,20.164,0.093,26.146-0.129
				c-0.012-0.874-0.024-1.748-0.037-2.623C117.915,273.737,117.867,272.405,117.783,271.89z"/>
			<path style="fill:#FFD075;" d="M102.973,285.536c-3.188,0.189-10.571,0.092-12.46,0.104c-2.338,0.014-4.676,0.053-7.014,0.043
				c-1.401-0.006-3.808,0.016-5.441-0.024c-0.08,0.376-0.058,0.998-0.062,0.998c0,0.037,0,1.412-0.001,3.73
				c1.581,0.053,4.194,0.028,5.667,0.034c2.284,0.01,4.567-0.029,6.851-0.043c1.922-0.012,9.673,0.093,12.542-0.129
				c-0.006-0.874-0.011-1.748-0.018-2.623C103.036,287.383,103.013,286.051,102.973,285.536z"/>
			<path style="fill:#FFD075;" d="M122.165,421.96c-5.637,0.189-18.693,0.092-22.034,0.104c-4.134,0.014-8.268,0.053-12.403,0.043
				c-2.477-0.006-6.734,0.016-9.622-0.024c-0.141,0.376-0.102,0.998-0.11,0.998c0,0.037-0.001,1.412-0.002,3.73
				c2.797,0.053,7.417,0.028,10.022,0.034c4.039,0.009,8.077-0.029,12.115-0.043c3.4-0.012,17.106,0.093,22.18-0.129
				c-0.01-0.874-0.02-1.748-0.032-2.623C122.277,423.806,122.237,422.474,122.165,421.96z"/>
			<path style="fill:#7991D1;" d="M122.803,285.536c-2.15,0.189-7.131,0.092-8.405,0.104c-1.577,0.014-3.154,0.053-4.731,0.043
				c-0.945-0.006-2.569,0.016-3.671-0.024c-0.054,0.376-0.039,0.998-0.042,0.998c0,0.037,0,1.412-0.001,3.73
				c1.067,0.053,2.829,0.028,3.823,0.034c1.541,0.01,3.081-0.029,4.622-0.043c1.297-0.012,6.525,0.093,8.461-0.129
				c-0.004-0.874-0.008-1.748-0.012-2.623C122.846,287.383,122.83,286.051,122.803,285.536z"/>
			<path style="fill:#FFD075;" d="M134.296,340.675c-3.188,0.189-10.571,0.092-12.46,0.104c-2.338,0.014-4.676,0.053-7.014,0.043
				c-1.401-0.006-3.808,0.016-5.441-0.024c-0.08,0.376-0.058,0.998-0.062,0.998c0,0.037-0.001,1.412-0.001,3.73
				c1.581,0.053,4.194,0.028,5.667,0.034c2.284,0.01,4.567-0.029,6.851-0.043c1.922-0.012,9.673,0.093,12.542-0.129
				c-0.006-0.874-0.011-1.748-0.018-2.623C134.359,342.522,134.336,341.19,134.296,340.675z"/>
			<path style="fill:#7991D1;" d="M154.126,340.675c-2.15,0.189-7.131,0.092-8.405,0.104c-1.577,0.014-3.154,0.053-4.731,0.043
				c-0.945-0.006-2.569,0.016-3.67-0.024c-0.054,0.376-0.039,0.998-0.042,0.998c0,0.037,0,1.412-0.001,3.73
				c1.067,0.053,2.829,0.028,3.823,0.034c1.541,0.01,3.081-0.029,4.622-0.043c1.297-0.012,6.525,0.093,8.461-0.129
				c-0.004-0.874-0.008-1.748-0.012-2.623C154.169,342.522,154.153,341.19,154.126,340.675z"/>
			<path style="fill:#7991D1;" d="M131.087,381.835c-2.15,0.189-7.131,0.092-8.405,0.104c-1.577,0.014-3.154,0.053-4.731,0.043
				c-0.945-0.006-2.569,0.016-3.67-0.024c-0.054,0.376-0.039,0.998-0.042,0.998c0,0.037,0,1.412-0.001,3.73
				c1.067,0.053,2.829,0.028,3.823,0.034c1.541,0.009,3.081-0.029,4.622-0.043c1.297-0.012,6.525,0.093,8.461-0.129
				c-0.004-0.874-0.008-1.748-0.012-2.623C131.129,383.682,131.114,382.349,131.087,381.835z"/>
			<path style="fill:#7991D1;" d="M131.087,390.766c-2.15,0.189-7.131,0.092-8.405,0.104c-1.577,0.014-3.154,0.053-4.731,0.043
				c-0.945-0.006-2.569,0.016-3.67-0.024c-0.054,0.376-0.039,0.998-0.042,0.998c0,0.037,0,1.412-0.001,3.73
				c1.067,0.054,2.829,0.028,3.823,0.034c1.541,0.009,3.081-0.029,4.622-0.043c1.297-0.012,6.525,0.093,8.461-0.129
				c-0.004-0.874-0.008-1.748-0.012-2.623C131.129,392.613,131.114,391.28,131.087,390.766z"/>
			<path style="fill:#7991D1;" d="M156.822,285.536c-3.925,0.189-13.016,0.092-15.342,0.104c-2.879,0.014-5.757,0.053-8.636,0.043
				c-1.725-0.006-4.689,0.016-6.7-0.024c-0.098,0.376-0.071,0.998-0.076,0.998c0,0.037-0.001,1.412-0.002,3.73
				c1.947,0.053,5.164,0.028,6.978,0.034c2.812,0.01,5.624-0.029,8.436-0.043c2.367-0.012,11.91,0.093,15.444-0.129
				c-0.007-0.874-0.014-1.748-0.022-2.623C156.9,287.383,156.872,286.051,156.822,285.536z"/>
			<path style="fill:#FFD075;" d="M170.486,299.265c-9.016,0.203-29.896,0.099-35.238,0.112c-6.612,0.015-13.223,0.057-19.836,0.046
				c-3.962-0.006-10.77,0.017-15.388-0.025c-0.226,0.404-0.163,1.073-0.176,1.073c0,0.039-0.001,1.517-0.003,4.007
				c4.472,0.058,11.862,0.03,16.028,0.036c6.459,0.01,12.917-0.031,19.376-0.046c5.437-0.013,27.356,0.1,35.471-0.139
				c-0.017-0.939-0.032-1.878-0.051-2.818C170.665,301.249,170.6,299.818,170.486,299.265z"/>
			<path style="fill:#FFFFFF;" d="M170.486,308.584c-9.016,0.203-29.896,0.099-35.238,0.112c-6.612,0.015-13.223,0.057-19.836,0.046
				c-3.962-0.006-10.77,0.017-15.388-0.025c-0.226,0.404-0.163,1.073-0.176,1.072c0,0.039-0.001,1.517-0.003,4.007
				c4.472,0.057,11.862,0.03,16.028,0.036c6.459,0.01,12.917-0.031,19.376-0.046c5.437-0.013,27.356,0.1,35.471-0.139
				c-0.017-0.939-0.032-1.879-0.051-2.818C170.665,310.569,170.6,309.137,170.486,308.584z"/>
			<path style="fill:#FFFFFF;" d="M152.683,317.903c-6.743,0.203-22.361,0.099-26.357,0.112c-4.945,0.015-9.891,0.057-14.837,0.047
				c-2.964-0.006-8.056,0.017-11.51-0.026c-0.169,0.404-0.122,1.073-0.132,1.073c0,0.039-0.001,1.517-0.003,4.007
				c3.345,0.057,8.872,0.03,11.988,0.036c4.831,0.01,9.662-0.031,14.493-0.046c4.067-0.013,20.462,0.1,26.532-0.139
				c-0.013-0.939-0.024-1.878-0.038-2.818C152.817,319.888,152.768,318.456,152.683,317.903z"/>
			<path style="fill:#FFD075;" d="M152.683,410.837c-6.743,0.203-22.361,0.099-26.357,0.112c-4.945,0.015-9.891,0.057-14.837,0.046
				c-2.964-0.006-8.056,0.017-11.51-0.025c-0.169,0.404-0.122,1.073-0.132,1.072c0,0.04-0.001,1.517-0.003,4.007
				c3.345,0.057,8.872,0.03,11.988,0.036c4.831,0.01,9.662-0.031,14.493-0.046c4.067-0.013,20.462,0.1,26.532-0.139
				c-0.013-0.939-0.024-1.878-0.038-2.818C152.817,412.821,152.768,411.389,152.683,410.837z"/>
			<path style="fill:#FFFFFF;" d="M184.723,353.886c-9.016,0.203-29.895,0.099-35.238,0.112c-6.612,0.015-13.223,0.057-19.836,0.046
				c-3.962-0.006-10.77,0.017-15.388-0.025c-0.226,0.404-0.163,1.073-0.176,1.072c0,0.04-0.001,1.517-0.004,4.007
				c4.472,0.058,11.862,0.03,16.028,0.036c6.459,0.01,12.917-0.031,19.376-0.046c5.437-0.013,27.356,0.1,35.471-0.139
				c-0.017-0.939-0.033-1.878-0.051-2.818C184.902,355.87,184.838,354.439,184.723,353.886z"/>
			<path style="fill:#FFFFFF;" d="M184.723,363.205c-9.016,0.203-29.895,0.099-35.238,0.112c-6.612,0.015-13.223,0.057-19.836,0.046
				c-3.962-0.006-10.77,0.017-15.388-0.025c-0.226,0.404-0.163,1.073-0.176,1.072c0,0.039-0.001,1.517-0.004,4.007
				c4.472,0.057,11.862,0.03,16.028,0.036c6.459,0.01,12.917-0.031,19.376-0.047c5.437-0.013,27.356,0.1,35.471-0.139
				c-0.017-0.939-0.033-1.878-0.051-2.818C184.902,365.19,184.838,363.758,184.723,363.205z"/>
			<path style="fill:#FFFFFF;" d="M166.921,372.524c-6.743,0.203-22.361,0.099-26.357,0.112c-4.945,0.015-9.891,0.057-14.837,0.046
				c-2.964-0.006-8.056,0.017-11.51-0.025c-0.169,0.404-0.122,1.073-0.131,1.072c0,0.039-0.001,1.517-0.003,4.007
				c3.345,0.057,8.872,0.03,11.988,0.036c4.831,0.01,9.662-0.031,14.493-0.046c4.067-0.013,20.462,0.1,26.532-0.139
				c-0.013-0.939-0.024-1.879-0.038-2.818C167.054,374.509,167.006,373.077,166.921,372.524z"/>
			<path style="fill:#FFFFFF;" d="M142.087,399.511c-3.574,0.203-11.852,0.099-13.969,0.112c-2.621,0.015-5.242,0.057-7.863,0.046
				c-1.571-0.006-4.27,0.017-6.1-0.025c-0.09,0.404-0.065,1.073-0.07,1.072c0,0.04,0,1.517-0.001,4.007
				c1.773,0.058,4.702,0.03,6.354,0.036c2.561,0.01,5.121-0.031,7.681-0.046c2.155-0.013,10.845,0.1,14.062-0.139
				c-0.007-0.939-0.013-1.878-0.02-2.818C142.158,401.496,142.132,400.064,142.087,399.511z"/>
			<path style="fill:#FFFFFF;" d="M178.374,399.511c-4.33,0.203-14.359,0.099-16.925,0.112c-3.176,0.015-6.351,0.057-9.527,0.046
				c-1.903-0.006-5.173,0.017-7.391-0.025c-0.108,0.404-0.078,1.073-0.084,1.072c0,0.04-0.001,1.517-0.002,4.007
				c2.148,0.058,5.697,0.03,7.698,0.036c3.102,0.01,6.204-0.031,9.306-0.046c2.611-0.013,13.139,0.1,17.037-0.139
				c-0.008-0.939-0.016-1.878-0.024-2.818C178.459,401.496,178.428,400.064,178.374,399.511z"/>
			<path style="fill:#7991D1;" d="M79.827,404.052c-0.022-3.845-0.045-7.69-0.067-11.534c-0.045-7.69-0.089-15.379-0.134-23.069
				c-0.09-15.546-0.181-31.093-0.272-46.639c-0.052-8.86-0.103-17.72-0.141-26.579c-0.002-0.56-0.874-0.561-0.87,0
				c0.212,31.092,0.346,62.186,0.514,93.278c0.023,4.346,0.047,8.693,0.07,13.039c0.024,4.481-0.2,9.081,0.263,13.54
				c0.034,0.331,0.486,0.334,0.517,0C80.074,412.118,79.85,408.037,79.827,404.052z"/>
			<path style="fill:#7991D1;" d="M101.318,345.053c0.038-5.572,0.095-11.145,0.094-16.717c0-0.514-0.791-0.525-0.799-0.01
				c-0.3,19.707-0.322,39.422-0.459,59.131c-0.039,5.573-0.11,11.145-0.048,16.717c0.005,0.438,0.67,0.448,0.682,0.008
				C101.302,384.487,101.182,364.756,101.318,345.053z"/>
		</g>
	</g>
	<g>
		<g>
			<path style="fill:#FFFFFF;" d="M442.528,171.633c-0.187-9.809-0.368-19.618-0.573-29.428c-0.022-1.042-0.346-7.584-0.915-8.293
				c-0.533-1.579-109.519-0.109-130.925-0.323c-21.018-0.211-125.746,0.415-126.343,0.431c-2.796,0.072-2.294,4.655-2.359,4.653
				c0.005,0.691-0.15,131.2-0.057,196.676c0.63,0.858,108.823,0.56,130.319,0.508c21.106-0.052,116.851,0.478,127.266-0.98
				c0.31-0.043,0.536-0.178,0.815-0.255c0.895-0.133,1.72-0.45,2.367-0.927c0.328-30.731,0.45-61.491,0.108-91.932
				C441.967,218.261,442.21,194.928,442.528,171.633z"/>
			<path style="fill:#B345B5;" d="M311.648,145.625c19.604-0.052,94.007,0.358,130.367-0.379c-0.021-1.014-0.038-2.027-0.059-3.041
				c-0.022-1.041-0.346-7.584-0.914-8.293c-0.533-1.579-109.519-0.109-130.925-0.323c-21.019-0.211-125.746,0.415-126.343,0.431
				c-2.796,0.072-2.294,4.655-2.359,4.653c0.001,0.093-0.002,2.562-0.006,6.893C219.369,145.887,293.066,145.672,311.648,145.625z"
				/>
			<path style="fill:#D5DFE9;" d="M441.735,204.742c-0.018,16.884-0.028,33.767-0.039,50.65c-0.011,16.883-0.011,33.767,0.007,50.65
				c0.01,9.316-0.147,18.653,0.11,27.966c-11.634,0.499-23.297,0.922-34.91,1.788c-0.305,0.023-0.314,0.485,0,0.482
				c11.639-0.131,23.289-0.707,34.918-1.206c0.092-0.004,0.169-0.029,0.236-0.065c0.208,0.073,0.482-0.036,0.492-0.327
				c0.271-8.469,0.147-16.959,0.174-25.432c0.027-8.406,0.044-16.812,0.057-25.218c0.026-16.883,0.13-33.767,0.108-50.65
				c-0.012-9.546,0.021-19.092,0.031-28.638C442.92,203.98,441.736,203.979,441.735,204.742z"/>
			<path style="fill:#D5DFE9;" d="M442.764,156.788c-0.048-0.636-1.02-0.653-1.004,0c0.168,6.633,0.468,13.251,0.464,19.889
				c-0.004,6.632-0.196,13.263-0.472,19.889c-0.028,0.674,1.005,0.667,1.044,0c0.387-6.623,0.535-13.255,0.526-19.889
				C443.315,170.058,443.265,163.391,442.764,156.788z"/>
			<path style="fill:#FFD075;" d="M431.9,141.039c-0.389-0.714-0.466-1.465-0.149-2.214c0.076-0.179,0.288-0.506,0.423-0.646
				c0.101-0.105,0.232-0.247,0.352-0.329c0.27-0.185,0.477-0.301,0.792-0.391c0.169-0.048,0.383-0.115,0.558-0.126
				c0.196-0.012,0.38,0.002,0.575,0.024c0.556,0.062,1.063,0.357,1.449,0.762c0.689,0.723,0.887,1.797,0.413,2.784
				c-0.706,1.47-2.367,1.818-3.595,1.016C432.38,141.699,432.094,141.395,431.9,141.039z"/>
			<path style="fill:#FFFFFF;" d="M424.497,141.039c-0.389-0.714-0.466-1.465-0.149-2.214c0.076-0.179,0.288-0.506,0.423-0.646
				c0.101-0.105,0.232-0.247,0.352-0.329c0.27-0.185,0.478-0.301,0.792-0.391c0.169-0.048,0.383-0.115,0.558-0.126
				c0.196-0.012,0.38,0.002,0.575,0.024c0.556,0.062,1.063,0.357,1.449,0.762c0.689,0.723,0.887,1.797,0.413,2.784
				c-0.706,1.47-2.367,1.818-3.595,1.016C424.977,141.699,424.691,141.395,424.497,141.039z"/>
			<path style="fill:#FFFFFF;" d="M417.095,141.039c-0.389-0.714-0.467-1.465-0.149-2.214c0.076-0.179,0.288-0.506,0.423-0.646
				c0.101-0.105,0.232-0.247,0.352-0.329c0.27-0.185,0.478-0.301,0.792-0.391c0.169-0.048,0.383-0.115,0.558-0.126
				c0.196-0.012,0.38,0.002,0.575,0.024c0.556,0.062,1.063,0.357,1.449,0.762c0.689,0.723,0.887,1.797,0.413,2.784
				c-0.706,1.47-2.367,1.818-3.595,1.016C417.574,141.699,417.288,141.395,417.095,141.039z"/>
		</g>
		<g>
			<g>
				<g>
					<path style="fill:#FFBB39;" d="M209.304,182.745c0-3.817,0-7.635,0-11.452c0-0.754,0.7-1.166,1.335-1.175
						c4.781-0.069,9.563-0.138,14.344-0.208c4.502-0.065,9.003-0.13,13.504-0.196c2.97,3.605,5.405,7.725,6.582,12.571
						c-9.004,1.044-18.057,1.315-27.1,1.585c-2.812,0.084-5.674,0.161-8.382-0.742C209.518,182.853,209.304,183.033,209.304,182.745
						z"/>
					<path style="fill:#EB9921;" d="M296.397,233.544c0.249-15.957,0.072-31.639-0.087-47.486c-0.016-1.554-0.002-3.198-0.676-4.486
						c-0.674-1.288-2.205-1.485-3.409-1.511c-26.813-0.571-53.637-0.319-80.441,0.757c-0.869,0.035-1.72-0.008-2.447,0.607
						c-0.727,0.615-0.629,1.25-0.598,2.907c0.231,17.023,0.462,34.046,0.693,51.069c0.034,2.504,2.302,4.148,4.244,4.145
						c26.19-0.038,52.538-1.67,78.728-1.708c1.034-0.002,2.138-0.03,2.993-0.781C296.251,236.307,296.565,235.132,296.397,233.544z"
						/>
				</g>
				<g>
					<path style="fill:#FFBB39;" d="M325.652,182.745c0-3.817,0-7.635,0-11.452c0-0.754,0.7-1.166,1.335-1.175
						c4.781-0.069,9.563-0.138,14.344-0.208c4.502-0.065,9.003-0.13,13.504-0.196c2.97,3.605,5.405,7.725,6.582,12.571
						c-9.004,1.044-18.057,1.315-27.1,1.585c-2.812,0.084-5.674,0.161-8.382-0.742C325.866,182.853,325.652,183.033,325.652,182.745
						z"/>
					<path style="fill:#EB9921;" d="M412.745,233.544c0.249-15.957,0.071-31.639-0.087-47.486c-0.016-1.554-0.002-3.198-0.676-4.486
						c-0.674-1.288-2.205-1.485-3.409-1.511c-26.813-0.571-53.637-0.319-80.441,0.757c-0.869,0.035-1.72-0.008-2.447,0.607
						c-0.727,0.615-0.629,1.25-0.598,2.907c0.231,17.023,0.462,34.046,0.693,51.069c0.034,2.504,2.302,4.148,4.244,4.145
						c26.19-0.038,52.538-1.67,78.728-1.708c1.034-0.002,2.138-0.03,2.993-0.781C412.598,236.307,412.913,235.132,412.745,233.544z"
						/>
				</g>
				<g>
					<path style="fill:#FFBB39;" d="M209.304,264.288c0-3.817,0-7.635,0-11.452c0-0.754,0.7-1.166,1.335-1.175
						c4.781-0.069,9.563-0.138,14.344-0.208c4.502-0.065,9.003-0.13,13.504-0.196c2.97,3.605,5.405,7.725,6.582,12.571
						c-9.004,1.044-18.057,1.315-27.1,1.585c-2.812,0.084-5.674,0.161-8.382-0.742C209.518,264.396,209.304,264.576,209.304,264.288
						z"/>
					<path style="fill:#EB9921;" d="M296.397,315.087c0.249-15.957,0.072-31.639-0.087-47.486c-0.016-1.554-0.002-3.198-0.676-4.486
						c-0.674-1.288-2.205-1.485-3.409-1.511c-26.813-0.571-53.637-0.319-80.441,0.757c-0.869,0.035-1.72-0.008-2.447,0.607
						c-0.727,0.615-0.629,1.25-0.598,2.906c0.231,17.023,0.462,34.046,0.693,51.069c0.034,2.504,2.302,4.148,4.244,4.146
						c26.19-0.038,52.538-1.67,78.728-1.708c1.034-0.002,2.138-0.03,2.993-0.781C296.251,317.85,296.565,316.675,296.397,315.087z"
						/>
				</g>
				<g>
					<path style="fill:#FFBB39;" d="M325.652,264.288c0-3.817,0-7.635,0-11.452c0-0.754,0.7-1.166,1.335-1.175
						c4.781-0.069,9.563-0.138,14.344-0.208c4.502-0.065,9.003-0.13,13.504-0.196c2.97,3.605,5.405,7.725,6.582,12.571
						c-9.004,1.044-18.057,1.315-27.1,1.585c-2.812,0.084-5.674,0.161-8.382-0.742C325.866,264.396,325.652,264.576,325.652,264.288
						z"/>
					<path style="fill:#EB9921;" d="M412.745,315.087c0.249-15.957,0.071-31.639-0.087-47.486c-0.016-1.554-0.002-3.198-0.676-4.486
						c-0.674-1.288-2.205-1.485-3.409-1.511c-26.813-0.571-53.637-0.319-80.441,0.757c-0.869,0.035-1.72-0.008-2.447,0.607
						c-0.727,0.615-0.629,1.25-0.598,2.906c0.231,17.023,0.462,34.046,0.693,51.069c0.034,2.504,2.302,4.148,4.244,4.146
						c26.19-0.038,52.538-1.67,78.728-1.708c1.034-0.002,2.138-0.03,2.993-0.781C412.598,317.85,412.913,316.675,412.745,315.087z"
						/>
				</g>
			</g>
			<path style="fill:#4C5980;" d="M405.831,215.606c-0.045-0.979-0.089-1.959-0.137-2.938c-0.005-0.104-0.07-0.757-0.17-0.826
				c-0.095-0.157-19.136,0.224-22.876,0.249c-3.673,0.024-21.97,0.311-22.075,0.314c-0.488,0.013-0.395,0.47-0.406,0.47
				c0.002,0.069,0.139,13.104,0.237,19.643c0.111,0.084,7.892-0.034,11.503-0.075c3.756-0.043,7.512-0.103,11.268-0.154
				c3.688-0.051,20.417-0.203,22.235-0.371c0.054-0.005,0.093-0.019,0.142-0.027c0.156-0.015,0.3-0.049,0.412-0.098
				c0.019-3.07,0.001-6.143-0.097-9.182C405.792,220.264,405.805,217.933,405.831,215.606z"/>
			
				<text transform="matrix(0.9999 -0.0124 0.0124 0.9999 366.7871 227.8578)" style="fill:#FFFFFF; font-family:'Rubik-Bold'; font-size:16.6404px;">SQL</text>
		</g>
	</g>
	<g>
		<path style="fill:#D66EC0;" d="M145.802,234.334c0.035-6.533,0.069-13.065,0.104-19.598c0.001-0.204-0.002-0.423-0.121-0.589
			c-0.176-0.247-0.525-0.277-0.828-0.284c-0.793-0.019-1.789,0.349-2.615,0.392c0.104-0.089,0.171-0.266,0.072-0.383
			c-0.161-0.19-0.453-0.173-0.7-0.143c-5.677,0.688-11.373-0.66-17.046-1.382c-8.292-1.055-16.699-0.771-25.029-0.087
			c-5.521,0.454-11.073,1.092-16.341,2.805c-0.309,0.1-0.635,0.217-0.837,0.472c-0.229,0.291-0.243,0.691-0.245,1.061
			c-0.052,6.19-0.046,12.381,0.012,18.572c-0.093,0.362-0.103,0.744,0.006,1.142c0.667,2.449,6.165,2.877,8.314,3.055
			c4.649,0.386,9.367,0.371,14.029,0.351c9.282-0.041,18.553-0.547,27.818-1.053c4.209-0.23,8.589-0.507,12.26-2.578
			c0.489-0.276,0.998-0.63,1.147-1.171C145.857,234.713,145.845,234.52,145.802,234.334z"/>
		<path style="fill:#EBA7DC;" d="M82.387,216.327c-0.524-1.922,1.598-3.48,3.471-4.164c3.872-1.415,8.019-1.883,12.129-2.204
			c12.814-0.999,25.732-0.663,38.476,1.002c2.615,0.342,5.253,0.747,7.696,1.739c0.971,0.395,2.073,1.22,1.795,2.23
			c-0.149,0.541-0.658,0.895-1.147,1.171c-3.671,2.071-8.05,2.348-12.259,2.578c-9.266,0.506-18.537,1.012-27.819,1.053
			c-4.662,0.02-9.38,0.035-14.029-0.351C88.551,219.204,83.054,218.776,82.387,216.327z"/>
		<path style="fill:#B345B5;" d="M144.738,212.728c0.035-6.533,0.07-13.066,0.105-19.598c0.001-0.204-0.002-0.423-0.116-0.589
			c-0.169-0.246-0.504-0.277-0.796-0.284c-0.762-0.019-1.72,0.35-2.514,0.392c0.1-0.089,0.164-0.266,0.069-0.383
			c-0.154-0.19-0.435-0.172-0.672-0.142c-5.458,0.689-10.934-0.657-16.387-1.377c-7.971-1.052-16.054-0.767-24.063-0.08
			c-5.308,0.455-10.646,1.095-15.711,2.81c-0.297,0.101-0.611,0.217-0.804,0.473c-0.22,0.291-0.233,0.691-0.236,1.061
			c-0.052,6.19-0.048,12.381,0.006,18.572c-0.089,0.362-0.099,0.744,0.005,1.142c0.641,2.449,5.926,2.875,7.992,3.053
			c4.47,0.384,9.006,0.368,13.487,0.346c8.924-0.043,17.837-0.552,26.745-1.061c4.047-0.231,8.258-0.51,11.787-2.582
			c0.47-0.276,0.96-0.63,1.103-1.171C144.79,213.106,144.779,212.914,144.738,212.728z"/>
		<path style="fill:#D66EC0;" d="M145.985,210.353c0.034-6.533,0.069-13.065,0.103-19.598c0.001-0.204-0.002-0.423-0.121-0.589
			c-0.176-0.247-0.525-0.277-0.828-0.284c-0.793-0.019-1.789,0.349-2.615,0.392c0.104-0.089,0.171-0.266,0.072-0.383
			c-0.16-0.19-0.452-0.173-0.699-0.143c-5.677,0.688-11.373-0.66-17.046-1.382c-8.292-1.055-16.699-0.771-25.029-0.087
			c-5.521,0.454-11.073,1.092-16.341,2.805c-0.309,0.1-0.635,0.217-0.837,0.472c-0.229,0.291-0.243,0.691-0.246,1.061
			c-0.052,6.19-0.046,12.381,0.012,18.572c-0.093,0.362-0.103,0.744,0.006,1.142c0.667,2.449,6.164,2.877,8.314,3.055
			c4.649,0.386,9.367,0.371,14.029,0.351c9.282-0.041,18.553-0.547,27.819-1.053c4.209-0.23,8.589-0.507,12.259-2.578
			c0.489-0.276,0.998-0.63,1.147-1.171C146.04,210.732,146.028,210.539,145.985,210.353z"/>
		<path style="fill:#EBA7DC;" d="M82.569,192.346c-0.524-1.922,1.598-3.48,3.471-4.164c3.872-1.415,8.019-1.883,12.129-2.204
			c12.814-0.999,25.731-0.663,38.476,1.002c2.615,0.342,5.253,0.747,7.696,1.739c0.971,0.395,2.073,1.22,1.795,2.23
			c-0.148,0.541-0.658,0.895-1.147,1.171c-3.671,2.071-8.05,2.348-12.26,2.578c-9.266,0.506-18.537,1.012-27.818,1.053
			c-4.662,0.02-9.38,0.035-14.029-0.351C88.734,195.222,83.237,194.795,82.569,192.346z"/>
		<path style="fill:#B345B5;" d="M144.921,188.747c0.035-6.533,0.07-13.066,0.105-19.598c0.001-0.204-0.002-0.423-0.116-0.589
			c-0.169-0.247-0.504-0.277-0.796-0.284c-0.762-0.019-1.72,0.35-2.514,0.392c0.1-0.089,0.164-0.266,0.069-0.383
			c-0.154-0.19-0.435-0.172-0.672-0.142c-5.458,0.689-10.934-0.657-16.387-1.377c-7.971-1.052-16.054-0.766-24.063-0.08
			c-5.308,0.455-10.646,1.095-15.711,2.81c-0.297,0.101-0.611,0.217-0.804,0.473c-0.22,0.291-0.233,0.691-0.236,1.061
			c-0.052,6.19-0.048,12.381,0.006,18.572c-0.089,0.362-0.099,0.744,0.005,1.142c0.641,2.449,5.926,2.875,7.992,3.053
			c4.47,0.384,9.006,0.368,13.487,0.347c8.923-0.044,17.837-0.553,26.745-1.061c4.047-0.231,8.258-0.51,11.787-2.582
			c0.47-0.276,0.96-0.63,1.103-1.171C144.973,189.125,144.962,188.932,144.921,188.747z"/>
		<path style="fill:#D66EC0;" d="M146.168,186.372c0.035-6.533,0.069-13.066,0.104-19.598c0.001-0.204-0.002-0.423-0.121-0.589
			c-0.176-0.247-0.525-0.277-0.828-0.284c-0.793-0.019-1.789,0.349-2.615,0.392c0.104-0.089,0.171-0.266,0.072-0.383
			c-0.161-0.19-0.453-0.173-0.7-0.143c-5.677,0.688-11.373-0.66-17.046-1.382c-8.292-1.055-16.699-0.771-25.029-0.087
			c-5.521,0.454-11.073,1.092-16.341,2.805c-0.309,0.101-0.635,0.217-0.837,0.472c-0.229,0.291-0.243,0.691-0.245,1.061
			c-0.052,6.19-0.046,12.381,0.012,18.571c-0.093,0.362-0.103,0.744,0.006,1.142c0.668,2.449,6.164,2.877,8.314,3.055
			c4.649,0.386,9.367,0.371,14.029,0.351c9.282-0.041,18.553-0.547,27.818-1.053c4.209-0.23,8.589-0.507,12.26-2.578
			c0.489-0.276,0.998-0.63,1.147-1.171C146.223,186.75,146.211,186.558,146.168,186.372z"/>
		<path style="fill:#EBA7DC;" d="M82.752,168.364c-0.524-1.922,1.598-3.479,3.471-4.164c3.872-1.415,8.019-1.883,12.129-2.204
			c12.814-0.999,25.732-0.663,38.476,1.002c2.615,0.342,5.253,0.747,7.696,1.739c0.971,0.395,2.073,1.22,1.795,2.23
			c-0.149,0.541-0.658,0.895-1.147,1.171c-3.671,2.071-8.05,2.348-12.259,2.578c-9.266,0.506-18.537,1.012-27.819,1.053
			c-4.662,0.02-9.38,0.035-14.029-0.351C88.917,171.241,83.42,170.814,82.752,168.364z"/>
	</g>
	<g>
		<g>
			<path style="fill:#FFBB39;" d="M396.491,382.041c-0.107-4.56-0.21-9.12-0.326-13.68c-0.013-0.484-0.197-3.526-0.519-3.855
				c-0.302-0.734-62.1-0.054-74.237-0.154c-11.918-0.099-71.301,0.189-71.639,0.196c-1.586,0.033-1.301,2.164-1.338,2.163
				c0.003,0.321-0.081,60.992-0.026,91.43c0.357,0.399,25.609,0.295,37.327,0.311c12.189,0.017,24.378-0.048,36.567-0.071
				c11.967-0.024,66.257,0.226,72.162-0.452c0.176-0.02,0.304-0.083,0.463-0.118c0.507-0.062,0.975-0.209,1.342-0.431
				c0.185-14.286,0.253-28.586,0.059-42.737C396.174,403.717,396.311,392.87,396.491,382.041z"/>
			<path style="fill:#B345B5;" d="M284.23,375.376c12.697,0.006,25.392-0.002,38.088-0.003c11.896-0.001,63.939,0.051,74.013-0.045
				c-0.055-2.322-0.107-4.644-0.166-6.967c-0.013-0.484-0.197-3.526-0.519-3.855c-0.302-0.734-62.1-0.054-74.237-0.154
				c-11.918-0.099-71.301,0.189-71.639,0.197c-1.586,0.033-1.301,2.164-1.338,2.163c0.001,0.074-0.003,3.319-0.009,8.634
				C255.769,375.378,274.486,375.371,284.23,375.376z"/>
			<path style="fill:#FFD075;" d="M387.376,371.376c-0.456-0.837-0.547-1.716-0.175-2.594c0.089-0.209,0.337-0.593,0.495-0.756
				c0.118-0.123,0.272-0.289,0.412-0.385c0.316-0.216,0.56-0.352,0.928-0.457c0.198-0.057,0.448-0.135,0.654-0.148
				c0.23-0.014,0.445,0.002,0.674,0.027c0.651,0.073,1.245,0.418,1.697,0.893c0.807,0.847,1.039,2.105,0.484,3.261
				c-0.828,1.722-2.773,2.129-4.211,1.19C387.937,372.149,387.602,371.793,387.376,371.376z"/>
			<path style="fill:#FFFFFF;" d="M378.704,371.376c-0.456-0.837-0.547-1.716-0.175-2.594c0.089-0.209,0.337-0.593,0.495-0.756
				c0.118-0.123,0.272-0.289,0.413-0.385c0.316-0.216,0.559-0.352,0.928-0.457c0.198-0.057,0.448-0.135,0.654-0.148
				c0.23-0.014,0.445,0.002,0.674,0.027c0.651,0.073,1.245,0.418,1.697,0.893c0.807,0.847,1.039,2.105,0.484,3.261
				c-0.828,1.722-2.773,2.129-4.211,1.19C379.265,372.149,378.93,371.793,378.704,371.376z"/>
			<path style="fill:#FFFFFF;" d="M370.032,371.376c-0.455-0.837-0.546-1.716-0.175-2.594c0.089-0.209,0.337-0.593,0.495-0.756
				c0.118-0.123,0.272-0.289,0.413-0.385c0.316-0.216,0.559-0.352,0.927-0.457c0.198-0.057,0.449-0.135,0.654-0.148
				c0.23-0.014,0.445,0.002,0.674,0.027c0.651,0.073,1.245,0.418,1.697,0.893c0.807,0.847,1.039,2.105,0.484,3.261
				c-0.827,1.722-2.773,2.129-4.211,1.19C370.593,372.149,370.258,371.793,370.032,371.376z"/>
		</g>
		<g>
			<path style="fill:#4C5980;" d="M321.748,422.821c-4.152,0.297-8.316,0.426-12.478,0.386c-0.404-0.004-1.007-0.014-1.055-0.415
				c-0.401-3.4-0.393-6.847,0.023-10.245c0.029-0.238,0.063-0.485,0.189-0.689c0.126-0.204,0.226-0.244,0.466-0.241
				c4.243,0.062,8.488,0.016,12.728-0.139c0.041-2.05-0.026-4.319-0.148-6.366c0.579-0.521,1.557-0.046,2.163,0.444
				c4.363,3.526,8.751,6.697,12.195,10.731c0.89,1.043,0.239,2.155-0.694,3.16c-0.933,1.005-3.502,3.199-4.527,4.111
				c-1.757,1.562-4.566,4.314-7.586,6.795c-0.27,0.222-0.944-0.515-0.971-0.863C321.87,427.143,321.931,425.168,321.748,422.821z"/>
			<g>
				<path style="fill:#FFFFFF;" d="M298.791,398.493c-3.951-3.053-8.147-6.194-12.162-9.163c-2.166-0.002-4.666,0.013-6.832-0.042
					c-4.719-0.119-17.591,0.168-18.034,0.562c-0.443,0.393-0.612,1.029-0.602,1.621c0.28,16.99-0.374,29.352-0.04,50.863
					c0.013,0.811,0.453,1.503,1.265,1.517c12.486,0.209,22.061,0.35,33.08-0.206c0.45-0.023,3.026,0.082,3.274-0.294
					c0.248-0.376,0.405-0.828,0.405-1.278c0.001-6.836-0.175-15.136-0.212-22.601C298.898,412.528,299.062,405.246,298.791,398.493z
					"/>
				<path style="fill:#D5DFE9;" d="M298.922,398.419c-2.559,1.176-5.082,2.431-7.564,3.762c-0.438,0.235-0.882,0.475-1.369,0.578
					c-0.486,0.103-0.913,0.126-1.304-0.181c-0.882-4.389-1.542-8.823-1.975-13.279c0.726,0.208,1.485,0.435,2.119,0.846
					c3.507,2.274,6.81,4.864,9.854,7.728C298.858,398.039,299.141,398.318,298.922,398.419z"/>
				<path style="fill:#A1B0BA;" d="M294.883,408.098c-3.829,0.156-12.698,0.076-14.967,0.086c-2.808,0.012-5.617,0.044-8.425,0.036
					c-1.683-0.005-4.574,0.013-6.536-0.02c-0.096,0.311-0.069,0.826-0.075,0.826c0,0.03-0.001,1.168-0.001,3.085
					c1.9,0.044,5.038,0.023,6.808,0.028c2.743,0.008,5.487-0.024,8.23-0.036c2.309-0.01,11.62,0.077,15.066-0.107
					c-0.007-0.723-0.014-1.446-0.021-2.169C294.959,409.625,294.931,408.523,294.883,408.098z"/>
				<path style="fill:#A1B0BA;" d="M294.883,415.884c-3.829,0.156-12.698,0.077-14.967,0.086c-2.808,0.012-5.617,0.044-8.425,0.036
					c-1.683-0.005-4.574,0.013-6.536-0.02c-0.096,0.311-0.069,0.826-0.075,0.826c0,0.03-0.001,1.168-0.001,3.085
					c1.9,0.044,5.038,0.023,6.808,0.028c2.743,0.008,5.487-0.024,8.23-0.036c2.309-0.01,11.62,0.077,15.066-0.107
					c-0.007-0.723-0.014-1.446-0.021-2.169C294.959,417.411,294.931,416.309,294.883,415.884z"/>
				<path style="fill:#A1B0BA;" d="M294.883,423.67c-3.829,0.156-12.698,0.076-14.967,0.086c-2.808,0.012-5.617,0.044-8.425,0.036
					c-1.683-0.005-4.574,0.013-6.536-0.02c-0.096,0.311-0.069,0.826-0.075,0.826c0,0.031-0.001,1.168-0.001,3.085
					c1.9,0.044,5.038,0.023,6.808,0.028c2.743,0.008,5.487-0.024,8.23-0.036c2.309-0.01,11.62,0.077,15.066-0.107
					c-0.007-0.723-0.014-1.446-0.021-2.169C294.959,425.198,294.931,424.096,294.883,423.67z"/>
				<path style="fill:#A1B0BA;" d="M286.383,431.457c-2.745,0.156-9.101,0.076-10.727,0.086c-2.013,0.012-4.025,0.044-6.038,0.036
					c-1.206-0.005-3.279,0.013-4.684-0.02c-0.069,0.311-0.05,0.826-0.054,0.826c0,0.03,0,1.168-0.001,3.085
					c1.362,0.044,3.611,0.023,4.879,0.028c1.966,0.008,3.932-0.024,5.898-0.036c1.655-0.01,8.328,0.077,10.799-0.107
					c-0.005-0.723-0.01-1.446-0.015-2.169C286.437,432.984,286.418,431.882,286.383,431.457z"/>
			</g>
			<path style="fill:#4C5980;" d="M385.747,426.228l-0.005-2.762c-0.004-5.764-0.056-11.517-0.156-17.1
				c-0.068-3.828-0.145-6.948-0.241-9.819c-0.006-0.155-0.069-0.291-0.177-0.387c-0.437-2.311-3.57-2.673-4.609-2.793
				c-3.304-0.383-6.356-0.643-9.332-0.797c-6.798-0.352-12.965-0.165-18.848,0.57l-0.222,0.028
				c-2.137,0.265-4.559,0.565-5.892,2.699c-0.157,0.155-0.28,0.512-0.277,0.687c0.064,3.687,0.045,7.44,0.027,11.069
				c-0.01,1.945-0.02,3.888-0.018,5.83l0.016,17.074l-0.001,0.889l0.001,0.276c-0.117,1.26-0.141,2.544-0.163,3.786
				c-0.015,0.814-0.025,1.628-0.022,2.441c0.004,1.136,0.036,2.521,0.162,2.673c1.475,1.768,4.05,2.318,5.859,2.577
				c2.185,0.315,4.434,0.39,6.608,0.463l1.099,0.038c1.811,0.066,3.527,0.099,5.168,0.099c4.132,0,7.782-0.211,11.23-0.643
				c3.101-0.388,6.117-0.988,8.964-1.783c0.182-0.051,0.316-0.175,0.378-0.343c0.152-0.083,0.249-0.239,0.258-0.43
				C385.771,435.798,385.759,430.934,385.747,426.228z M352.439,394.233c2.613-0.328,5.365-0.551,8.181-0.661
				c4.97-0.197,10.239-0.05,16.107,0.442l0.339,0.029c1.351,0.113,2.748,0.23,4.11,0.408c0.911,0.118,2.462,0.486,3.028,1.632
				c-6.059,1.726-12.308,2.6-18.583,2.6c-0.012,0-0.026,0-0.039,0c-3.246-0.002-6.478-0.233-9.604-0.688
				c-1.556-0.226-3.142-0.515-4.715-0.86c-0.54-0.119-1.08-0.259-1.621-0.4c-0.729-0.19-1.479-0.385-2.23-0.525
				C348.651,394.819,350.645,394.459,352.439,394.233z M347.138,397.254c0.842,0.311,1.729,0.52,2.591,0.723l0.376,0.089
				c1.139,0.271,2.349,0.518,3.698,0.755c2.44,0.428,4.935,0.73,7.416,0.898c4.968,0.339,10.052,0.106,15.11-0.688
				c2.619-0.411,5.296-0.998,7.963-1.749c0.089,4.682,0.159,9.056,0.215,13.353c-0.827,0.125-1.657,0.297-2.461,0.464
				c-0.706,0.147-1.437,0.297-2.156,0.415c-1.551,0.255-3.136,0.467-4.711,0.628c-3.087,0.317-6.247,0.459-9.367,0.429
				c-3.108-0.031-6.256-0.248-9.356-0.646c-1.933-0.247-3.878-0.623-5.759-0.987c-1.151-0.223-2.338-0.452-3.551-0.652l0.001-1.551
				c0.001-0.85,0.002-1.701,0-2.551c-0.002-0.93-0.007-1.859-0.012-2.788C347.124,401.383,347.112,399.303,347.138,397.254z
				 M384.607,427.616c0.001,1.041,0.002,2.083-0.005,3.126c-0.007,1.066-0.019,2.133-0.032,3.199
				c-0.025,2.048-0.051,4.164-0.026,6.25c-10.836,3.014-22.169,2.671-30.838,2.033c-1.031-0.076-2.382-0.211-3.692-0.578
				c-1.131-0.316-2.097-0.864-2.987-1.414c0.003-0.02,0.005-0.039,0.006-0.06c0.176-4.096,0.151-8.272,0.127-12.311l-0.011-2.19
				c1.786,1.137,4.062,1.596,6.253,1.965c2.098,0.355,4.35,0.586,7.303,0.749c5.101,0.281,10.373,0.115,15.661-0.494
				c2.67-0.307,5.439-0.76,8.24-1.349V427.616z M365.367,427.315c-3.418-0.059-6.523-0.255-9.492-0.598
				c-1.801-0.209-3.261-0.465-4.594-0.809c-0.858-0.221-1.704-0.539-2.521-0.846c-0.525-0.197-1.067-0.4-1.614-0.58l-0.004-1.225
				c0.005-3.982,0.004-7.964,0.004-11.946c2.964,0.961,6.164,1.432,8.947,1.8c3.195,0.422,6.463,0.657,9.713,0.696
				c3.218,0.039,6.493-0.126,9.725-0.492c1.543-0.174,3.095-0.394,4.614-0.654l0.641-0.108c1.237-0.208,2.514-0.422,3.736-0.774
				c0.056,4.652,0.085,9.222,0.086,13.592C377.91,426.767,371.435,427.424,365.367,427.315z"/>
		</g>
	</g>
	<g>
		<g>
			<path style="fill:#4C5980;" d="M433.288,386.449c-0.08-9.128-0.265-32.251-0.632-41.372c-0.024-0.602-0.956-0.608-0.941,0
				c0.229,9.122,0.421,32.248,0.486,41.372c0.065,9.089-0.092,18.178-0.05,27.267c-0.826-0.21-1.757-0.059-2.606-0.051
				c-1.165,0.011-2.33,0.023-3.495,0.034c-2.413,0.023-4.826,0.047-7.239,0.07c-2.413,0.023-4.826,0.041-7.239,0.073
				c-2.34,0.031-4.778-0.126-7.092,0.236c-0.367,0.057-0.374,0.698,0,0.748c2.319,0.314,4.755,0.11,7.092,0.093
				c2.413-0.018,4.826-0.05,7.239-0.076c2.413-0.026,4.826-0.052,7.239-0.078c1.165-0.013,2.33-0.025,3.495-0.038
				c1.038-0.011,2.213,0.202,3.144-0.308c0.071-0.039,0.108-0.109,0.126-0.184c0.149-0.064,0.269-0.197,0.277-0.409
				C433.44,404.711,433.368,395.569,433.288,386.449z"/>
			<path style="fill:#4C5980;" d="M433.588,342.847c-1.059-0.635-2.604-0.42-3.329,0.625c-0.396,0.57-0.488,1.324-0.306,1.987
				c0.051,0.185,0.123,0.358,0.209,0.521c0.126,0.306,0.322,0.582,0.584,0.805c1.055,0.896,2.794,0.645,3.519-0.538
				C434.936,345.155,434.743,343.54,433.588,342.847z"/>
			<path style="fill:#4C5980;" d="M405.63,412.374c-1.059-0.635-2.604-0.42-3.329,0.625c-0.395,0.57-0.488,1.324-0.305,1.987
				c0.051,0.185,0.123,0.358,0.209,0.521c0.126,0.306,0.322,0.582,0.584,0.805c1.055,0.896,2.795,0.645,3.519-0.538
				C406.978,414.682,406.785,413.067,405.63,412.374z"/>
		</g>
		<path style="fill:#4C5980;" d="M243.819,68.328c-1.059-0.635-2.604-0.42-3.329,0.625c-0.251,0.361-0.366,0.797-0.381,1.236
			c-0.748-0.004-1.498,0.011-2.234-0.002c-1.473-0.026-2.947-0.052-4.42-0.078c-1.473-0.026-2.947-0.064-4.421-0.069
			c-1.217-0.004-4.385,0.142-4.412,0.461c-0.382,4.482-0.161,9.092-0.223,13.591c-0.061,4.4-0.251,8.831-0.079,13.229
			c-7.379-0.292-14.762-0.449-22.146-0.451c-3.669-0.001-7.34,0.022-11.008,0.102c-3.053,0.066-6.154,0.05-9.214,0.27
			c-0.072-0.695-0.406-1.352-1.039-1.731c-1.059-0.635-2.604-0.42-3.329,0.625c-0.396,0.57-0.488,1.324-0.305,1.987
			c0.051,0.185,0.123,0.358,0.209,0.521c0.127,0.306,0.322,0.582,0.584,0.805c1.055,0.896,2.795,0.645,3.519-0.538
			c0.156-0.254,0.26-0.538,0.321-0.831c2.998,0.012,6.012-0.169,9.003-0.216c3.753-0.058,7.505-0.102,11.259-0.101
			c7.423,0.003,14.845,0.139,22.263,0.408c0.209,0.008,0.336-0.112,0.385-0.264c0.063-0.049,0.111-0.121,0.119-0.226
			c0.322-4.51,0.243-9.07,0.305-13.591c0.06-4.343,0.376-8.782,0.165-13.125c1.149,0.264,2.485,0.119,3.623,0.143
			c1.473,0.031,2.947,0.028,4.421,0.038c1.473,0.01,2.947,0.019,4.42,0.029c0.798,0.005,1.613,0.041,2.425,0.052
			c0.032,0.077,0.055,0.161,0.094,0.234c0.127,0.306,0.322,0.582,0.584,0.805c1.055,0.896,2.795,0.645,3.519-0.538
			C245.167,70.636,244.974,69.021,243.819,68.328z"/>
		<path style="fill:#4C5980;" d="M243.902,412.374c-1.059-0.635-2.604-0.42-3.329,0.625c-0.224,0.323-0.34,0.706-0.375,1.097
			c-3.589-0.031-18.178-0.058-21.768-0.083c-2.157-0.015-12.314-0.03-14.471-0.045c-1.308-0.009-2.698-0.105-4.055-0.062
			c-0.112-0.62-0.447-1.189-1.019-1.532c-1.059-0.635-2.604-0.42-3.329,0.625c-0.396,0.57-0.488,1.324-0.306,1.987
			c0.051,0.185,0.123,0.358,0.21,0.521c0.126,0.306,0.322,0.582,0.584,0.805c1.055,0.897,2.795,0.645,3.519-0.538
			c0.178-0.29,0.29-0.617,0.344-0.954c1.273,0.052,2.574-0.018,3.802-0.011c2.24,0.013,12.48,0.026,14.72,0.038
			c3.608,0.021,18.215,0.04,21.823,0.054c0.007,0.028,0.006,0.057,0.014,0.084c0.051,0.185,0.123,0.358,0.209,0.521
			c0.127,0.306,0.322,0.582,0.584,0.805c1.055,0.897,2.795,0.645,3.519-0.538C245.251,414.682,245.058,413.067,243.902,412.374z"/>
		<path style="fill:#4C5980;" d="M115.566,150.66c-0.31-0.186-0.662-0.29-1.022-0.331c0.018-0.863-0.003-1.732-0.005-2.573
			l-0.016-4.924c-0.009-2.636-0.018-5.272-0.026-7.909c0.699-0.073,1.366-0.429,1.749-1.054c0.67-1.093,0.477-2.708-0.679-3.4
			c-1.059-0.635-2.604-0.42-3.329,0.625c-0.395,0.57-0.488,1.324-0.305,1.987c0.051,0.185,0.123,0.358,0.21,0.521
			c0.126,0.306,0.322,0.582,0.584,0.805c0.297,0.253,0.65,0.404,1.018,0.479c0.009,2.648,0.018,5.297,0.026,7.945l0.016,4.924
			c0.003,0.843-0.012,1.717,0.012,2.585c-0.617,0.101-1.194,0.416-1.561,0.945c-0.395,0.57-0.488,1.324-0.305,1.987
			c0.051,0.185,0.123,0.358,0.21,0.521c0.126,0.306,0.322,0.582,0.584,0.805c1.054,0.896,2.795,0.645,3.519-0.538
			C116.915,152.967,116.722,151.352,115.566,150.66z"/>
	</g>
	<g>
		<g>
			<path style="fill:#FFBB39;" d="M376.155,60.33c-0.092-4.791-0.18-9.582-0.28-14.373c-0.011-0.509-0.169-3.704-0.447-4.051
				c-0.261-0.771-53.571-0.053-64.042-0.158c-10.281-0.103-61.509,0.203-61.801,0.21c-1.368,0.035-1.122,2.274-1.154,2.273
				c0.002,0.338-0.073,64.082-0.028,96.062c0.308,0.419,22.093,0.309,32.201,0.325c10.515,0.017,21.03-0.051,31.545-0.077
				c10.324-0.026,57.158,0.234,62.252-0.479c0.151-0.021,0.262-0.087,0.399-0.124c0.438-0.065,0.842-0.22,1.158-0.453
				c0.16-15.01,0.22-30.034,0.053-44.902C375.88,83.105,375.999,71.708,376.155,60.33z"/>
			<path style="fill:#4C5980;" d="M375.874,45.957c-0.011-0.509-0.169-3.704-0.447-4.051c-0.172-0.51-23.535-0.369-42.374-0.245
				c-0.008,15.114-0.035,66.595-0.031,98.905c17.098,0.013,38.065-0.039,41.378-0.503c0.151-0.021,0.262-0.087,0.399-0.124
				c0.438-0.065,0.842-0.22,1.158-0.453c0.16-15.01,0.22-30.034,0.053-44.902c-0.129-11.479-0.01-22.876,0.145-34.254
				C376.063,55.539,375.975,50.748,375.874,45.957z"/>
			<path style="fill:#B345B5;" d="M277.659,53.274c11.502,0.006,23.003-0.002,34.504-0.003c9.84-0.001,49.999,0.039,63.854-0.023
				c-0.047-2.431-0.091-4.861-0.142-7.292c-0.011-0.509-0.169-3.704-0.447-4.051c-0.261-0.771-53.571-0.053-64.042-0.158
				c-10.281-0.103-61.509,0.203-61.801,0.21c-1.368,0.035-1.122,2.273-1.154,2.273c0.001,0.077-0.003,3.468-0.008,9.025
				C256.294,53.275,270.022,53.271,277.659,53.274z"/>
			<path style="fill:#FFD075;" d="M367.75,48.943c-0.455-0.837-0.546-1.716-0.175-2.593c0.089-0.209,0.337-0.593,0.495-0.756
				c0.118-0.123,0.272-0.289,0.413-0.385c0.316-0.216,0.56-0.352,0.928-0.457c0.198-0.057,0.448-0.135,0.654-0.148
				c0.23-0.015,0.445,0.002,0.674,0.027c0.651,0.073,1.245,0.418,1.697,0.893c0.808,0.847,1.04,2.105,0.484,3.261
				c-0.828,1.722-2.773,2.129-4.211,1.191C368.312,49.716,367.977,49.36,367.75,48.943z"/>
			<path style="fill:#FFFFFF;" d="M359.078,48.943c-0.455-0.837-0.547-1.716-0.175-2.593c0.089-0.209,0.337-0.593,0.495-0.756
				c0.118-0.123,0.272-0.289,0.413-0.385c0.316-0.216,0.559-0.352,0.928-0.457c0.198-0.057,0.448-0.135,0.654-0.148
				c0.23-0.015,0.445,0.002,0.674,0.027c0.651,0.073,1.245,0.418,1.697,0.893c0.807,0.847,1.039,2.105,0.484,3.261
				c-0.828,1.722-2.773,2.129-4.211,1.191C359.64,49.716,359.305,49.36,359.078,48.943z"/>
			<path style="fill:#FFFFFF;" d="M350.406,48.943c-0.455-0.837-0.546-1.716-0.175-2.593c0.089-0.209,0.337-0.593,0.495-0.756
				c0.118-0.123,0.272-0.289,0.413-0.385c0.316-0.216,0.559-0.352,0.927-0.457c0.198-0.057,0.449-0.135,0.654-0.148
				c0.23-0.015,0.445,0.002,0.674,0.027c0.651,0.073,1.245,0.418,1.697,0.893c0.807,0.847,1.039,2.105,0.484,3.261
				c-0.827,1.722-2.773,2.129-4.211,1.191C350.967,49.716,350.633,49.36,350.406,48.943z"/>
		</g>
		<g>
			<path style="fill:#B345B5;" d="M281.743,123.496c-1.588-0.041-3.171-0.086-4.759-0.056c0.168-4.34,0.04-8.703,0.008-13.046
				c-0.028-3.758-0.056-7.517-0.084-11.275c0.092,0.008,0.187,0.006,0.279,0.009c0.225,0.007,0.45,0.015,0.675,0.022
				c0.434,0.014,0.868,0.03,1.301,0.042c0.434,0.012,0.868,0.011,1.302,0.015c0.433,0.004,0.958,0.092,1.357-0.098
				c0.264-0.126,0.256-0.599,0-0.727c-0.392-0.197-0.928-0.118-1.357-0.122c-0.434-0.004-0.868-0.015-1.302-0.011
				c-0.434,0.004-0.868,0.01-1.301,0.016c-0.225,0.003-0.45,0.006-0.675,0.008c-0.093,0.001-0.192-0.004-0.285,0.003
				c-0.002-0.271-0.004-0.542-0.006-0.813c-0.064-8.681-0.128-17.362-0.19-26.043c0.8,0.029,1.595,0.047,2.397,0.032
				c0.446-0.008,0.891-0.016,1.337-0.025c0.443-0.008,0.973,0.069,1.383-0.122c0.348-0.162,0.184-0.655-0.095-0.77
				c-0.223-0.091-0.487-0.046-0.723-0.039c-0.206,0.006-0.411,0.012-0.617,0.018c-0.446,0.013-0.891,0.026-1.337,0.039
				c-0.896,0.026-1.781,0.085-2.674,0.166c-0.089,0.008-0.156,0.047-0.207,0.099c-0.114,0.054-0.202,0.163-0.2,0.335
				c0.078,8.769,0.154,17.539,0.229,26.308c0.002,0.274,0.005,0.548,0.007,0.822c-1.373-0.019-2.745-0.042-4.118-0.034
				c-0.715,0.004-1.43,0.009-2.145,0.013c-0.671,0.004-1.387-0.035-2.027,0.192c-0.171,0.061-0.168,0.303,0,0.365
				c0.638,0.237,1.355,0.206,2.027,0.219c0.715,0.014,1.43,0.028,2.145,0.043c1.375,0.027,2.75,0.023,4.125,0.023
				c0.032,3.763,0.065,7.525,0.097,11.287c0.038,4.454-0.029,8.931,0.23,13.377c0.005,0.084,0.044,0.138,0.093,0.175
				c0.047,0.11,0.141,0.2,0.29,0.209c1.607,0.105,3.212,0.13,4.821,0.162C282.242,124.327,282.241,123.509,281.743,123.496z"/>
			<path style="fill:#B345B5;" d="M310.1,123.496c-1.588-0.041-3.171-0.086-4.759-0.056c0.168-4.34,0.04-8.703,0.007-13.046
				c-0.028-3.758-0.056-7.517-0.084-11.275c0.092,0.008,0.187,0.006,0.279,0.009c0.225,0.007,0.45,0.015,0.675,0.022
				c0.434,0.014,0.868,0.03,1.302,0.042c0.434,0.012,0.868,0.011,1.302,0.015c0.432,0.004,0.958,0.092,1.357-0.098
				c0.264-0.126,0.256-0.599,0-0.727c-0.392-0.197-0.928-0.118-1.357-0.122c-0.434-0.004-0.868-0.015-1.302-0.011
				c-0.434,0.004-0.868,0.01-1.302,0.016c-0.225,0.003-0.45,0.006-0.675,0.008c-0.093,0.001-0.192-0.004-0.285,0.003
				c-0.002-0.271-0.004-0.542-0.006-0.813c-0.064-8.681-0.128-17.362-0.19-26.043c0.8,0.029,1.595,0.047,2.397,0.032
				c0.446-0.008,0.891-0.016,1.337-0.025c0.443-0.008,0.973,0.069,1.383-0.122c0.348-0.162,0.184-0.655-0.095-0.77
				c-0.223-0.091-0.487-0.046-0.723-0.039c-0.206,0.006-0.411,0.012-0.617,0.018c-0.446,0.013-0.891,0.026-1.337,0.039
				c-0.896,0.026-1.781,0.085-2.674,0.166c-0.089,0.008-0.156,0.047-0.207,0.099c-0.114,0.054-0.202,0.163-0.2,0.335
				c0.078,8.769,0.154,17.539,0.229,26.308c0.002,0.274,0.005,0.548,0.007,0.822c-1.373-0.019-2.745-0.042-4.118-0.034
				c-0.715,0.004-1.43,0.009-2.145,0.013c-0.67,0.004-1.387-0.035-2.027,0.192c-0.171,0.061-0.168,0.303,0,0.365
				c0.638,0.237,1.355,0.206,2.027,0.219c0.715,0.014,1.43,0.028,2.145,0.043c1.375,0.027,2.75,0.023,4.126,0.023
				c0.032,3.763,0.064,7.525,0.097,11.287c0.038,4.454-0.029,8.931,0.23,13.377c0.005,0.084,0.044,0.138,0.093,0.175
				c0.047,0.11,0.141,0.2,0.29,0.209c1.607,0.105,3.212,0.13,4.821,0.162C310.599,124.327,310.598,123.509,310.1,123.496z"/>
			<path style="fill:#FFFFFF;" d="M312.486,62.215c-0.809,0.014-1.617,0.027-2.426,0.042c-0.086,0.002-0.625,0.026-0.684,0.068
				c-0.13,0.039-0.009,8.074-0.026,9.652c-0.017,1.55,0.035,9.27,0.036,9.314c0.006,0.206,0.384,0.169,0.384,0.174
				c0.057,0,10.818,0.012,16.217,0.005c0.071-0.046,0.052-3.33,0.055-4.853c0.003-1.585-0.009-3.17-0.013-4.754
				c-0.004-1.556,0.039-8.615-0.081-9.382c-0.004-0.023-0.015-0.039-0.021-0.06c-0.011-0.066-0.037-0.127-0.076-0.175
				c-2.534-0.024-5.07-0.033-7.58-0.008C316.33,62.257,314.406,62.239,312.486,62.215z"/>
			<path style="fill:#FFFFFF;" d="M312.486,87.596c-0.809,0.014-1.617,0.027-2.426,0.042c-0.086,0.002-0.625,0.026-0.684,0.068
				c-0.13,0.039-0.009,8.074-0.026,9.652c-0.017,1.55,0.035,9.27,0.036,9.314c0.006,0.206,0.384,0.169,0.384,0.174
				c0.057,0,10.818,0.012,16.217,0.005c0.071-0.046,0.052-3.33,0.055-4.853c0.003-1.585-0.009-3.17-0.013-4.754
				c-0.004-1.556,0.039-8.615-0.081-9.382c-0.004-0.023-0.015-0.039-0.021-0.06c-0.011-0.066-0.037-0.127-0.076-0.174
				c-2.534-0.024-5.07-0.034-7.58-0.008C316.33,87.638,314.406,87.62,312.486,87.596z"/>
			<path style="fill:#FFFFFF;" d="M312.486,112.977c-0.809,0.014-1.617,0.027-2.426,0.042c-0.086,0.002-0.625,0.025-0.684,0.067
				c-0.13,0.039-0.009,8.074-0.026,9.652c-0.017,1.55,0.035,9.27,0.036,9.314c0.006,0.206,0.384,0.169,0.384,0.174
				c0.057,0,10.818,0.011,16.217,0.005c0.071-0.046,0.052-3.33,0.055-4.853c0.003-1.585-0.009-3.17-0.013-4.754
				c-0.004-1.556,0.039-8.615-0.081-9.382c-0.004-0.023-0.015-0.04-0.021-0.06c-0.011-0.066-0.037-0.127-0.076-0.175
				c-2.534-0.024-5.07-0.034-7.58-0.008C316.33,113.019,314.406,113.001,312.486,112.977z"/>
			<path style="fill:#FFFFFF;" d="M284.129,62.215c-0.809,0.014-1.618,0.027-2.426,0.042c-0.086,0.002-0.625,0.026-0.684,0.068
				c-0.13,0.039-0.009,8.074-0.026,9.652c-0.017,1.55,0.035,9.27,0.036,9.314c0.006,0.206,0.384,0.169,0.384,0.174
				c0.057,0,10.818,0.012,16.217,0.005c0.071-0.046,0.052-3.33,0.055-4.853c0.003-1.585-0.009-3.17-0.013-4.754
				c-0.004-1.556,0.039-8.615-0.081-9.382c-0.004-0.023-0.015-0.039-0.021-0.06c-0.011-0.066-0.037-0.127-0.076-0.175
				c-2.534-0.024-5.07-0.033-7.58-0.008C287.973,62.257,286.049,62.239,284.129,62.215z"/>
			<path style="fill:#FFFFFF;" d="M284.129,87.596c-0.809,0.014-1.618,0.027-2.426,0.042c-0.086,0.002-0.625,0.026-0.684,0.068
				c-0.13,0.039-0.009,8.074-0.026,9.652c-0.017,1.55,0.035,9.27,0.036,9.314c0.006,0.206,0.384,0.169,0.384,0.174
				c0.057,0,10.818,0.012,16.217,0.005c0.071-0.046,0.052-3.33,0.055-4.853c0.003-1.585-0.009-3.17-0.013-4.754
				c-0.004-1.556,0.039-8.615-0.081-9.382c-0.004-0.023-0.015-0.039-0.021-0.06c-0.011-0.066-0.037-0.127-0.076-0.174
				c-2.534-0.024-5.07-0.034-7.58-0.008C287.973,87.638,286.049,87.62,284.129,87.596z"/>
			<path style="fill:#FFFFFF;" d="M284.129,112.977c-0.809,0.014-1.618,0.027-2.426,0.042c-0.086,0.002-0.625,0.025-0.684,0.067
				c-0.13,0.039-0.009,8.074-0.026,9.652c-0.017,1.55,0.035,9.27,0.036,9.314c0.006,0.206,0.384,0.169,0.384,0.174
				c0.057,0,10.818,0.011,16.217,0.005c0.071-0.046,0.052-3.33,0.055-4.853c0.003-1.585-0.009-3.17-0.013-4.754
				c-0.004-1.556,0.039-8.615-0.081-9.382c-0.004-0.023-0.015-0.04-0.021-0.06c-0.011-0.066-0.037-0.127-0.076-0.175
				c-2.534-0.024-5.07-0.034-7.58-0.008C287.973,113.019,286.049,113.001,284.129,112.977z"/>
			<path style="fill:#FFFFFF;" d="M257.247,86.379c-0.809,0.017-1.618,0.034-2.426,0.052c-0.086,0.002-0.625,0.031-0.684,0.083
				c-0.13,0.049-0.009,9.969-0.027,11.918c-0.017,1.913,0.034,11.447,0.035,11.501c0.006,0.255,0.384,0.209,0.384,0.215
				c0.057,0,10.818,0.014,16.217,0.005c0.071-0.057,0.052-4.111,0.055-5.993c0.003-1.957-0.009-3.913-0.013-5.87
				c-0.004-1.921,0.039-10.637-0.081-11.585c-0.004-0.028-0.015-0.049-0.021-0.074c-0.011-0.081-0.037-0.157-0.076-0.216
				c-2.534-0.03-5.07-0.041-7.58-0.01C261.091,86.43,259.168,86.408,257.247,86.379z"/>
		</g>
		<g>
			<path style="fill:#D66EC0;" d="M357.167,57.153c-2.589,0.138-8.584,0.068-10.118,0.076c-1.898,0.011-3.797,0.039-5.696,0.032
				c-1.138-0.004-3.092,0.012-4.419-0.017c-0.065,0.275-0.047,0.73-0.05,0.73c0,0.027,0,1.032-0.001,2.727
				c1.284,0.039,3.406,0.02,4.602,0.025c1.855,0.007,3.709-0.021,5.564-0.032c1.561-0.009,7.855,0.068,10.185-0.094
				c-0.005-0.639-0.009-1.278-0.014-1.918C357.218,58.504,357.2,57.53,357.167,57.153z"/>
			<path style="fill:#7991D1;" d="M356.881,65.308c-1.152,0.134-3.821,0.066-4.503,0.074c-0.845,0.01-1.69,0.038-2.535,0.031
				c-0.506-0.004-1.376,0.011-1.967-0.017c-0.029,0.268-0.021,0.71-0.022,0.71c0,0.026,0,1.004,0,2.653
				c0.572,0.038,1.516,0.02,2.048,0.024c0.826,0.007,1.651-0.021,2.476-0.031c0.695-0.009,3.496,0.066,4.533-0.092
				c-0.002-0.622-0.004-1.244-0.007-1.866C356.904,66.622,356.895,65.674,356.881,65.308z"/>
			<path style="fill:#FFFFFF;" d="M371.297,70.938c-2.992,0.134-9.922,0.066-11.695,0.074c-2.194,0.01-4.389,0.037-6.583,0.031
				c-1.315-0.004-3.574,0.011-5.107-0.017c-0.075,0.268-0.054,0.71-0.058,0.71c0,0.026,0,1.004-0.001,2.653
				c1.484,0.038,3.937,0.02,5.319,0.024c2.143,0.007,4.287-0.021,6.43-0.031c1.804-0.009,9.079,0.066,11.772-0.092
				c-0.006-0.622-0.011-1.244-0.017-1.866C371.356,72.252,371.335,71.304,371.297,70.938z"/>
			<path style="fill:#FFFFFF;" d="M371.297,76.277c-2.992,0.134-9.922,0.066-11.695,0.074c-2.194,0.01-4.389,0.037-6.583,0.031
				c-1.315-0.004-3.574,0.011-5.107-0.017c-0.075,0.268-0.054,0.71-0.058,0.71c0,0.026,0,1.004-0.001,2.653
				c1.484,0.038,3.937,0.02,5.319,0.024c2.143,0.007,4.287-0.021,6.43-0.031c1.804-0.009,9.079,0.066,11.772-0.092
				c-0.006-0.622-0.011-1.244-0.017-1.866C371.356,77.591,371.335,76.643,371.297,76.277z"/>
			<path style="fill:#FFFFFF;" d="M371.297,81.617c-2.992,0.134-9.922,0.066-11.695,0.074c-2.194,0.01-4.389,0.038-6.583,0.031
				c-1.315-0.004-3.574,0.012-5.107-0.017c-0.075,0.268-0.054,0.71-0.058,0.71c0,0.026,0,1.004-0.001,2.653
				c1.484,0.038,3.937,0.02,5.319,0.024c2.143,0.007,4.287-0.021,6.43-0.031c1.804-0.009,9.079,0.066,11.772-0.092
				c-0.006-0.622-0.011-1.244-0.017-1.866C371.356,82.93,371.335,81.982,371.297,81.617z"/>
			<path style="fill:#7991D1;" d="M369.398,65.308c-1.35,0.134-4.476,0.066-5.276,0.074c-0.99,0.01-1.98,0.038-2.97,0.031
				c-0.593-0.004-1.612,0.011-2.304-0.017c-0.034,0.268-0.024,0.71-0.026,0.71c0,0.026,0,1.004-0.001,2.653
				c0.669,0.038,1.776,0.02,2.4,0.024c0.967,0.007,1.934-0.021,2.901-0.031c0.814-0.009,4.096,0.066,5.311-0.092
				c-0.003-0.622-0.005-1.244-0.008-1.866C369.425,66.622,369.415,65.674,369.398,65.308z"/>
			<path style="fill:#D66EC0;" d="M357.167,91.065c-2.589,0.138-8.584,0.068-10.118,0.076c-1.898,0.01-3.797,0.039-5.696,0.032
				c-1.138-0.004-3.092,0.012-4.419-0.017c-0.065,0.275-0.047,0.73-0.05,0.73c0,0.027,0,1.033-0.001,2.727
				c1.284,0.039,3.406,0.02,4.602,0.025c1.855,0.007,3.709-0.021,5.564-0.031c1.561-0.009,7.855,0.068,10.185-0.095
				c-0.005-0.639-0.009-1.278-0.014-1.918C357.218,92.416,357.2,91.441,357.167,91.065z"/>
			<path style="fill:#7991D1;" d="M356.881,99.219c-1.152,0.134-3.821,0.066-4.503,0.074c-0.845,0.01-1.69,0.037-2.535,0.031
				c-0.506-0.004-1.376,0.011-1.967-0.017c-0.029,0.268-0.021,0.71-0.022,0.71c0,0.026,0,1.004,0,2.653
				c0.572,0.038,1.516,0.02,2.048,0.024c0.826,0.007,1.651-0.021,2.476-0.031c0.695-0.009,3.496,0.066,4.533-0.092
				c-0.002-0.622-0.004-1.244-0.007-1.866C356.904,100.533,356.895,99.585,356.881,99.219z"/>
			<path style="fill:#FFFFFF;" d="M371.297,104.85c-2.992,0.134-9.922,0.066-11.695,0.074c-2.194,0.01-4.389,0.037-6.583,0.031
				c-1.315-0.004-3.574,0.012-5.107-0.017c-0.075,0.268-0.054,0.71-0.058,0.71c0,0.026,0,1.004-0.001,2.653
				c1.484,0.038,3.937,0.02,5.319,0.024c2.143,0.007,4.287-0.021,6.43-0.031c1.804-0.009,9.079,0.066,11.772-0.092
				c-0.006-0.622-0.011-1.244-0.017-1.866C371.356,106.164,371.335,105.216,371.297,104.85z"/>
			<path style="fill:#FFFFFF;" d="M371.297,110.189c-2.992,0.134-9.922,0.066-11.695,0.074c-2.194,0.01-4.389,0.037-6.583,0.031
				c-1.315-0.004-3.574,0.011-5.107-0.017c-0.075,0.268-0.054,0.71-0.058,0.71c0,0.026,0,1.004-0.001,2.653
				c1.484,0.038,3.937,0.02,5.319,0.024c2.143,0.007,4.287-0.021,6.43-0.031c1.804-0.009,9.079,0.066,11.772-0.092
				c-0.006-0.622-0.011-1.244-0.017-1.866C371.356,111.503,371.335,110.555,371.297,110.189z"/>
			<path style="fill:#FFFFFF;" d="M371.297,115.528c-2.992,0.134-9.922,0.066-11.695,0.074c-2.194,0.01-4.389,0.037-6.583,0.031
				c-1.315-0.004-3.574,0.011-5.107-0.017c-0.075,0.268-0.054,0.71-0.058,0.71c0,0.026,0,1.004-0.001,2.653
				c1.484,0.038,3.937,0.02,5.319,0.024c2.143,0.007,4.287-0.021,6.43-0.031c1.804-0.009,9.079,0.066,11.772-0.092
				c-0.006-0.622-0.011-1.244-0.017-1.866C371.356,116.842,371.335,115.894,371.297,115.528z"/>
			<path style="fill:#7991D1;" d="M369.398,99.219c-1.35,0.134-4.476,0.066-5.276,0.074c-0.99,0.01-1.98,0.037-2.97,0.031
				c-0.593-0.004-1.612,0.011-2.304-0.017c-0.034,0.268-0.024,0.71-0.026,0.71c0,0.026,0,1.004-0.001,2.653
				c0.669,0.038,1.776,0.02,2.4,0.024c0.967,0.007,1.934-0.021,2.901-0.031c0.814-0.009,4.096,0.066,5.311-0.092
				c-0.003-0.622-0.005-1.244-0.008-1.866C369.425,100.533,369.415,99.585,369.398,99.219z"/>
			<path style="fill:#D66EC0;" d="M357.167,124.977c-2.589,0.138-8.584,0.067-10.118,0.076c-1.898,0.01-3.797,0.038-5.696,0.032
				c-1.138-0.004-3.092,0.012-4.419-0.017c-0.065,0.275-0.047,0.73-0.05,0.73c0,0.027,0,1.033-0.001,2.727
				c1.284,0.039,3.406,0.02,4.602,0.025c1.855,0.007,3.709-0.021,5.564-0.031c1.561-0.009,7.855,0.068,10.185-0.094
				c-0.005-0.639-0.009-1.278-0.014-1.918C357.218,126.327,357.2,125.353,357.167,124.977z"/>
			<path style="fill:#7991D1;" d="M356.881,133.131c-1.152,0.134-3.821,0.066-4.503,0.074c-0.845,0.01-1.69,0.038-2.535,0.031
				c-0.506-0.004-1.376,0.012-1.967-0.017c-0.029,0.268-0.021,0.71-0.022,0.71c0,0.026,0,1.004,0,2.653
				c0.572,0.038,1.516,0.02,2.048,0.024c0.826,0.007,1.651-0.02,2.476-0.031c0.695-0.009,3.496,0.066,4.533-0.092
				c-0.002-0.622-0.004-1.244-0.007-1.866C356.904,134.445,356.895,133.497,356.881,133.131z"/>
			<path style="fill:#7991D1;" d="M369.398,133.131c-1.35,0.134-4.476,0.066-5.276,0.074c-0.99,0.01-1.98,0.038-2.97,0.031
				c-0.593-0.004-1.612,0.012-2.304-0.017c-0.034,0.268-0.024,0.71-0.026,0.71c0,0.026,0,1.004-0.001,2.653
				c0.669,0.038,1.776,0.02,2.4,0.024c0.967,0.007,1.934-0.02,2.901-0.031c0.814-0.009,4.096,0.066,5.311-0.092
				c-0.003-0.622-0.005-1.244-0.008-1.866C369.425,134.445,369.415,133.497,369.398,133.131z"/>
		</g>
	</g>
</g>
</svg>
