<?xml version="1.0" encoding="utf-8"?>
<!-- Generator: Adobe Illustrator 27.5.0, SVG Export Plug-In . SVG Version: 6.00 Build 0)  -->
<svg version="1.1" xmlns="http://www.w3.org/2000/svg" xmlns:xlink="http://www.w3.org/1999/xlink" x="0px" y="0px"
	 viewBox="0 0 750 500" style="enable-background:new 0 0 750 500;" xml:space="preserve">
<g id="Background_Complete">
	<g>
		<g>
			<g>
				<path style="fill:#EBEBEB;" d="M655.036,382.736c-6.644,0-12.049-5.405-12.049-12.049c0-6.644,5.405-12.049,12.049-12.049
					c6.644,0,12.049,5.405,12.049,12.049C667.085,377.331,661.68,382.736,655.036,382.736z M655.036,365.103
					c-3.079,0-5.584,2.505-5.584,5.584c0,3.079,2.505,5.584,5.584,5.584c3.079,0,5.584-2.505,5.584-5.584
					C660.62,367.608,658.115,365.103,655.036,365.103z"/>
			</g>
		</g>
		<g>
			<g>
				<path style="fill:#EBEBEB;" d="M655.036,440.049c-6.644,0-12.049-5.405-12.049-12.049s5.405-12.049,12.049-12.049
					c6.644,0,12.049,5.405,12.049,12.049S661.68,440.049,655.036,440.049z M655.036,422.416c-3.079,0-5.584,2.505-5.584,5.584
					c0,3.079,2.505,5.584,5.584,5.584c3.079,0,5.584-2.505,5.584-5.584C660.62,424.922,658.115,422.416,655.036,422.416z"/>
			</g>
		</g>
		<g>
			<g>
				<path style="fill:#EBEBEB;" d="M703.852,440.049c-6.644,0-12.049-5.405-12.049-12.049s5.405-12.049,12.049-12.049
					c6.644,0,12.049,5.405,12.049,12.049S710.495,440.049,703.852,440.049z M703.852,422.416c-3.079,0-5.584,2.505-5.584,5.584
					c0,3.079,2.505,5.584,5.584,5.584c3.079,0,5.584-2.505,5.584-5.584C709.435,424.922,706.931,422.416,703.852,422.416z"/>
			</g>
		</g>
		<g>
			<g>
				<rect x="651.455" y="379.659" style="fill:#EBEBEB;" width="6.465" height="40.494"/>
			</g>
		</g>
		<g>
			<g>
				<path style="fill:#EBEBEB;" d="M708.231,421.686h-6.465v-33.648c0-7.785-6.333-14.118-14.119-14.118h-8.418v-6.465h8.418
					c11.35,0,20.584,9.234,20.584,20.584V421.686z"/>
			</g>
		</g>
		<g>
			<g>
				<polygon style="fill:#EBEBEB;" points="683.831,358.798 683.831,381.806 671.285,370.686 				"/>
			</g>
		</g>
	</g>
	<g>
		<g>
			<g>
				<defs>
					<path id="SVGID_1_" d="M256.772,40.517"/>
				</defs>
				<use xlink:href="#SVGID_1_"  style="overflow:visible;fill:#F5F5F5;"/>
				<clipPath id="SVGID_00000060719122669085841980000000288616178000248760_">
					<use xlink:href="#SVGID_1_"  style="overflow:visible;"/>
				</clipPath>
			</g>
		</g>
		<g>
			<g>
				<g>
					<rect x="39.217" y="117.031" style="fill:#F5F5F5;" width="49.901" height="82.801"/>
				</g>
			</g>
			<g>
				<g>
					<rect x="91.037" y="117.031" style="fill:#F5F5F5;" width="53.917" height="82.801"/>
				</g>
			</g>
			<g>
				<g>
					<rect x="91.037" y="205.618" style="fill:#F5F5F5;" width="53.917" height="80.004"/>
				</g>
			</g>
			<g>
				<g>
					<polygon style="fill:#F5F5F5;" points="151.864,115.599 208.644,115.599 208.644,42.147 210.563,42.147 210.563,115.599 
						256.772,115.599 256.772,40.517 151.864,40.517 					"/>
				</g>
			</g>
			<g>
				<g>
					<rect x="210.563" y="117.031" style="fill:#F5F5F5;" width="46.209" height="82.801"/>
				</g>
			</g>
			<g>
				<g>
					<rect x="210.563" y="205.618" style="fill:#F5F5F5;" width="46.209" height="80.004"/>
				</g>
			</g>
			<g>
				<g>
					<rect x="39.217" y="205.618" style="fill:#F5F5F5;" width="49.901" height="80.004"/>
				</g>
			</g>
			<g>
				<g>
					<rect x="151.864" y="205.618" style="fill:#F5F5F5;" width="56.78" height="80.004"/>
				</g>
			</g>
			<g>
				<g>
					<rect x="39.217" y="287.054" style="fill:#F5F5F5;" width="49.901" height="72.093"/>
				</g>
			</g>
			<g>
				<g>
					<rect x="210.563" y="287.054" style="fill:#F5F5F5;" width="46.209" height="72.093"/>
				</g>
			</g>
			<g>
				<g>
					<polygon style="fill:#F5F5F5;" points="89.118,115.599 89.118,42.147 91.037,42.147 91.037,115.599 144.954,115.599 
						144.954,40.517 39.217,40.517 39.217,115.599 					"/>
				</g>
			</g>
			<g>
				<g>
					<rect x="151.864" y="287.054" style="fill:#F5F5F5;" width="56.78" height="72.093"/>
				</g>
			</g>
			<g>
				<g>
					<rect x="91.037" y="287.054" style="fill:#F5F5F5;" width="53.917" height="72.093"/>
				</g>
			</g>
			<g>
				<g>
					<rect x="151.864" y="117.031" style="fill:#F5F5F5;" width="56.78" height="82.801"/>
				</g>
			</g>
		</g>
	</g>
	<g>
		<g>
			<g>
				<defs>
					<path id="SVGID_00000168796133232841966950000008364467907228673174_" d="M630.325,40.517"/>
				</defs>
				<use xlink:href="#SVGID_00000168796133232841966950000008364467907228673174_"  style="overflow:visible;fill:#F5F5F5;"/>
				<clipPath id="SVGID_00000048496017299899044550000011192689639966368171_">
					<use xlink:href="#SVGID_00000168796133232841966950000008364467907228673174_"  style="overflow:visible;"/>
				</clipPath>
			</g>
		</g>
		<g>
			<g>
				<g>
					<rect x="422.426" y="113.635" style="fill:#F5F5F5;" width="47.686" height="79.126"/>
				</g>
			</g>
			<g>
				<g>
					<rect x="471.945" y="113.635" style="fill:#F5F5F5;" width="51.524" height="79.126"/>
				</g>
			</g>
			<g>
				<g>
					<rect x="471.945" y="198.29" style="fill:#F5F5F5;" width="51.524" height="76.453"/>
				</g>
			</g>
			<g>
				<g>
					<polygon style="fill:#F5F5F5;" points="530.073,112.267 584.333,112.267 584.333,42.074 586.167,42.074 586.167,112.267 
						630.325,112.267 630.325,40.517 530.073,40.517 					"/>
				</g>
			</g>
			<g>
				<g>
					<rect x="586.167" y="113.635" style="fill:#F5F5F5;" width="44.158" height="79.126"/>
				</g>
			</g>
			<g>
				<g>
					<rect x="586.167" y="198.29" style="fill:#F5F5F5;" width="44.158" height="76.453"/>
				</g>
			</g>
			<g>
				<g>
					<rect x="422.426" y="198.29" style="fill:#F5F5F5;" width="47.686" height="76.453"/>
				</g>
			</g>
			<g>
				<g>
					<rect x="530.073" y="198.29" style="fill:#F5F5F5;" width="54.26" height="76.453"/>
				</g>
			</g>
			<g>
				<g>
					<polygon style="fill:#F5F5F5;" points="470.112,112.267 470.112,42.074 471.945,42.074 471.945,112.267 523.469,112.267 
						523.469,40.517 422.426,40.517 422.426,112.267 					"/>
				</g>
			</g>
			<g>
				<g>
					<rect x="530.073" y="113.635" style="fill:#F5F5F5;" width="54.26" height="79.126"/>
				</g>
			</g>
		</g>
	</g>
	<g>
		<g>
			<path style="fill:#E0E0E0;" d="M380.073,157.602l-13.551-6.134c-1.867,0.971-3.833,1.769-5.846,2.373
				c-8.539,2.561-17.563,1.643-25.411-2.584c-7.848-4.227-13.58-11.257-16.141-19.796c-2.561-8.538-1.643-17.563,2.584-25.411
				c4.227-7.848,11.257-13.581,19.796-16.141c8.538-2.562,17.563-1.642,25.411,2.584c7.848,4.227,13.581,11.257,16.141,19.795
				c3.195,10.654,0.893,22.124-6.156,30.738L380.073,157.602z M366.485,150.22l12.018,5.44l-2.815-12.927l0.175-0.21
				c6.944-8.348,9.231-19.53,6.118-29.911c-2.475-8.251-8.014-15.045-15.598-19.13c-7.585-4.085-16.306-4.971-24.557-2.497
				c-8.251,2.475-15.045,8.014-19.13,15.598c-4.085,7.585-4.972,16.306-2.497,24.557c2.474,8.251,8.014,15.045,15.598,19.131
				c7.584,4.085,16.305,4.972,24.557,2.497c2.03-0.609,4.011-1.423,5.887-2.418L366.485,150.22z"/>
		</g>
		<g>
			<g>
				
					<ellipse transform="matrix(0.2481 -0.9687 0.9687 0.2481 121.4629 410.7518)" style="fill:#E0E0E0;" cx="325.344" cy="127.128" rx="29.433" ry="29.433"/>
			</g>
			<g>
				<polygon style="fill:#E0E0E0;" points="303.898,143.416 300.896,158.971 314.804,152.274 				"/>
			</g>
		</g>
		<g>
			<circle style="fill:#FFFFFF;" cx="313.13" cy="127.128" r="3.96"/>
		</g>
		<g>
			<path style="fill:#FFFFFF;" d="M327.964,127.128c0,2.187-1.773,3.96-3.96,3.96c-2.187,0-3.96-1.773-3.96-3.96
				s1.773-3.96,3.96-3.96C326.191,123.167,327.964,124.94,327.964,127.128z"/>
		</g>
		<g>
			<circle style="fill:#FFFFFF;" cx="334.878" cy="127.128" r="3.96"/>
		</g>
	</g>
</g>
<g id="Background_Simple" style="display:none;">
	<g style="display:inline;">
		<path style="fill:#F5F5F5;" d="M65.282,107.089l-2.142,4.174c-18.055,35.184-15.988,77.457,6.602,109.476
			c2.904,4.116,6.105,8.024,9.592,11.677c25.107,26.304,64.218,38.576,100.27,31.464c21.203-4.183,42.171-14.601,63.362-10.829
			c27.579,4.91,44.702,31.505,58.526,55.644s31.029,50.709,58.63,55.499c17.286,3,35.154-3.655,49.671-13.68
			c38.434-26.54,56.938-76.069,52.948-122.135c-3.99-46.066-27.897-88.494-59.357-122.253
			c-44.073-47.292-105.521-80.255-170.65-82.733C167.606,20.916,99.92,51.77,65.282,107.089z"/>
	</g>
	<g style="display:inline;">
		
			<ellipse transform="matrix(0.2226 -0.9749 0.9749 0.2226 76.8792 892.584)" style="fill:#F5F5F5;" cx="598.128" cy="398.085" rx="74.698" ry="74.698"/>
	</g>
</g>
<g id="Tables">
	<g>
		<g>
			<path style="fill:#263238;" d="M310.629,459.333c0,0.144-63.234,0.26-141.219,0.26c-78.012,0-141.232-0.116-141.232-0.26
				c0-0.144,63.22-0.26,141.232-0.26C247.395,459.073,310.629,459.189,310.629,459.333z"/>
		</g>
	</g>
	<g>
		<g>
			<path style="fill:#263238;" d="M721.822,304.948c0,0.144-47.684,0.26-106.492,0.26c-58.828,0-106.502-0.117-106.502-0.26
				s47.674-0.26,106.502-0.26C674.138,304.688,721.822,304.804,721.822,304.948z"/>
		</g>
	</g>
</g>
<g id="Speech_Bubble_2">
	<g>
		<g>
			<g>
				<g>
					<g>
						<g>
							<path style="fill:#FFFFFF;" d="M568.209,123.581l-9.684-6.378c-0.522-6.594-2.816-13.13-7.005-18.861
								c-12.049-16.484-35.179-20.078-51.662-8.03c-16.484,12.049-20.079,35.179-8.029,51.662
								c12.049,16.483,35.179,20.078,51.662,8.029c6.883-5.031,11.509-11.997,13.697-19.602l0,0.021L568.209,123.581z"/>
						</g>
					</g>
					<g>
						<g>
							<g>
								<path style="fill:#263238;" d="M568.209,123.581c0,0-0.26,0.149-0.743,0.44c-0.495,0.3-1.204,0.73-2.133,1.294
									c-1.874,1.144-4.627,2.824-8.208,5.01l0.176,0.1l0-0.021c0.002-0.064-0.048-0.117-0.112-0.118
									c-0.053-0.001-0.1,0.035-0.114,0.084c-1.363,4.624-4.056,10.463-9.264,15.681c-1.293,1.298-2.73,2.557-4.323,3.717
									c-1.644,1.082-3.31,2.264-5.216,3.155c-3.738,1.89-8.04,3.259-12.681,3.745c-4.633,0.492-9.595,0.1-14.453-1.362
									c-4.854-1.454-9.595-3.988-13.675-7.562c-8.214-7.06-13.385-18.67-12.349-30.566c0.541-6.037,2.429-11.885,5.638-16.763
									c3.148-4.91,7.382-8.927,12.114-11.781c4.729-2.879,9.989-4.469,15.112-4.99c5.136-0.517,10.161,0.075,14.672,1.482
									c4.52,1.403,8.522,3.616,11.845,6.237c0.41,0.336,0.817,0.669,1.221,0.999c0.41,0.323,0.806,0.656,1.155,1.034
									c0.725,0.727,1.438,1.442,2.139,2.144c1.24,1.548,2.519,2.982,3.5,4.545c4.056,6.19,5.515,12.422,5.906,17.126
									c0.002,0.035,0.022,0.065,0.049,0.083c3.141,2.033,5.56,3.599,7.21,4.667c0.817,0.526,1.441,0.927,1.879,1.208
									C567.979,123.442,568.209,123.581,568.209,123.581s-0.192-0.139-0.598-0.414c-0.425-0.287-1.031-0.696-1.825-1.231
									c-1.648-1.104-4.064-2.723-7.201-4.825l0.049,0.083c-0.349-4.734-1.776-11.027-5.839-17.295
									c-0.982-1.582-2.266-3.036-3.512-4.604c-0.705-0.713-1.422-1.438-2.151-2.175c-0.352-0.383-0.75-0.721-1.163-1.05
									c-0.407-0.335-0.817-0.674-1.23-1.014c-3.349-2.662-7.389-4.914-11.959-6.346c-4.561-1.436-9.646-2.048-14.849-1.535
									c-5.19,0.517-10.523,2.121-15.321,5.032c-4.799,2.885-9.096,6.955-12.292,11.932c-3.256,4.946-5.175,10.875-5.723,16.997
									c-0.109,0.747-0.1,1.499-0.107,2.249l-0.018,2.244l0.19,2.226c0.056,0.741,0.117,1.48,0.279,2.203
									c0.134,0.727,0.268,1.452,0.402,2.176c0.113,0.728,0.382,1.418,0.564,2.126c0.214,0.699,0.38,1.413,0.632,2.095
									c0.27,0.676,0.539,1.35,0.807,2.023c2.219,5.347,5.632,10.047,9.789,13.641c4.14,3.618,8.951,6.178,13.869,7.641
									c4.923,1.472,9.948,1.856,14.635,1.346c4.695-0.505,9.043-1.903,12.815-3.828c1.922-0.908,3.602-2.108,5.257-3.208
									c1.603-1.178,3.049-2.455,4.348-3.773c5.232-5.294,7.908-11.199,9.238-15.863l-0.226-0.034l0,0.021
									c-0.002,0.063,0.048,0.116,0.111,0.118c0.023,0.001,0.046-0.006,0.065-0.018c3.578-2.258,6.33-3.994,8.203-5.176
									c0.905-0.575,1.596-1.014,2.078-1.32C567.99,123.731,568.209,123.581,568.209,123.581z"/>
							</g>
						</g>
					</g>
				</g>
			</g>
		</g>
		<g>
			<g>
				<g>
					<path style="fill:#263238;" d="M514.392,114.101c-2.434,0-4.414-1.98-4.414-4.414c0-2.434,1.98-4.414,4.414-4.414
						c2.434,0,4.414,1.98,4.414,4.414C518.806,112.121,516.826,114.101,514.392,114.101z M514.392,107.641
						c-1.128,0-2.046,0.918-2.046,2.046c0,1.128,0.918,2.046,2.046,2.046c1.128,0,2.046-0.918,2.046-2.046
						C516.437,108.559,515.52,107.641,514.392,107.641z"/>
				</g>
			</g>
			<g>
				<g>
					<path style="fill:#263238;" d="M514.392,135.099c-2.434,0-4.414-1.98-4.414-4.414c0-2.434,1.98-4.414,4.414-4.414
						c2.434,0,4.414,1.98,4.414,4.414C518.806,133.118,516.826,135.099,514.392,135.099z M514.392,128.639
						c-1.128,0-2.046,0.918-2.046,2.046c0,1.128,0.918,2.046,2.046,2.046c1.128,0,2.046-0.918,2.046-2.046
						C516.437,129.557,515.52,128.639,514.392,128.639z"/>
				</g>
			</g>
			<g>
				<g>
					<path style="fill:#263238;" d="M532.276,135.099c-2.434,0-4.414-1.98-4.414-4.414c0-2.434,1.98-4.414,4.414-4.414
						s4.414,1.98,4.414,4.414C536.69,133.118,534.71,135.099,532.276,135.099z M532.276,128.639c-1.128,0-2.046,0.918-2.046,2.046
						c0,1.128,0.918,2.046,2.046,2.046c1.128,0,2.046-0.918,2.046-2.046C534.322,129.557,533.404,128.639,532.276,128.639z"/>
				</g>
			</g>
			<g>
				<g>
					<rect x="513.08" y="112.974" style="fill:#263238;" width="2.369" height="14.835"/>
				</g>
			</g>
			<g>
				<g>
					<path style="fill:#263238;" d="M533.881,128.371h-2.369v-12.327c0-2.852-2.32-5.173-5.173-5.173h-3.084v-2.369h3.084
						c4.158,0,7.541,3.383,7.541,7.541V128.371z"/>
				</g>
			</g>
			<g>
				<g>
					<polygon style="fill:#263238;" points="524.941,105.331 524.941,113.76 520.345,109.687 					"/>
				</g>
			</g>
		</g>
	</g>
</g>
<g id="Speech_Bubble_1">
	<g>
		<g>
			<g>
				<g>
					<g>
						<g>
							<g>
								<path style="fill:#FFFFFF;" d="M180.002,289.567l8.788-6.152c0.311-6.111,2.26-12.215,5.985-17.625
									c10.711-15.559,32.006-19.488,47.565-8.777c15.559,10.711,19.488,32.006,8.777,47.565
									c-10.711,15.558-32.006,19.488-47.565,8.777c-6.497-4.472-10.957-10.793-13.179-17.768l0.001,0.019L180.002,289.567z"/>
							</g>
						</g>
						<g>
							<g>
								<g>
									<path style="fill:#263238;" d="M180.002,289.567c0,0,0.245,0.131,0.698,0.387c0.465,0.264,1.132,0.644,2.006,1.141
										c1.763,1.009,4.353,2.491,7.721,4.418l-0.16,0.098l-0.001-0.019c-0.003-0.059,0.042-0.109,0.101-0.112
										c0.049-0.003,0.093,0.03,0.108,0.075c1.382,4.24,4.025,9.57,8.977,14.259c1.23,1.167,2.592,2.293,4.095,3.324
										c1.549,0.958,3.12,2.007,4.906,2.781c3.506,1.65,7.52,2.803,11.825,3.131c4.297,0.334,8.876-0.158,13.329-1.638
										c4.45-1.472,8.769-3.94,12.448-7.351c7.411-6.744,11.889-17.615,10.62-28.589c-0.658-5.568-2.557-10.927-5.652-15.354
										c-3.039-4.458-7.06-8.062-11.511-10.578c-4.449-2.538-9.354-3.871-14.105-4.219c-4.763-0.343-9.394,0.335-13.529,1.755
										c-4.144,1.415-7.786,3.567-10.79,6.078c-0.37,0.321-0.738,0.64-1.102,0.956c-0.371,0.31-0.728,0.628-1.041,0.986
										c-0.651,0.691-1.292,1.371-1.922,2.039c-1.106,1.464-2.252,2.823-3.117,4.295c-3.589,5.831-4.775,11.632-5.013,15.991
										c-0.001,0.032-0.019,0.061-0.043,0.078c-2.851,1.962-5.047,3.473-6.545,4.504c-0.742,0.507-1.308,0.895-1.706,1.167
										C180.212,289.432,180.002,289.567,180.002,289.567s0.174-0.133,0.542-0.399c0.386-0.276,0.936-0.67,1.656-1.186
										c1.495-1.064,3.687-2.624,6.532-4.65l-0.043,0.078c0.199-4.387,1.353-10.243,4.947-16.146
										c0.867-1.489,2.016-2.867,3.127-4.35c0.633-0.677,1.277-1.367,1.932-2.068c0.316-0.363,0.675-0.687,1.048-1.001
										c0.367-0.321,0.738-0.644,1.111-0.97c3.027-2.549,6.704-4.738,10.892-6.182c4.18-1.447,8.866-2.146,13.692-1.808
										c4.813,0.342,9.787,1.686,14.299,4.253c4.513,2.543,8.594,6.193,11.679,10.712c3.141,4.488,5.07,9.921,5.737,15.569
										c0.121,0.688,0.132,1.384,0.158,2.077l0.076,2.075l-0.118,2.064c-0.032,0.687-0.069,1.372-0.2,2.045
										c-0.105,0.676-0.21,1.35-0.314,2.023c-0.086,0.676-0.316,1.321-0.466,1.981c-0.18,0.652-0.314,1.317-0.53,1.954
										c-0.232,0.632-0.463,1.263-0.694,1.892c-1.912,5.003-4.946,9.439-8.696,12.871c-3.734,3.454-8.115,5.948-12.626,7.429
										c-4.514,1.49-9.151,1.977-13.499,1.627c-4.355-0.344-8.413-1.523-11.95-3.204c-1.802-0.79-3.386-1.855-4.946-2.829
										c-1.514-1.048-2.883-2.191-4.12-3.375c-4.977-4.758-7.606-10.149-8.958-14.428l0.208-0.038l0.001,0.019
										c0.003,0.059-0.041,0.109-0.1,0.112c-0.021,0.001-0.043-0.005-0.06-0.015c-3.368-1.995-5.958-3.528-7.721-4.572
										c-0.852-0.508-1.502-0.896-1.956-1.166C180.209,289.699,180.002,289.567,180.002,289.567z"/>
								</g>
							</g>
						</g>
					</g>
				</g>
			</g>
		</g>
		<g>
			<g>
				<g>
					<g>
						<g>
							<polygon style="fill:#263238;" points="210.863,285.688 214.393,282.158 221.2,288.209 234.563,275.351 237.84,278.88 
								220.696,295.016 							"/>
						</g>
					</g>
				</g>
			</g>
		</g>
	</g>
</g>
<g id="Lines">
	<g>
		<rect x="231.931" y="411.615" style="fill:#263238;" width="399.401" height="1"/>
	</g>
	<g>
		<rect x="336.786" y="204.734" style="fill:#263238;" width="98.85" height="1"/>
	</g>
	<g>
		<rect x="653.729" y="411.615" style="fill:#263238;" width="23.33" height="1"/>
	</g>
	<g>
		<rect x="635.001" y="411.615" style="fill:#263238;" width="12.21" height="1"/>
	</g>
	<g>
		<rect x="313.746" y="221.418" style="fill:#263238;" width="1" height="164.215"/>
	</g>
	<g>
		<path style="fill:#263238;" d="M572.75,375.251h-1v-12h1V375.251z M571.449,351.334c-0.544-3.925-1.811-7.665-3.766-11.117
			l0.871-0.492c2.017,3.561,3.323,7.422,3.885,11.473L571.449,351.334z M560.097,331.256c-3.086-2.505-6.563-4.378-10.337-5.567
			l0.301-0.953c3.893,1.227,7.482,3.159,10.667,5.743L560.097,331.256z M538.064,324.24h-12v-1h12V324.24z M514.064,324.24h-12v-1
			h12V324.24z M490.051,324.23c-4.104-0.103-8.087-0.961-11.84-2.553l0.391-0.92c3.637,1.542,7.497,2.374,11.475,2.473
			L490.051,324.23z M468.138,314.948c-2.926-2.872-5.254-6.218-6.918-9.944l0.914-0.408c1.612,3.612,3.868,6.855,6.705,9.64
			L468.138,314.948z M458.445,293.212c-0.021-0.475-0.03-0.951-0.03-1.431v-10.591h1v10.591c0,0.464,0.01,0.927,0.03,1.388
			L458.445,293.212z M459.415,269.191h-1v-12h1V269.191z M459.415,245.191h-1v-12h1V245.191z"/>
	</g>
</g>
<g id="Button">
	<g>
		<g>
			<path style="fill:#FF725E;" d="M355.266,227.021h-99.829c-13.722,0-24.846-11.124-24.846-24.846v0
				c0-13.722,11.124-24.846,24.846-24.846h99.829c13.722,0,24.846,11.124,24.846,24.846v0
				C380.112,215.898,368.988,227.021,355.266,227.021z"/>
		</g>
		<g>
			<path style="fill:#FFFFFF;" d="M265.225,201.453c0,1.97-1.487,3.196-3.853,3.196h-1.511v2.267h-2.453v-8.672h3.965
				C263.738,198.245,265.225,199.471,265.225,201.453z M262.747,201.453c0-0.805-0.508-1.276-1.523-1.276h-1.363v2.54h1.363
				C262.24,202.717,262.747,202.246,262.747,201.453z"/>
			<path style="fill:#FFFFFF;" d="M266.252,203.051v-4.807h2.453v4.732c0,1.487,0.619,2.081,1.648,2.081
				c1.016,0,1.635-0.595,1.635-2.081v-4.732h2.415v4.807c0,2.589-1.511,4.039-4.076,4.039
				C267.763,207.09,266.252,205.64,266.252,203.051z"/>
			<path style="fill:#FFFFFF;" d="M276.062,198.245h2.453v6.726h4.138v1.946h-6.591V198.245z"/>
			<path style="fill:#FFFFFF;" d="M283.618,198.245h2.453v6.726h4.138v1.946h-6.591V198.245z"/>
			<path style="fill:#FFFFFF;" d="M298.569,204.612h-1.338v2.304h-2.453v-8.672h3.965c2.366,0,3.853,1.226,3.853,3.208
				c0,1.276-0.619,2.217-1.697,2.738l1.871,2.725h-2.626L298.569,204.612z M298.594,200.177h-1.363v2.54h1.363
				c1.016,0,1.524-0.471,1.524-1.264C300.117,200.648,299.61,200.177,298.594,200.177z"/>
			<path style="fill:#FFFFFF;" d="M310.907,205.021v1.895h-6.963v-8.672h6.802v1.895h-4.373v1.461h3.853v1.834h-3.853v1.586H310.907
				z"/>
			<path style="fill:#FFFFFF;" d="M321.894,207.92c-0.582,0.706-1.438,1.09-2.429,1.09c-1.412,0-2.341-0.483-3.791-1.994
				c-2.28-0.384-3.865-2.144-3.865-4.436c0-2.602,2.045-4.509,4.82-4.509c2.775,0,4.819,1.908,4.819,4.509
				c0,1.97-1.176,3.544-2.948,4.188c0.346,0.371,0.644,0.494,1.016,0.494c0.471,0,0.929-0.21,1.313-0.607L321.894,207.92z
				 M316.629,205.058c1.313,0,2.342-0.979,2.342-2.478c0-1.499-1.029-2.478-2.342-2.478c-1.313,0-2.342,0.979-2.342,2.478
				C314.287,204.079,315.316,205.058,316.629,205.058z"/>
			<path style="fill:#FFFFFF;" d="M322.661,203.051v-4.807h2.453v4.732c0,1.487,0.619,2.081,1.647,2.081
				c1.017,0,1.636-0.595,1.636-2.081v-4.732h2.415v4.807c0,2.589-1.511,4.039-4.076,4.039
				C324.172,207.09,322.661,205.64,322.661,203.051z"/>
			<path style="fill:#FFFFFF;" d="M339.433,205.021v1.895h-6.963v-8.672h6.801v1.895h-4.373v1.461h3.853v1.834h-3.853v1.586H339.433
				z"/>
			<path style="fill:#FFFFFF;" d="M340.187,206.136l0.805-1.809c0.768,0.508,1.857,0.855,2.862,0.855
				c1.016,0,1.412-0.285,1.412-0.707c0-1.375-4.931-0.371-4.931-3.593c0-1.549,1.264-2.812,3.841-2.812
				c1.127,0,2.292,0.26,3.147,0.755l-0.756,1.822c-0.83-0.447-1.648-0.669-2.403-0.669c-1.029,0-1.4,0.346-1.4,0.781
				c0,1.325,4.918,0.334,4.918,3.53c0,1.512-1.264,2.801-3.841,2.801C342.417,207.09,341.005,206.706,340.187,206.136z"/>
			<path style="fill:#FFFFFF;" d="M350.53,200.189h-2.664v-1.944h7.769v1.944h-2.652v6.728h-2.453V200.189z"/>
		</g>
	</g>
</g>
<g id="Codes">
	<g>
		<g>
			<g>
				<g>
					<g>
						<g>
							<path style="fill:#455A64;" d="M473.482,437.617h-43.711c-3.021,0-5.469-2.382-5.469-5.319v-58.841
								c0-2.938,2.449-5.319,5.469-5.319h27.721l21.459,21.51v42.65C478.952,435.236,476.503,437.617,473.482,437.617z"/>
						</g>
					</g>
				</g>
				<g style="opacity:0.2;">
					<g>
						<g>
							<path style="fill:#FFFFFF;" d="M457.493,368.138v16.56c0,2.732,2.277,4.947,5.086,4.947l16.372,0.003L457.493,368.138z"/>
						</g>
					</g>
				</g>
				<g style="opacity:0.2;">
					<g>
						<g>
							<path d="M457.716,386.151c0,0-0.215,4.016,4.486,5.337c0.177,0.05,0.357,0.086,0.538,0.118
								c2.138,0.372,16.211,2.806,16.211,2.492c0-0.34,0-4.45,0-4.45h-16.372C462.579,389.648,458.491,389.512,457.716,386.151z"/>
						</g>
					</g>
				</g>
			</g>
			<g style="opacity:0.3;">
				<path d="M474.971,437.617h-46.688c-2.198,0-3.981-1.782-3.981-3.981v-17.919h54.65v17.919
					C478.952,435.835,477.17,437.617,474.971,437.617z"/>
			</g>
			<g>
				<g>
					<g>
						<path style="fill:#FAFAFA;" d="M443.469,422.295v7.345h-1.7v-3.012h-3.337v3.012h-1.7v-7.345h1.7v2.896h3.337v-2.896H443.469z
							"/>
					</g>
				</g>
				<g>
					<g>
						<path style="fill:#FAFAFA;" d="M446.731,423.681h-2.35v-1.385h6.401v1.385h-2.35v5.96h-1.7V423.681z"/>
					</g>
				</g>
				<g>
					<g>
						<path style="fill:#FAFAFA;" d="M458.377,429.64l-0.01-4.407l-2.162,3.631h-0.766l-2.151-3.536v4.313h-1.595v-7.345h1.406
							l2.749,4.564l2.707-4.564h1.396l0.021,7.345H458.377z"/>
					</g>
				</g>
				<g>
					<g>
						<path style="fill:#FAFAFA;" d="M461.711,422.295h1.7v5.96h3.683v1.385h-5.383V422.295z"/>
					</g>
				</g>
			</g>
		</g>
		<g>
			<g>
				<g>
					<path style="fill:#FFFFFF;" d="M446.412,396.321l-6.56,3.023l6.56,2.998v3.098l-9.378-4.484v-3.221l9.378-4.485V396.321z"/>
				</g>
			</g>
			<g>
				<g>
					<path style="fill:#FFFFFF;" d="M456.974,402.366l6.56-3.023l-6.56-2.998v-3.097l9.378,4.484v3.221l-9.378,4.485V402.366z"/>
				</g>
			</g>
			<g>
				<g>
					<path style="fill:#FFFFFF;" d="M451.181,390.204l2.898-0.066l-2.202,18.671l-2.883-0.068L451.181,390.204z"/>
				</g>
			</g>
		</g>
	</g>
	<g>
		<g>
			<g>
				<g>
					<g>
						<g>
							<path style="fill:#455A64;" d="M347.078,437.617h-43.711c-3.021,0-5.469-2.382-5.469-5.319v-58.841
								c0-2.938,2.449-5.319,5.469-5.319h27.721l21.459,21.51v42.65C352.547,435.236,350.098,437.617,347.078,437.617z"/>
						</g>
					</g>
				</g>
				<g style="opacity:0.2;">
					<g>
						<g>
							<path style="fill:#FFFFFF;" d="M331.088,368.138v16.56c0,2.732,2.277,4.947,5.086,4.947l16.372,0.003L331.088,368.138z"/>
						</g>
					</g>
				</g>
				<g style="opacity:0.2;">
					<g>
						<g>
							<path d="M331.312,386.151c0,0-0.216,4.016,4.486,5.337c0.176,0.05,0.357,0.086,0.538,0.118
								c2.138,0.372,16.211,2.806,16.211,2.492c0-0.34,0-4.45,0-4.45h-16.372C336.174,389.648,332.086,389.512,331.312,386.151z"/>
						</g>
					</g>
				</g>
			</g>
			<g style="opacity:0.3;">
				<path d="M348.566,437.617h-46.688c-2.198,0-3.981-1.782-3.981-3.981v-17.919h54.65v17.919
					C352.547,435.835,350.765,437.617,348.566,437.617z"/>
			</g>
			<g>
				<g>
					<g>
						<path style="fill:#FAFAFA;" d="M317.064,422.295v7.345h-1.699v-3.012h-3.337v3.012h-1.699v-7.345h1.699v2.896h3.337v-2.896
							H317.064z"/>
					</g>
				</g>
				<g>
					<g>
						<path style="fill:#FAFAFA;" d="M320.326,423.681h-2.35v-1.385h6.401v1.385h-2.35v5.96h-1.7V423.681z"/>
					</g>
				</g>
				<g>
					<g>
						<path style="fill:#FAFAFA;" d="M331.972,429.64l-0.01-4.407l-2.162,3.631h-0.766l-2.151-3.536v4.313h-1.595v-7.345h1.406
							l2.749,4.564l2.707-4.564h1.396l0.021,7.345H331.972z"/>
					</g>
				</g>
				<g>
					<g>
						<path style="fill:#FAFAFA;" d="M335.307,422.295h1.7v5.96h3.683v1.385h-5.383V422.295z"/>
					</g>
				</g>
			</g>
		</g>
		<g>
			<g>
				<g>
					<path style="fill:#FFFFFF;" d="M320.007,396.321l-6.56,3.023l6.56,2.998v3.098l-9.378-4.484v-3.221l9.378-4.485V396.321z"/>
				</g>
			</g>
			<g>
				<g>
					<path style="fill:#FFFFFF;" d="M330.569,402.366l6.56-3.023l-6.56-2.998v-3.097l9.378,4.484v3.221l-9.378,4.485V402.366z"/>
				</g>
			</g>
			<g>
				<g>
					<path style="fill:#FFFFFF;" d="M324.776,390.204l2.898-0.066l-2.202,18.671l-2.883-0.068L324.776,390.204z"/>
				</g>
			</g>
		</g>
	</g>
	<g>
		<g>
			<g>
				<g>
					<g>
						<g>
							<path style="fill:#455A64;" d="M478.339,250.763h-42.026c-2.904,0-5.259-2.29-5.259-5.114v-56.574
								c0-2.825,2.354-5.114,5.259-5.114l30.663,0.531l16.622,20.15v41.007C483.598,248.473,481.243,250.763,478.339,250.763z"/>
						</g>
					</g>
				</g>
			</g>
			<g style="opacity:0.3;">
				<path d="M479.617,250.763h-44.582c-2.198,0-3.981-1.782-3.981-3.981v-17.075h52.544v17.075
					C483.598,248.981,481.816,250.763,479.617,250.763z"/>
			</g>
			<g>
				<g>
					<g>
						<path style="fill:#FAFAFA;" d="M449.483,236.031v7.062h-1.634v-2.895h-3.208v2.895h-1.634v-7.062h1.634v2.784h3.208v-2.784
							H449.483z"/>
					</g>
				</g>
				<g>
					<g>
						<path style="fill:#FAFAFA;" d="M452.618,237.363h-2.26v-1.332h6.154v1.332h-2.26v5.73h-1.634V237.363z"/>
					</g>
				</g>
				<g>
					<g>
						<path style="fill:#FAFAFA;" d="M463.816,243.093l-0.01-4.237l-2.078,3.491h-0.736l-2.068-3.4v4.146h-1.533v-7.062h1.352
							l2.643,4.389l2.602-4.389h1.342l0.02,7.062H463.816z"/>
					</g>
				</g>
				<g>
					<g>
						<path style="fill:#FAFAFA;" d="M467.022,236.031h1.634v5.73h3.541v1.332h-5.175V236.031z"/>
					</g>
				</g>
			</g>
		</g>
		<g>
			<g>
				<g>
					<path style="fill:#FFFFFF;" d="M452.311,211.058l-6.308,2.906l6.308,2.882v2.978l-9.016-4.312v-3.097l9.016-4.312V211.058z"/>
				</g>
			</g>
			<g>
				<g>
					<path style="fill:#FFFFFF;" d="M462.467,216.87l6.308-2.906l-6.308-2.882v-2.978l9.016,4.312v3.097l-9.016,4.312V216.87z"/>
				</g>
			</g>
			<g>
				<g>
					<path style="fill:#FFFFFF;" d="M456.897,205.177l2.787-0.063l-2.117,17.952L454.796,223L456.897,205.177z"/>
				</g>
			</g>
		</g>
		<g>
			<g>
				<g>
					<circle style="fill:#FFFFFF;" cx="479.525" cy="193.05" r="15.513"/>
				</g>
				<g>
					<g>
						<path style="fill:#263238;" d="M495.038,193.05c-0.085,0.008,0.017-1.384-0.584-3.763c-0.281-1.191-0.848-2.597-1.734-4.084
							c-0.893-1.482-2.178-3.027-3.921-4.337c-1.738-1.297-3.927-2.399-6.451-2.841c-2.507-0.426-5.335-0.344-8.026,0.682
							c-1.354,0.471-2.661,1.184-3.861,2.083c-1.214,0.881-2.316,1.975-3.224,3.243c-1.877,2.498-2.935,5.708-2.965,9.016
							c0.03,3.309,1.087,6.521,2.964,9.019c0.908,1.268,2.01,2.362,3.224,3.244c1.2,0.899,2.507,1.611,3.861,2.083
							c2.691,1.026,5.52,1.107,8.027,0.681c2.524-0.442,4.713-1.544,6.451-2.842c1.743-1.31,3.027-2.856,3.92-4.337
							c0.886-1.488,1.453-2.893,1.734-4.084C495.055,194.433,494.953,193.042,495.038,193.05c0.009,0,0.014,0.085,0.014,0.252
							c-0.003,0.197-0.007,0.441-0.012,0.74c0,0.327-0.018,0.729-0.097,1.2c-0.063,0.473-0.123,1.021-0.292,1.62
							c-0.255,1.214-0.801,2.653-1.68,4.184c-0.886,1.524-2.177,3.12-3.947,4.481c-1.764,1.348-4.003,2.499-6.595,2.973
							c-2.574,0.458-5.487,0.39-8.27-0.655c-1.4-0.481-2.751-1.21-3.993-2.134c-1.256-0.907-2.398-2.034-3.34-3.342
							c-1.945-2.577-3.045-5.901-3.074-9.322c0.03-3.42,1.13-6.742,3.075-9.318c0.459-0.665,1.016-1.239,1.548-1.824
							c0.587-0.529,1.149-1.077,1.791-1.516c1.242-0.924,2.593-1.653,3.993-2.134c2.782-1.045,5.694-1.113,8.269-0.655
							c2.592,0.474,4.83,1.625,6.595,2.973c1.771,1.36,3.061,2.957,3.948,4.481c0.879,1.53,1.426,2.97,1.681,4.184
							c0.17,0.598,0.23,1.147,0.293,1.62c0.079,0.471,0.097,0.874,0.097,1.201c0.005,0.299,0.008,0.543,0.012,0.74
							C495.051,192.965,495.047,193.05,495.038,193.05z"/>
					</g>
				</g>
			</g>
			<g>
				<g>
					<g>
						<g>
							<g>
								<polygon style="fill:#FF725E;" points="471.877,194.387 473.979,192.285 478.035,195.889 485.995,188.229 487.948,190.332 
									477.734,199.945 								"/>
							</g>
						</g>
					</g>
				</g>
			</g>
		</g>
	</g>
	<g>
		<g>
			<g>
				<g>
					<g>
						<g>
							<path style="fill:#455A64;" d="M599.887,437.617h-43.711c-3.021,0-5.469-2.382-5.469-5.319v-58.841
								c0-2.938,2.449-5.319,5.469-5.319h27.721l21.459,21.51v42.65C605.357,435.236,602.908,437.617,599.887,437.617z"/>
						</g>
					</g>
				</g>
				<g style="opacity:0.2;">
					<g>
						<g>
							<path style="fill:#FFFFFF;" d="M583.898,368.138v16.56c0,2.732,2.277,4.947,5.086,4.947l16.373,0.003L583.898,368.138z"/>
						</g>
					</g>
				</g>
				<g style="opacity:0.2;">
					<g>
						<g>
							<path d="M584.121,386.151c0,0-0.215,4.016,4.486,5.337c0.176,0.05,0.357,0.086,0.538,0.118
								c2.138,0.372,16.211,2.806,16.211,2.492c0-0.34,0-4.45,0-4.45h-16.373C588.984,389.648,584.896,389.512,584.121,386.151z"/>
						</g>
					</g>
				</g>
			</g>
			<g style="opacity:0.3;">
				<path d="M601.376,437.617h-46.688c-2.198,0-3.981-1.782-3.981-3.981v-17.919h54.649v17.919
					C605.357,435.835,603.574,437.617,601.376,437.617z"/>
			</g>
			<g>
				<g>
					<g>
						<path style="fill:#FAFAFA;" d="M569.874,422.295v7.345h-1.7v-3.012h-3.337v3.012h-1.7v-7.345h1.7v2.896h3.337v-2.896H569.874z
							"/>
					</g>
				</g>
				<g>
					<g>
						<path style="fill:#FAFAFA;" d="M573.136,423.681h-2.35v-1.385h6.401v1.385h-2.35v5.96h-1.7V423.681z"/>
					</g>
				</g>
				<g>
					<g>
						<path style="fill:#FAFAFA;" d="M584.782,429.64l-0.01-4.407l-2.162,3.631h-0.766l-2.151-3.536v4.313h-1.595v-7.345h1.406
							l2.749,4.564l2.707-4.564h1.396l0.021,7.345H584.782z"/>
					</g>
				</g>
				<g>
					<g>
						<path style="fill:#FAFAFA;" d="M588.116,422.295h1.699v5.96h3.683v1.385h-5.383V422.295z"/>
					</g>
				</g>
			</g>
		</g>
		<g>
			<g>
				<g>
					<path style="fill:#FFFFFF;" d="M572.816,396.321l-6.56,3.023l6.56,2.998v3.098l-9.378-4.484v-3.221l9.378-4.485V396.321z"/>
				</g>
			</g>
			<g>
				<g>
					<path style="fill:#FFFFFF;" d="M583.379,402.366l6.56-3.023l-6.56-2.998v-3.097l9.378,4.484v3.221l-9.378,4.485V402.366z"/>
				</g>
			</g>
			<g>
				<g>
					<path style="fill:#FFFFFF;" d="M577.586,390.204l2.898-0.066l-2.202,18.671l-2.883-0.068L577.586,390.204z"/>
				</g>
			</g>
		</g>
	</g>
</g>
<g id="Character_2">
	<g>
		<g>
			<g>
				<g>
					<path style="fill:#263238;" d="M615.448,53.325c-4.32-0.669-8.939,1.168-11.621,4.62c-3.053-0.708-6.47,0.545-8.341,3.059
						c-1.871,2.514-2.091,6.147-0.537,8.868c-2.215,1.588-3.641,4.224-3.759,6.947c-0.117,2.723,1.077,5.472,3.147,7.245
						l30.792-22.822C623.615,57.14,619.768,53.994,615.448,53.325z"/>
				</g>
			</g>
			<g>
				<g>
					<g>
						<g>
							<g>
								<g>
									<g>
										<path style="fill:#AE7461;" d="M594.159,85.523c2.124-16.238,16.362-28.118,32.718-27.305l1.625,0.08
											c17.473,1.895,25.625,17.792,23.248,35.206l-5.437,58.228l-0.292,2.826l-40.84,6.098l0.796-14.871
											c0,0-16.716-3.456-16.087-20.31C590.193,117.335,592.183,100.625,594.159,85.523z"/>
									</g>
								</g>
							</g>
						</g>
						<g>
							<g>
								<g>
									<g>
										<g>
											<g>
												<path style="fill:#6F4439;" d="M605.839,145.753c0,0,10.724,1.181,22.39-5.363c0,0-5.793,11.863-22.524,9.512
													L605.839,145.753z"/>
											</g>
										</g>
									</g>
								</g>
							</g>
						</g>
						<g>
							<g>
								<g>
									<g>
										<g>
											<g>
												<g>
													<g>
														<g>
															<path style="fill:#263238;" d="M598.646,101.083c-0.109,1.268,0.876,2.405,2.198,2.542
																c1.32,0.136,2.479-0.777,2.587-2.045c0.108-1.268-0.876-2.406-2.196-2.544
																C599.914,98.899,598.754,99.816,598.646,101.083z"/>
														</g>
													</g>
												</g>
											</g>
										</g>
									</g>
								</g>
							</g>
						</g>
						<g>
							<g>
								<g>
									<g>
										<g>
											<g>
												<g>
													<g>
														<g>
															<g>
																<path style="fill:#263238;" d="M597.37,93.943c0.282,0.328,2.171-0.93,4.76-0.794
																	c2.587,0.098,4.42,1.524,4.716,1.221c0.145-0.134-0.13-0.715-0.927-1.358c-0.784-0.641-2.144-1.292-3.757-1.366
																	c-1.612-0.071-2.998,0.455-3.808,1.024C597.528,93.241,597.23,93.795,597.37,93.943z"/>
															</g>
														</g>
													</g>
												</g>
											</g>
										</g>
									</g>
								</g>
							</g>
						</g>
						<g>
							<g>
								<g>
									<g>
										<g>
											<g>
												<g>
													<g>
														<g>
															<path style="fill:#263238;" d="M622.735,103c-0.108,1.268,0.877,2.405,2.199,2.542
																c1.32,0.137,2.479-0.777,2.587-2.046c0.108-1.267-0.877-2.406-2.197-2.543
																C624.003,100.816,622.843,101.732,622.735,103z"/>
														</g>
													</g>
												</g>
											</g>
										</g>
									</g>
								</g>
							</g>
						</g>
						<g>
							<g>
								<g>
									<g>
										<g>
											<g>
												<g>
													<g>
														<g>
															<g>
																<path style="fill:#263238;" d="M622.788,95.69c0.283,0.329,2.174-0.929,4.761-0.793
																	c2.586,0.098,4.42,1.524,4.717,1.221c0.145-0.133-0.128-0.714-0.929-1.358c-0.784-0.64-2.143-1.292-3.756-1.366
																	c-1.612-0.071-2.998,0.455-3.808,1.024C622.949,94.988,622.649,95.542,622.788,95.69z"/>
															</g>
														</g>
													</g>
												</g>
											</g>
										</g>
									</g>
								</g>
							</g>
						</g>
						<g>
							<g>
								<g>
									<g>
										<g>
											<g>
												<g>
													<g>
														<g>
															<path style="fill:#263238;" d="M612.441,114.419c0.02-0.147-1.576-0.505-4.166-0.968
																c-0.658-0.101-1.277-0.263-1.366-0.72c-0.132-0.485,0.18-1.184,0.539-1.937c0.701-1.568,1.434-3.212,2.205-4.936
																c3.071-7.031,5.328-12.825,5.044-12.946c-0.285-0.121-3.004,5.479-6.074,12.51c-0.741,1.735-1.45,3.388-2.124,4.97
																c-0.287,0.739-0.76,1.569-0.472,2.577c0.153,0.503,0.621,0.886,1.038,1.02c0.418,0.15,0.789,0.176,1.115,0.212
																C610.797,114.472,612.424,114.565,612.441,114.419z"/>
														</g>
													</g>
												</g>
											</g>
										</g>
									</g>
								</g>
							</g>
						</g>
						<g>
							<g>
								<g>
									<g>
										<g>
											<g>
												<g>
													<g>
														<g>
															<path style="fill:#263238;" d="M619.969,116.588c-0.42-0.046-0.565,2.763-3.068,4.638
																c-2.5,1.881-5.479,1.417-5.521,1.809c-0.048,0.174,0.64,0.579,1.902,0.676c1.238,0.104,3.068-0.204,4.6-1.351
																c1.528-1.151,2.24-2.751,2.393-3.898C620.441,117.292,620.163,116.58,619.969,116.588z"/>
														</g>
													</g>
												</g>
											</g>
										</g>
									</g>
								</g>
							</g>
						</g>
						<g>
							<g>
								<g>
									<g>
										<g>
											<path style="fill:#263238;" d="M622.624,85.513c0.22,0.716,2.821,0.511,5.839,1.028c3.029,0.456,5.434,1.467,5.868,0.856
												c0.194-0.293-0.199-0.976-1.156-1.707c-0.948-0.729-2.481-1.453-4.294-1.746c-1.813-0.29-3.497-0.084-4.625,0.312
												C623.119,84.649,622.53,85.174,622.624,85.513z"/>
										</g>
									</g>
								</g>
							</g>
						</g>
						<g>
							<g>
								<g>
									<g>
										<g>
											<path style="fill:#263238;" d="M598.694,86.499c0.426,0.611,2.239,0.089,4.385,0.167c2.148,0.003,3.94,0.592,4.388-0.002
												c0.198-0.289-0.058-0.893-0.824-1.489c-0.754-0.593-2.039-1.112-3.515-1.14c-1.475-0.026-2.779,0.443-3.555,1.008
												C598.786,85.61,598.507,86.203,598.694,86.499z"/>
										</g>
									</g>
								</g>
							</g>
						</g>
						<g>
							<g>
								<g>
									<g>
										<path style="fill:#263238;" d="M596.163,77.879c0,0,4.966-10.327,10.175-12.536c6.305-2.674,8.62,4.216,14.57,2.868
											c5.949-1.349,11.97-3.916,17.741,0.918c6.317,5.291,3.069,8.621,3.103,16.115c0.139,30.381,5.246,39.224,7.529,25.03
											c0.25-1.555,4.651-2.583,5.622-9.157c1.26-8.525,2.106-18.91,0.496-25.083c-1.357-5.204-4.102-8.889-9.147-13.052
											c-7.964-6.572-19.316-7.269-27.069-6.876C611.43,56.498,596.116,64.636,596.163,77.879z"/>
									</g>
								</g>
							</g>
						</g>
						<g>
							<g>
								<g>
									<g>
										<path style="fill:#AE7461;" d="M648.23,109.762c0.235-2.594,2.577-4.536,5.155-4.16c3.126,0.455,6.533,2.412,6.003,8.893
											c-0.94,11.497-12.289,8.182-12.281,7.85C647.112,122.12,647.794,114.57,648.23,109.762z"/>
									</g>
								</g>
							</g>
						</g>
						<g>
							<g>
								<g>
									<g>
										<path style="fill:#6F4439;" d="M649.962,118.224c0.054-0.033,0.189,0.157,0.515,0.34c0.317,0.178,0.877,0.328,1.494,0.153
											c1.251-0.346,2.432-2.191,2.657-4.259c0.115-1.043-0.023-2.058-0.327-2.913c-0.282-0.87-0.778-1.502-1.38-1.66
											c-0.597-0.191-1.06,0.14-1.227,0.452c-0.18,0.309-0.126,0.544-0.189,0.559c-0.034,0.026-0.231-0.213-0.1-0.68
											c0.066-0.224,0.223-0.484,0.511-0.683c0.294-0.202,0.709-0.283,1.132-0.202c0.881,0.133,1.613,1.015,1.946,1.953
											c0.382,0.947,0.561,2.089,0.432,3.261c-0.263,2.311-1.626,4.382-3.327,4.726c-0.826,0.145-1.481-0.154-1.807-0.454
											C649.96,118.504,649.92,118.242,649.962,118.224z"/>
									</g>
								</g>
							</g>
						</g>
					</g>
					<g>
						<g>
							<g>
								<path style="fill:#263238;" d="M652.568,90.296c-1.667,1.021-3.428,2.071-5.381,2.167c-1.953,0.096-4.12-1.131-4.352-3.072
									c-0.104-0.872,0.157-1.864-0.378-2.561c-0.639-0.831-1.902-0.643-2.948-0.584c-3.63,0.203-7.2-2.534-7.945-6.092
									c-0.989,1.333-3.135,1.166-4.484,0.199c-1.349-0.968-2.173-2.483-3.202-3.786c-1.028-1.303-2.503-2.496-4.157-2.344
									c-0.924,0.085-1.811,0.589-2.731,0.461c-1.624-0.226-2.325-2.175-2.491-3.806c-0.167-1.631-0.265-3.529-1.602-4.477
									c-1.239-0.879-2.922-0.49-4.434-0.343c-1.512,0.147-3.433-0.302-3.744-1.789c-0.163-0.78,0.207-1.574,0.668-2.225
									c2.085-2.948,6.369-4.091,9.645-2.573c1.419-4.043,5.415-7.046,9.693-7.284c4.279-0.238,8.258-1.454,10.116,2.408
									c2.743-2.251,6.931,0.697,10.347,1.657c3.416,0.96,6.292,3.663,7.462,7.013c3.06-0.644,6.445,0.695,8.237,3.258
									c1.791,2.564,1.884,6.203,0.225,8.855c2.169,1.386,3.97,3.699,3.888,6.272c-0.082,2.573-2.713,5.009-5.16,4.21
									c0.903,2.051-0.048,4.727-2.042,5.749c-1.995,1.022-4.722,0.23-5.859-1.701"/>
							</g>
						</g>
					</g>
				</g>
			</g>
		</g>
		<g>
			<g>
				<g>
					<g>
						<g>
							<path style="fill:#FF725E;" d="M683.442,251.98l34.003-7.342c0,0-4.667-25.58-10.467-51.52
								c-4.625-20.685-27.487-26.428-27.487-26.428h0l-26.488-11.678l-3.573-13.749c-14.564,7.2-28.685,14.125-37.213,17.593
								l-7.795-8.612l-3.313,10.344l-2.791,0.29c0,0-11.528,3.503-12.687,3.595c-10.547,0.84-24.31,12.643-29.46,24.979
								c-2.132,5.106-10.378,35.67-16.425,67.306c-4.376,22.893-6.901,45.108-7.987,48.122l33.969,0.068l7.84-48.19l2.307,48.465
								l115.724-0.36l-8.229-48.704L683.442,251.98z"/>
						</g>
						<g>
							<g>
								<g>
									<path style="fill:#263238;" d="M568.524,199.832c-0.103,0.008,0.859,12.76,2.15,28.477
										c1.291,15.723,2.421,28.457,2.524,28.449c0.103-0.009-0.859-12.757-2.15-28.48
										C569.757,212.561,568.627,199.824,568.524,199.832z"/>
								</g>
							</g>
						</g>
					</g>
					<g>
						<g>
							<g>
								<g>
									<path style="fill:#E0E0E0;" d="M653.044,155.431l-34.413,17.276l-6.409-13.998c0,0,11.524-4.956,21.992-10.541
										c10.686-5.702,14.847-6.906,14.847-6.906"/>
								</g>
							</g>
						</g>
					</g>
					<g>
						<g>
							<g>
								<g>
									<polyline style="fill:#E0E0E0;" points="604.052,150.243 611.847,158.855 604.818,171.389 600.739,160.587 									"/>
								</g>
							</g>
						</g>
					</g>
				</g>
				<g>
					<g>
						<g>
							<g>
								<path style="fill:#263238;" d="M686.886,171.495c0.061,0.078-1.075,0.962-2.683,2.618c-1.609,1.65-3.627,4.143-5.297,7.238
									c-1.66,3.102-2.627,6.161-3.116,8.413c-0.494,2.254-0.605,3.689-0.704,3.681c-0.038-0.003-0.039-0.363-0.009-1.015
									c0.021-0.652,0.129-1.593,0.33-2.744c0.396-2.3,1.321-5.439,3.012-8.597c1.701-3.152,3.808-5.655,5.508-7.254
									c0.849-0.803,1.574-1.411,2.106-1.789C686.562,171.663,686.863,171.465,686.886,171.495z"/>
							</g>
						</g>
					</g>
				</g>
				<g>
					<g>
						<g>
							<g>
								<path style="fill:#263238;" d="M612.221,158.709c0.068,0.047-0.764,1.32-2.021,3.424c-1.257,2.104-2.92,5.056-4.506,8.439
									c-0.129,0.278-0.257,0.554-0.377,0.812l-0.247,0.533l-0.251-0.529c-1.528-3.215-2.63-6.207-3.314-8.391
									c-0.343-1.092-0.59-1.982-0.741-2.6c-0.151-0.618-0.213-0.964-0.178-0.974c0.076-0.022,0.501,1.31,1.277,3.453
									c0.774,2.143,1.928,5.088,3.453,8.276l-0.499,0.004c0.12-0.26,0.249-0.538,0.378-0.818c1.597-3.407,3.327-6.351,4.674-8.411
									c0.674-1.031,1.249-1.846,1.661-2.397C611.943,158.979,612.19,158.688,612.221,158.709z"/>
							</g>
						</g>
					</g>
				</g>
				<g>
					<g>
						<g>
							<path style="fill:#263238;" d="M649.948,156.985c-0.006-0.012-0.169,0.056-0.475,0.196c-0.338,0.16-0.779,0.368-1.329,0.628
								c-1.186,0.579-2.835,1.384-4.857,2.372c-4.119,2.052-9.745,4.855-15.961,7.951c-3.111,1.568-6.074,3.061-8.774,4.421
								l0.235,0.083c-1.897-4.076-3.515-7.553-4.679-10.056c-0.571-1.198-1.03-2.16-1.365-2.863
								c-0.152-0.306-0.276-0.555-0.375-0.755c-0.088-0.17-0.138-0.256-0.147-0.252c-0.009,0.004,0.024,0.098,0.095,0.276
								c0.086,0.206,0.194,0.462,0.326,0.777c0.313,0.713,0.742,1.689,1.276,2.904c1.134,2.516,2.709,6.013,4.555,10.112
								l0.074,0.163l0.161-0.081c2.704-1.352,5.671-2.836,8.787-4.395c6.196-3.135,11.805-5.972,15.911-8.049
								c2-1.032,3.631-1.873,4.804-2.478c0.537-0.286,0.968-0.515,1.297-0.691C649.802,157.087,649.954,156.996,649.948,156.985z"/>
						</g>
					</g>
				</g>
			</g>
			<g>
				<g>
					<path style="fill:#FF725E;" d="M713.72,227.102c0,0,7.056,34.11,7.632,41.956c1.133,15.45-6.277,24.711-13.272,29.102
						c-7.255,4.553-48.227,6.703-48.227,6.703l-2.484-24.499l26.628-16.092l-3.61-27.92L713.72,227.102z"/>
				</g>
			</g>
			<g>
				<g>
					<g>
						<path style="fill:#263238;" d="M683.85,263.333c0.013-0.002-0.006-0.196-0.053-0.563c-0.056-0.401-0.13-0.935-0.223-1.602
							c-0.215-1.428-0.517-3.427-0.887-5.882c-0.784-4.995-1.857-11.832-3.043-19.385c-2.341-14.771-4.028-25.412-4.345-27.41
							c-0.013,0-0.006,0.193,0.019,0.564c0.017,0.373,0.089,0.913,0.171,1.611c0.169,1.395,0.447,3.409,0.808,5.894
							c0.721,4.971,1.775,11.83,2.976,19.4c1.201,7.568,2.321,14.415,3.151,19.369c0.419,2.446,0.761,4.439,1.005,5.863
							c0.122,0.663,0.219,1.192,0.293,1.591C683.793,263.145,683.837,263.335,683.85,263.333z"/>
					</g>
				</g>
			</g>
			<g>
				<g>
					<g>
						<path style="fill:#263238;" d="M710.277,296.781c-0.004-0.004-0.074,0.051-0.204,0.161c-0.127,0.114-0.317,0.28-0.605,0.451
							c-0.554,0.366-1.441,0.809-2.643,1.231c-2.398,0.864-6.012,1.723-10.558,2.499c-9.096,1.537-21.91,2.898-36.422,3.553
							l0.193,0.167c-0.244-2.415-0.502-4.96-0.763-7.544c-0.605-5.936-1.189-11.667-1.727-16.953l-0.086,0.172
							c10.419-6.294,19.405-11.722,25.805-15.588c3.172-1.933,5.702-3.474,7.457-4.543c0.853-0.527,1.516-0.938,1.984-1.227
							c0.213-0.135,0.38-0.242,0.508-0.323c0.113-0.074,0.17-0.114,0.167-0.119c-0.003-0.005-0.065,0.026-0.183,0.092
							c-0.132,0.075-0.304,0.173-0.524,0.297c-0.475,0.277-1.148,0.671-2.014,1.176c-1.768,1.048-4.316,2.559-7.511,4.454
							c-6.416,3.837-15.426,9.225-25.872,15.473l-0.098,0.059l0.012,0.114c0.534,5.287,1.112,11.018,1.711,16.955
							c0.263,2.584,0.521,5.129,0.767,7.544l0.018,0.175l0.175-0.008c14.529-0.668,27.348-2.075,36.45-3.68
							c4.548-0.81,8.165-1.709,10.562-2.618c1.201-0.444,2.087-0.91,2.635-1.3c0.284-0.182,0.47-0.359,0.591-0.483
							C710.221,296.848,710.282,296.785,710.277,296.781z"/>
					</g>
				</g>
			</g>
			<g style="opacity:0.3;">
				<g>
					<g>
						<path d="M702.039,254.161c-0.225-0.338-0.638-0.496-1.034-0.587c-1.96-0.45-3.989,0.266-5.816,1.107
							c-5.594,2.574-10.214,6.545-14.103,11.32l0.459-0.263c6.24-3.684,11.765-7.425,18.453-9.209
							c0.593-0.158,1.213-0.318,1.676-0.722C702.137,255.403,702.379,254.672,702.039,254.161z"/>
					</g>
				</g>
			</g>
		</g>
		<g>
			<g>
				<g>
					<path style="fill:#AE7461;" d="M657.741,281.887l-3.454,0.325c0,0-0.447-5.046-1.23-6.947
						c-0.783-1.901-2.236-7.939-2.236-7.939s-15.431-6.486-15.767-6.486c-0.336,0-15.432,4.137-15.432,4.137
						s0.335,4.137,5.479,4.361c5.144,0.224,9.169-0.783,9.169-0.783l4.808,1.789l-9.617,0.617l-16.885,10.122
						c0,0,0.112,3.016,6.709,1.45c6.598-1.565,9.952-4.361,9.952-4.361l12.461,1.837l-13.132,0.623l-9.84,4.92
						c0,0,0.086,4.077,4.112,3.071c4.026-1.007,6.735-1.617,6.735-1.617l11.732,1.392l-9.943,0.552c0,0-6.709,0.181-6.374,1.97
						c0.336,1.789,5.256,3.354,5.256,3.354l7,1.23c0,0,0.268,3.131,1.498,4.137c1.23,1.007,3.131,2.405,4.249,2.432
						c1.118,0.028,16.882,0.859,16.882,0.859L657.741,281.887z"/>
				</g>
			</g>
			<g>
				<g>
					<g>
						<path style="fill:#6F4439;" d="M649.141,297.173c0.013,0.018,0.223-0.12,0.594-0.389c0.359-0.282,0.863-0.719,1.393-1.347
							c1.07-1.229,2.231-3.302,2.527-5.816c0.152-1.249,0.079-2.463-0.157-3.526c-0.232-1.068-0.602-1.962-0.706-2.754
							c-0.122-0.786-0.015-1.438,0.143-1.85c0.158-0.416,0.328-0.608,0.304-0.626c-0.01-0.012-0.219,0.154-0.423,0.576
							c-0.204,0.417-0.354,1.103-0.257,1.931c0.079,0.83,0.434,1.753,0.64,2.787c0.213,1.035,0.274,2.21,0.127,3.423
							c-0.287,2.439-1.378,4.467-2.379,5.708C649.953,296.559,649.093,297.115,649.141,297.173z"/>
					</g>
				</g>
			</g>
			<g>
				<g>
					<g>
						<path style="fill:#6F4439;" d="M647.242,295.958c0.003-0.091-2.297-0.247-5.137-0.349c-2.841-0.101-5.146-0.109-5.149-0.018
							s2.297,0.247,5.138,0.349C644.933,296.041,647.239,296.049,647.242,295.958z"/>
					</g>
				</g>
			</g>
			<g>
				<g>
					<g>
						<path style="fill:#6F4439;" d="M646.477,288.572c-0.001-0.091-1.223-0.147-2.728-0.124c-1.506,0.023-2.725,0.115-2.724,0.207
							c0.001,0.091,1.223,0.147,2.729,0.124C645.259,288.756,646.479,288.663,646.477,288.572z"/>
					</g>
				</g>
			</g>
			<g>
				<g>
					<g>
						<path style="fill:#6F4439;" d="M646.995,271.319c-0.015-0.102-1.714,0.19-3.803-0.021c-2.091-0.193-3.702-0.806-3.737-0.708
							c-0.039,0.07,1.557,0.838,3.705,1.038C645.305,271.842,647.02,271.395,646.995,271.319z"/>
					</g>
				</g>
			</g>
		</g>
		<g>
			<g>
				<g>
					<g>
						<g>
							<g>
								<path style="fill:#E0E0E0;" d="M502.016,232.32l14.781,72.559h102.461h25.826c1.415,0,2.562-1.147,2.562-2.562l0,0
									c0-1.415-1.147-2.562-2.562-2.562h-25.826l-13.703-67.481c-0.263-1.295-1.394-2.23-2.715-2.244l-98.048-1.07
									C503.007,228.94,501.659,230.571,502.016,232.32z"/>
							</g>
						</g>
					</g>
					<g>
						<g>
							<g>
								<g>
									<path style="fill:#263238;" d="M502.016,232.32c0,0-0.016-0.072-0.04-0.218c-0.024-0.145-0.043-0.368-0.013-0.659
										c0.052-0.561,0.356-1.503,1.357-2.121c0.246-0.152,0.534-0.261,0.848-0.336c0.316-0.071,0.66-0.066,1.01-0.063
										c0.704,0.005,1.474,0.011,2.308,0.018c1.67,0.014,3.599,0.03,5.772,0.048c8.703,0.083,21.334,0.202,37.073,0.352
										c7.872,0.079,16.521,0.167,25.844,0.261c4.662,0.048,9.492,0.098,14.478,0.149c2.493,0.026,5.025,0.052,7.594,0.079
										c1.285,0.013,2.578,0.027,3.882,0.04c0.33,0.008,0.641-0.005,0.993,0.024c0.343,0.036,0.68,0.133,0.991,0.286
										c0.622,0.304,1.132,0.836,1.408,1.477c0.144,0.321,0.203,0.669,0.268,0.986l0.199,0.976
										c0.133,0.652,0.266,1.306,0.399,1.961c0.267,1.312,0.536,2.632,0.806,3.961c0.541,2.658,1.088,5.349,1.642,8.072
										c1.108,5.446,2.241,11.019,3.398,16.706c2.313,11.376,4.718,23.21,7.196,35.401l-0.172-0.141
										c4.85-0.001,9.82-0.001,14.873-0.001c2.526,0,5.073,0,7.635,0l1.925,0h0.964c0.313,0.003,0.656-0.015,0.999,0.06
										c0.677,0.139,1.29,0.552,1.681,1.12c0.397,0.567,0.56,1.289,0.454,1.972c-0.117,0.84-0.661,1.593-1.4,1.996
										c-0.371,0.199-0.787,0.311-1.206,0.326l-1.184,0.005c-1.569,0-3.134,0-4.694,0c-3.12,0-6.222,0-9.304-0.001
										c-6.164-0.001-12.249-0.001-18.241-0.002c-11.983-0.003-23.595-0.005-34.73-0.008c-22.269-0.011-42.629-0.022-60.233-0.03
										l-0.111,0l-0.022-0.109c-4.517-22.302-8.192-40.444-10.739-53.017c-1.263-6.282-2.247-11.171-2.916-14.496
										c-0.329-1.657-0.58-2.923-0.75-3.781C502.091,232.76,502.016,232.32,502.016,232.32s0.102,0.434,0.282,1.284
										c0.179,0.856,0.443,2.12,0.789,3.773c0.685,3.322,1.693,8.206,2.987,14.482c2.574,12.567,6.289,30.701,10.856,52.993
										l-0.133-0.109c17.604-0.009,37.964-0.019,60.233-0.03c11.135-0.003,22.747-0.005,34.73-0.008
										c5.992-0.001,12.076-0.001,18.241-0.002c3.082,0,6.184,0,9.304-0.001c1.56,0,3.125,0,4.694,0l1.171-0.005
										c0.366-0.013,0.727-0.111,1.05-0.283c0.643-0.351,1.117-1.007,1.218-1.737c0.092-0.596-0.049-1.224-0.395-1.717
										c-0.341-0.495-0.875-0.855-1.463-0.975c-0.29-0.065-0.596-0.05-0.925-0.053l-0.964,0h-1.925c-2.563,0-5.109,0-7.635,0
										c-5.052,0-10.022-0.001-14.873-0.001h-0.143l-0.029-0.141c-2.473-12.193-4.874-24.028-7.182-35.404
										c-1.153-5.688-2.283-11.262-3.387-16.709c-0.552-2.723-1.097-5.415-1.636-8.073c-0.269-1.329-0.537-2.65-0.803-3.962
										c-0.133-0.656-0.266-1.31-0.397-1.962l-0.198-0.976c-0.067-0.331-0.12-0.641-0.248-0.925
										c-0.246-0.573-0.703-1.05-1.26-1.323c-0.278-0.137-0.579-0.225-0.887-0.258c-0.299-0.027-0.643-0.016-0.964-0.023
										c-1.303-0.015-2.597-0.03-3.882-0.044c-2.569-0.029-5.101-0.059-7.594-0.087c-4.986-0.058-9.816-0.113-14.478-0.167
										c-9.323-0.11-17.972-0.211-25.844-0.304c-15.739-0.194-28.37-0.35-37.072-0.458c-2.174-0.029-4.102-0.056-5.772-0.078
										c-0.834-0.012-1.604-0.023-2.308-0.033c-0.353-0.006-0.685-0.013-0.993,0.053c-0.306,0.071-0.588,0.175-0.83,0.32
										c-0.984,0.594-1.296,1.514-1.358,2.068C501.937,232.024,502.035,232.319,502.016,232.32z"/>
								</g>
							</g>
						</g>
					</g>
				</g>
				<g>
					<g>
						<g>
							<path style="fill:#FFFFFF;" d="M561.131,265.527c0,2.34-1.897,4.237-4.237,4.237c-2.34,0-4.237-1.897-4.237-4.237
								c0-2.34,1.897-4.237,4.237-4.237C559.234,261.29,561.131,263.187,561.131,265.527z"/>
						</g>
					</g>
				</g>
				<g>
					<g>
						<g>
							<g>
								<path style="fill:#263238;" d="M502.135,232.907c0,0,0.15-0.011,0.442-0.015c0.305-0.002,0.736-0.004,1.297-0.007
									c1.153,0.001,2.831,0.004,4.988,0.006c4.343,0.021,10.608,0.051,18.343,0.089c15.499,0.109,36.89,0.26,60.516,0.427
									c2.955,0.024,5.875,0.047,8.753,0.07c0.719,0.006,1.436,0.012,2.15,0.018c0.349,0.007,0.721-0.015,1.098,0.066
									c0.37,0.075,0.724,0.219,1.041,0.422c0.635,0.403,1.11,1.045,1.302,1.766c0.16,0.709,0.28,1.381,0.421,2.069
									c1.084,5.466,2.131,10.738,3.127,15.761c1.985,10.044,3.773,19.09,5.275,26.691c1.487,7.591,2.691,13.738,3.526,18
									c0.407,2.117,0.724,3.766,0.941,4.897c0.102,0.552,0.18,0.976,0.236,1.275c0.051,0.288,0.068,0.437,0.068,0.437
									s-0.041-0.145-0.104-0.43c-0.064-0.298-0.153-0.72-0.271-1.269c-0.233-1.129-0.571-2.772-1.006-4.884
									c-0.861-4.257-2.103-10.396-3.637-17.978c-1.523-7.597-3.337-16.638-5.35-26.676c-1.003-5.022-2.056-10.292-3.148-15.757
									c-0.139-0.677-0.267-1.383-0.417-2.044c-0.17-0.639-0.591-1.207-1.154-1.563c-0.28-0.179-0.594-0.307-0.921-0.373
									c-0.322-0.072-0.668-0.052-1.032-0.059c-0.714-0.006-1.431-0.011-2.15-0.016c-2.878-0.023-5.798-0.045-8.753-0.068
									c-23.626-0.207-45.017-0.395-60.515-0.531c-7.735-0.085-13.999-0.154-18.342-0.201c-2.157-0.032-3.834-0.056-4.987-0.073
									c-0.561-0.012-0.993-0.021-1.297-0.028C502.285,232.921,502.135,232.907,502.135,232.907z"/>
							</g>
						</g>
					</g>
				</g>
			</g>
		</g>
	</g>
</g>
<g id="Character_1">
	<g>
		<g>
			<g>
				<g>
					<g>
						<g>
							<path style="fill:#263238;" d="M93.812,271.697c-0.396,13.763,5.447,27.586,15.595,36.892
								c2.323-6.731,4.646-13.462,6.97-20.193"/>
						</g>
					</g>
				</g>
				<g>
					<g>
						<g>
							<g>
								<path style="fill:#263238;" d="M146.36,231.53c-5.984-3.27-13.212-3.74-19.898-2.402c-6.686,1.339-12.917,4.365-18.819,7.78
									c-3.312,1.916-6.613,4.022-8.994,7.017c-4.344,5.466-8.639,14.444-9.058,21.414c-0.339,5.636,1.82,19.745,4.202,24.865
									c2.186,4.698,12.417,8.273,17.467,9.433l46.336-53.889C155.959,239.762,151.806,234.507,146.36,231.53z"/>
							</g>
						</g>
					</g>
					<g>
						<g>
							<g>
								<path style="fill:#263238;" d="M154.348,238.799l-11.108-1.986c6.072,14.461,7.718,47.53,11.192,62.824
									c4.094-5.941,13.603-24.037,13.094-31.234C167.018,261.206,167.546,237.572,154.348,238.799z"/>
							</g>
						</g>
					</g>
					<g>
						<g>
							<path style="fill:#FFBE9D;" d="M101.684,262.87c0.598-8.448,6.067-15.378,14.273-17.471l25.581-6.526
								c11.055-1.194,18.438,12.405,19.162,23.501c0.804,12.327,1.299,25.336-0.141,34.539c-2.896,18.505-17.069,20.89-17.069,20.89
								c-0.002-0.028-0.003,8.801-0.012,14.203l-8.561,35.437l-27.588-38.107l-5.71-66.242
								C101.612,262.778,101.654,263.291,101.684,262.87z"/>
						</g>
					</g>
					<g>
						<g>
							<g>
								<g>
									<g>
										<g>
											<g>
												<g>
													<g>
														<g>
															<g>
																<g>
																	<g>
																		<g>
																			<g>
																				<g>
																					<g>
																						<path style="fill:#263238;" d="M155.141,276.35c0.047,1.253-0.975,2.326-2.282,2.399
																							c-1.305,0.073-2.403-0.88-2.45-2.133c-0.047-1.253,0.975-2.327,2.28-2.4
																							C153.996,274.142,155.094,275.097,155.141,276.35z"/>
																					</g>
																				</g>
																			</g>
																		</g>
																	</g>
																</g>
															</g>
														</g>
													</g>
												</g>
											</g>
										</g>
									</g>
								</g>
							</g>
						</g>
					</g>
					<g>
						<g>
							<g>
								<g>
									<g>
										<g>
											<g>
												<g>
													<g>
														<g>
															<g>
																<g>
																	<g>
																		<g>
																			<g>
																				<g>
																					<g>
																						<g>
																							<path style="fill:#263238;" d="M157.922,269.621c-0.293,0.31-2.094-1.016-4.646-1.004
																								c-2.55-0.024-4.421,1.293-4.699,0.981c-0.136-0.138,0.163-0.697,0.977-1.293
																								c0.801-0.593,2.17-1.172,3.76-1.168c1.59,0.005,2.929,0.587,3.699,1.185
																								C157.799,268.923,158.067,269.482,157.922,269.621z"/>
																						</g>
																					</g>
																				</g>
																			</g>
																		</g>
																	</g>
																</g>
															</g>
														</g>
													</g>
												</g>
											</g>
										</g>
									</g>
								</g>
							</g>
						</g>
					</g>
					<g>
						<g>
							<g>
								<g>
									<g>
										<g>
											<g>
												<g>
													<g>
														<g>
															<g>
																<g>
																	<g>
																		<g>
																			<g>
																				<g>
																					<g>
																						<path style="fill:#263238;" d="M132.889,276.35c0.047,1.253-0.975,2.325-2.282,2.398
																							c-1.304,0.073-2.403-0.881-2.45-2.133c-0.047-1.253,0.975-2.327,2.28-2.4
																							C131.743,274.142,132.842,275.098,132.889,276.35z"/>
																					</g>
																				</g>
																			</g>
																		</g>
																	</g>
																</g>
															</g>
														</g>
													</g>
												</g>
											</g>
										</g>
									</g>
								</g>
							</g>
						</g>
					</g>
					<g>
						<g>
							<g>
								<g>
									<g>
										<g>
											<g>
												<g>
													<g>
														<g>
															<g>
																<g>
																	<g>
																		<g>
																			<g>
																				<g>
																					<g>
																						<g>
																							<path style="fill:#263238;" d="M133.678,269.621c-0.295,0.31-2.097-1.016-4.648-1.004
																								c-2.55-0.024-4.421,1.293-4.698,0.981c-0.136-0.138,0.159-0.697,0.977-1.293
																								c0.802-0.594,2.17-1.172,3.76-1.169c1.59,0.005,2.929,0.588,3.7,1.185
																								C133.553,268.923,133.822,269.482,133.678,269.621z"/>
																						</g>
																					</g>
																				</g>
																			</g>
																		</g>
																	</g>
																</g>
															</g>
														</g>
													</g>
												</g>
											</g>
										</g>
									</g>
								</g>
							</g>
						</g>
					</g>
					<g>
						<g>
							<g>
								<g>
									<g>
										<g>
											<g>
												<g>
													<g>
														<g>
															<g>
																<g>
																	<g>
																		<g>
																			<g>
																				<g>
																					<g>
																						<g>
																							<path style="fill:#263238;" d="M141.659,289.671c-0.012-0.145,1.574-0.422,4.145-0.757
																								c0.652-0.069,1.268-0.2,1.377-0.645c0.153-0.472-0.122-1.173-0.439-1.931
																								c-0.617-1.576-1.262-3.228-1.939-4.96c-2.692-7.061-4.644-12.868-4.358-12.974
																								c0.285-0.106,2.7,5.531,5.393,12.593c0.648,1.741,1.268,3.401,1.858,4.989
																								c0.249,0.74,0.675,1.58,0.344,2.558c-0.174,0.487-0.652,0.842-1.07,0.955
																								c-0.417,0.129-0.784,0.136-1.107,0.156C143.275,289.801,141.669,289.816,141.659,289.671z"/>
																						</g>
																					</g>
																				</g>
																			</g>
																		</g>
																	</g>
																</g>
															</g>
														</g>
													</g>
												</g>
											</g>
										</g>
									</g>
								</g>
							</g>
						</g>
					</g>
					<g>
						<g>
							<g>
								<g>
									<g>
										<g>
											<path style="fill:#EB996E;" d="M118.954,311.22c0,0,6.02,12.706,24.53,10.934l0.005-4.351
												C143.49,317.803,131.3,318.603,118.954,311.22z"/>
										</g>
									</g>
								</g>
							</g>
						</g>
					</g>
					<g>
						<g>
							<g>
								<g>
									<g>
										<g>
											<g>
												<g>
													<g>
														<g>
															<g>
																<g>
																	<g>
																		<g>
																			<path style="fill:#263238;" d="M132.877,260.397c-0.25,0.694-2.8,0.371-5.794,0.739
																				c-3.002,0.308-5.415,1.189-5.814,0.568c-0.178-0.297,0.242-0.952,1.216-1.626
																				c0.966-0.673,2.51-1.314,4.307-1.518c1.797-0.2,3.444,0.081,4.536,0.522
																				C132.43,259.523,132.984,260.067,132.877,260.397z"/>
																		</g>
																	</g>
																</g>
															</g>
														</g>
													</g>
												</g>
											</g>
										</g>
									</g>
								</g>
							</g>
						</g>
					</g>
					<g>
						<g>
							<g>
								<g>
									<g>
										<g>
											<g>
												<g>
													<g>
														<g>
															<g>
																<g>
																	<g>
																		<g>
																			<path style="fill:#263238;" d="M157.089,261.813c-0.448,0.581-2.208-0.017-4.322-0.041
																				c-2.114-0.098-3.905,0.398-4.318-0.207c-0.181-0.294,0.1-0.875,0.881-1.426c0.77-0.548,2.059-0.999,3.512-0.958
																				c1.453,0.044,2.713,0.566,3.45,1.158C157.04,260.933,157.287,261.529,157.089,261.813z"/>
																		</g>
																	</g>
																</g>
															</g>
														</g>
													</g>
												</g>
											</g>
										</g>
									</g>
								</g>
							</g>
						</g>
					</g>
					<g>
						<g>
							<g>
								<g>
									<g>
										<g>
											<path style="fill:#263238;" d="M155.674,245.479c-1.131-2.784-4.186-4.455-7.187-4.607
												c-3.001-0.152-5.932,0.984-8.533,2.488c-11.017,6.368-16.679,21.749-27.565,28.337c-2.677,1.621-6.162,0.136-8.439,2.283
												c-2.277,2.147-3.754,5.576-2.495,8.441c-1.463-2.006-2.945-4.049-3.777-6.388c-0.832-2.339-0.936-5.06,0.305-7.21
												c0.942-1.632,2.605-2.877,3.062-4.706c0.402-1.608-0.233-3.29-0.163-4.946c0.071-1.686,0.864-3.25,1.695-4.719
												c4.264-7.541,10.13-14.362,17.683-18.603c4.935-2.771,10.579-4.391,16.235-4.199c5.656,0.193,11.306,2.272,15.446,6.131
												C154.377,240.05,156.937,242.399,155.674,245.479"/>
										</g>
									</g>
								</g>
							</g>
						</g>
					</g>
					<g>
						<g>
							<g>
								<g>
									<g>
										<g>
											<g>
												<g>
													<g>
														<g>
															<g>
																<g>
																	<g>
																		<g>
																			<g>
																				<g>
																					<g>
																						<g>
																							<g>
																								<g>
																									<path style="fill:#FFBE9D;" d="M104.218,276.272c-0.195-0.531-9.844-4.013-9.972,6.243
																										c-0.124,9.964,9.93,8.003,9.95,7.717C104.215,289.947,104.218,276.272,104.218,276.272z"/>
																								</g>
																							</g>
																						</g>
																					</g>
																				</g>
																			</g>
																		</g>
																	</g>
																</g>
															</g>
														</g>
													</g>
												</g>
											</g>
										</g>
									</g>
								</g>
							</g>
						</g>
						<g>
							<g>
								<g>
									<g>
										<g>
											<g>
												<g>
													<g>
														<g>
															<g>
																<g>
																	<g>
																		<g>
																			<g>
																				<g>
																					<g>
																						<g>
																							<g>
																								<g>
																									<g>
																										<path style="fill:#EB996E;" d="M101.157,286.428c-0.044-0.032-0.175,0.12-0.469,0.252
																											c-0.287,0.128-0.78,0.214-1.298,0.015c-1.049-0.396-1.919-2.076-1.951-3.872
																											c-0.017-0.907,0.181-1.769,0.509-2.481c0.311-0.726,0.787-1.231,1.318-1.32
																											c0.529-0.117,0.901,0.204,1.02,0.485c0.131,0.28,0.066,0.478,0.119,0.496
																											c0.028,0.025,0.215-0.165,0.139-0.577c-0.039-0.199-0.154-0.435-0.386-0.628
																											c-0.237-0.197-0.588-0.299-0.957-0.263c-0.769,0.046-1.467,0.746-1.828,1.528
																											c-0.403,0.784-0.647,1.753-0.628,2.772c0.045,2.008,1.055,3.897,2.492,4.327
																											c0.699,0.19,1.286-0.017,1.59-0.249C101.137,286.669,101.191,286.447,101.157,286.428z"/>
																									</g>
																								</g>
																							</g>
																						</g>
																					</g>
																				</g>
																			</g>
																		</g>
																	</g>
																</g>
															</g>
														</g>
													</g>
												</g>
											</g>
										</g>
									</g>
								</g>
							</g>
						</g>
					</g>
					<g>
						<g>
							<g>
								<g>
									<g>
										<g>
											<g>
												<path style="fill:#455A64;" d="M100.254,271.151c0.008,0.014,0.215-0.102,0.602-0.336
													c0.381-0.242,0.969-0.565,1.671-1.062c1.393-1.007,3.324-2.602,5.379-4.896c2.068-2.282,4.232-5.242,6.578-8.546
													c2.351-3.296,4.932-6.944,8.223-10.239c1.676-1.609,3.438-3.054,5.306-4.193c1.864-1.148,3.816-1.993,5.732-2.601
													c3.837-1.234,7.521-1.505,10.555-1.296c3.047,0.191,5.458,0.838,7.071,1.386c0.819,0.249,1.424,0.524,1.845,0.684
													c0.42,0.165,0.644,0.245,0.651,0.23c0.007-0.014-0.205-0.122-0.614-0.314c-0.411-0.188-1.008-0.491-1.824-0.767
													c-1.606-0.603-4.027-1.305-7.106-1.54c-3.066-0.252-6.803-0.014-10.705,1.217c-1.948,0.607-3.937,1.457-5.836,2.619
													c-1.906,1.154-3.697,2.62-5.394,4.25c-3.331,3.335-5.913,7.012-8.245,10.321c-2.328,3.318-4.454,6.281-6.477,8.575
													c-2.01,2.305-3.891,3.922-5.243,4.967c-0.681,0.515-1.251,0.86-1.615,1.127
													C100.437,270.996,100.246,271.138,100.254,271.151z"/>
											</g>
										</g>
									</g>
								</g>
							</g>
						</g>
					</g>
					<g>
						<g>
							<g>
								<g>
									<g>
										<g>
											<g>
												<path style="fill:#FFFFFF;" d="M100.024,288.19c-0.97-0.181-2.022,0.495-2.262,1.452
													c-0.241,0.957,0.368,2.049,1.308,2.348c0.94,0.3,2.068-0.239,2.425-1.159c0.357-0.92-0.11-2.079-1.006-2.493"/>
											</g>
										</g>
									</g>
								</g>
							</g>
						</g>
						<g>
							<g>
								<g>
									<g>
										<g>
											<g>
												<g>
													<path style="fill:#263238;" d="M100.49,288.338c-0.058,0.059,0.65,0.345,0.896,1.339
														c0.116,0.474,0.052,1.104-0.389,1.564c-0.418,0.46-1.175,0.746-1.857,0.533c-0.679-0.221-1.132-0.892-1.207-1.509
														c-0.094-0.631,0.218-1.181,0.587-1.501c0.775-0.668,1.518-0.492,1.505-0.573c0.006-0.025-0.153-0.103-0.467-0.11
														c-0.309-0.007-0.783,0.087-1.243,0.435c-0.452,0.327-0.891,1-0.799,1.797c0.073,0.766,0.595,1.599,1.486,1.895
														c0.898,0.272,1.805-0.104,2.308-0.687c0.536-0.597,0.567-1.399,0.388-1.928c-0.174-0.55-0.506-0.901-0.763-1.074
														C100.674,288.342,100.498,288.314,100.49,288.338z"/>
												</g>
											</g>
										</g>
									</g>
								</g>
							</g>
						</g>
					</g>
				</g>
				<g>
					<g>
						<g>
							<path style="fill:#263238;" d="M102.76,273.971c-0.156,2.721-0.282,5.595,0.976,8.013c1.257,2.418,4.428,4.063,6.795,2.711
								c1.93-1.103,2.508-3.575,2.835-5.774c0.945-6.346,1.378-12.762,2.378-19.099L102.76,273.971z"/>
						</g>
					</g>
				</g>
				<g>
					<g>
						<g>
							<g>
								<path style="fill:#455A64;" d="M153.221,240.739c-0.011,0.058-0.88-0.166-2.477-0.217c-1.587-0.043-3.933,0.167-6.594,1.205
									c-1.325,0.516-2.736,1.202-4.131,2.127c-1.398,0.923-2.822,2.029-4.262,3.254c-2.859,2.47-5.819,5.441-8.344,8.995
									c-1.265,1.777-2.387,3.605-3.601,5.297c-1.203,1.698-2.542,3.231-3.995,4.492c-2.897,2.517-5.88,4.281-8.42,5.633
									c-2.549,1.348-4.68,2.291-6.15,2.944c-0.695,0.296-1.259,0.536-1.704,0.726c-0.392,0.16-0.602,0.235-0.61,0.217
									c-0.008-0.018,0.186-0.127,0.563-0.32c0.434-0.215,0.983-0.487,1.66-0.821c1.44-0.712,3.543-1.71,6.054-3.094
									c2.502-1.389,5.435-3.173,8.268-5.672c1.411-1.243,2.707-2.742,3.89-4.424c1.193-1.674,2.312-3.504,3.591-5.302
									c2.562-3.605,5.562-6.591,8.466-9.063c1.464-1.227,2.908-2.327,4.344-3.251c1.435-0.927,2.884-1.606,4.244-2.108
									c2.732-1.01,5.134-1.163,6.742-1.052c0.808,0.053,1.43,0.161,1.844,0.257C153.011,240.66,153.225,240.72,153.221,240.739z"
									/>
							</g>
						</g>
					</g>
				</g>
				<g>
					<g>
						<g>
							<g>
								<path style="fill:#455A64;" d="M102.484,267.816c0.016,0.03-0.296,0.238-0.881,0.595c-0.683,0.401-1.523,0.894-2.523,1.481
									c-0.273,0.157-0.556,0.319-0.85,0.487c-0.317,0.174-0.667,0.327-1.09,0.361c-0.208,0.012-0.456-0.007-0.674-0.159
									c-0.217-0.146-0.356-0.395-0.373-0.657c-0.02-0.523,0.26-0.908,0.471-1.26c0.898-1.438,1.883-3.015,2.929-4.689l0.394,0.367
									c-0.934,0.693-2.022,1.245-3.202,1.597c-1.184,0.354-2.402,0.489-3.566,0.42c-0.285-0.009-0.607-0.048-0.904-0.155
									c-0.291-0.103-0.63-0.302-0.773-0.674c-0.148-0.364-0.009-0.767,0.167-1.007c0.174-0.257,0.389-0.444,0.568-0.624
									c1.481-1.432,2.591-2.942,3.393-4.28c1.599-2.695,2.054-4.627,2.158-4.589c0.032,0.009-0.052,0.493-0.314,1.341
									c-0.27,0.843-0.723,2.055-1.502,3.446c-0.773,1.389-1.875,2.959-3.375,4.45c-0.372,0.352-0.74,0.757-0.597,1.071
									c0.118,0.314,0.685,0.468,1.208,0.472c1.101,0.058,2.253-0.073,3.375-0.409c1.118-0.334,2.15-0.853,3.037-1.502l1.189-0.87
									l-0.795,1.238c-1.067,1.661-2.072,3.225-2.988,4.652c-0.23,0.344-0.437,0.685-0.424,0.973
									c0.013,0.283,0.254,0.449,0.574,0.424c0.646-0.033,1.23-0.472,1.791-0.738c1.032-0.53,1.898-0.976,2.602-1.338
									C102.125,267.939,102.468,267.787,102.484,267.816z"/>
							</g>
						</g>
					</g>
				</g>
			</g>
			<g>
				<g>
					<path style="fill:#EB996E;" d="M131.949,294.378c0.339-1.52,1.893-2.685,3.442-2.529c1.137,0.114,2.163,0.884,2.678,1.904
						c0.515,1.02,0.537,2.256,0.152,3.331l-0.054,0.239c-1.045,1.154-2.855,1.559-4.269,0.908
						C132.484,297.582,131.611,295.898,131.949,294.378z"/>
				</g>
			</g>
			<g>
				<g>
					<g>
						<g>
							<g>
								<g>
									<g>
										<g>
											<g>
												<g>
													<path style="fill:#263238;" d="M140.018,297.378c0.003-0.388-2.578-0.264-4.52-2.382
														c-1.948-2.114-1.795-4.88-2.157-4.883c-0.164-0.028-0.471,0.638-0.445,1.801c0.018,1.141,0.466,2.787,1.654,4.083
														c1.191,1.292,2.719,1.797,3.783,1.832C139.417,297.873,140.042,297.554,140.018,297.378z"/>
												</g>
											</g>
										</g>
									</g>
								</g>
							</g>
						</g>
					</g>
				</g>
			</g>
		</g>
		<g>
			<g>
				<g>
					<g>
						<polygon style="fill:#FFBE9D;" points="89.903,326.591 107.68,324.012 143.24,329.274 153.221,332.802 151.451,354.625 
							117.263,360.922 94.191,354.086 85.47,341.253 						"/>
					</g>
				</g>
			</g>
			<g>
				<g>
					<g>
						<g>
							<path style="fill:#FF725E;" d="M78.7,328.676l14.877-3.505c0,0,10.517,32.516,36.476,31.116
								c21.157-1.141,21.398-24.756,21.398-24.756l15.249,4.883c0,0,5.832,39.11-0.624,66.816
								c-1.508,6.474-3.528,15.201-3.528,15.201l2.062,40.483l-112.764,0.18L78.7,328.676L78.7,328.676z"/>
						</g>
					</g>
				</g>
				<g style="opacity:0.3;">
					<g>
						<g>
							<path d="M122.904,451.055c-5.486-0.135-10.552,0.329-16.039,0.193c-6.586-0.163-13.219-0.322-19.72,0.75
								c-4.871,0.803-9.612,2.289-14.489,3.058c-6.646,1.048-13.746,0.674-19.664-2.528l0.954-5.522l22.47-5.409L122.904,451.055z"
								/>
						</g>
					</g>
				</g>
				<g>
					<g>
						<g>
							<path style="fill:#FF725E;" d="M179.43,345.526c-5.157-6.662-13.733-9.432-13.733-9.432l-5.767,50.225l10.926,73.128
								l35.786-0.17C206.641,459.277,186.903,355.181,179.43,345.526z"/>
						</g>
					</g>
				</g>
				<g>
					<g>
						<g>
							<path style="fill:#FF725E;" d="M80.438,328.306c0,0-24.087,1.93-32.729,41.392c-3.909,17.85-8.848,38.769-10.272,52.828
								c-1.032,10.197,4.51,26.162,14.676,27.467l12.782,1.717c2.507,0.337,5.063,0.288,7.529-0.278
								c8.072-1.854,8.894-7.393,10.316-13.279l3.731-11.777c2.04-11.2-8.394-13.288-14.157-13.164l4.297-51.12L80.438,328.306z"/>
						</g>
					</g>
				</g>
				<g>
					<g>
						<g>
							<g>
								<path style="fill:#263238;" d="M168.679,364.017c0.013-0.002,0.051,0.188,0.11,0.55c0.061,0.4,0.142,0.929,0.242,1.59
									c0.051,0.35,0.106,0.734,0.166,1.151c0.043,0.426,0.09,0.885,0.14,1.376c0.1,0.988,0.22,2.112,0.272,3.361
									c0.183,2.494,0.179,5.476,0.059,8.778c-0.14,3.304-0.514,6.923-1.066,10.695c-0.553,3.775-1.249,7.342-1.956,10.568
									c-0.693,3.229-1.404,6.117-2.004,8.54c-0.613,2.42-1.121,4.375-1.49,5.721c-0.179,0.644-0.322,1.159-0.43,1.549
									c-0.103,0.353-0.163,0.537-0.175,0.534c-0.013-0.003,0.022-0.194,0.1-0.553c0.091-0.394,0.211-0.915,0.36-1.566
									c0.333-1.398,0.799-3.352,1.37-5.749c0.566-2.43,1.248-5.322,1.921-8.55c0.687-3.225,1.37-6.787,1.922-10.55
									c0.551-3.761,0.935-7.366,1.093-10.656c0.139-3.289,0.171-6.259,0.023-8.747c-0.034-1.246-0.136-2.369-0.215-3.356
									c-0.039-0.491-0.075-0.95-0.108-1.376c-0.048-0.418-0.092-0.802-0.132-1.153c-0.071-0.664-0.128-1.195-0.17-1.598
									C168.678,364.213,168.666,364.019,168.679,364.017z"/>
							</g>
						</g>
					</g>
				</g>
				<g>
					<g>
						<g>
							<g>
								<path style="fill:#263238;" d="M53.416,427.045c-0.022-0.005,0.031-0.361,0.191-0.993c0.158-0.631,0.45-1.532,0.931-2.596
									c0.942-2.121,2.803-4.896,5.709-7.012c2.907-2.116,6.121-3.033,8.429-3.278c1.16-0.13,2.107-0.131,2.756-0.087
									c0.65,0.042,1.005,0.101,1.003,0.124c-0.002,0.08-1.442-0.09-3.724,0.234c-2.266,0.31-5.395,1.251-8.237,3.319
									c-2.841,2.068-4.698,4.756-5.69,6.817C53.773,425.645,53.492,427.068,53.416,427.045z"/>
							</g>
						</g>
					</g>
				</g>
				<g>
					<g>
						<g>
							<g>
								<path style="fill:#263238;" d="M58.984,407.387c0-0.027,0.207-0.045,0.582-0.055c0.375-0.015,0.919,0.006,1.588,0.07
									c1.337,0.125,3.177,0.499,5.082,1.28c1.903,0.786,3.475,1.815,4.513,2.667c0.52,0.425,0.922,0.792,1.178,1.067
									c0.26,0.271,0.394,0.429,0.375,0.448c-0.045,0.047-0.651-0.515-1.719-1.299c-1.066-0.785-2.627-1.755-4.493-2.526
									c-1.868-0.765-3.66-1.173-4.97-1.365C59.809,407.478,58.983,407.452,58.984,407.387z"/>
							</g>
						</g>
					</g>
				</g>
				<g>
					<g>
						<g>
							<g>
								<path style="fill:#263238;" d="M83.919,356.288c-0.027-0.001-0.046-0.377-0.058-1.055c-0.005-0.678-0.044-1.658-0.127-2.865
									c-0.161-2.414-0.61-5.739-1.603-9.295c-1.003-3.554-2.351-6.628-3.469-8.773c-0.557-1.074-1.034-1.931-1.383-2.513
									c-0.342-0.585-0.521-0.917-0.499-0.931c0.022-0.015,0.244,0.289,0.626,0.852c0.389,0.559,0.904,1.399,1.496,2.464
									c1.187,2.125,2.588,5.211,3.6,8.797c1.002,3.587,1.412,6.952,1.504,9.384c0.049,1.217,0.046,2.203,0.005,2.882
									C83.977,355.914,83.945,356.289,83.919,356.288z"/>
							</g>
						</g>
					</g>
				</g>
				<g>
					<g>
						<g>
							<g>
								<path style="fill:#263238;" d="M130.053,392.115c0.013,0.004-0.025,0.147-0.108,0.416c-0.091,0.266-0.196,0.67-0.4,1.164
									c-0.371,1.003-1.012,2.421-2.007,4.06c-0.991,1.639-2.383,3.473-4.21,5.236c-1.822,1.764-4.106,3.427-6.744,4.71
									c-2.652,1.258-5.378,2-7.895,2.319c-2.519,0.324-4.821,0.263-6.72,0.012c-1.901-0.248-3.409-0.635-4.423-0.972
									c-0.513-0.151-0.894-0.321-1.158-0.416c-0.262-0.103-0.397-0.163-0.392-0.175c0.012-0.032,0.571,0.159,1.594,0.448
									c1.022,0.292,2.526,0.634,4.412,0.845c3.74,0.444,9.173,0.106,14.416-2.407c5.238-2.52,8.899-6.547,10.89-9.744
									c1.014-1.603,1.688-2.992,2.099-3.972C129.82,392.66,130.02,392.104,130.053,392.115z"/>
							</g>
						</g>
					</g>
				</g>
				<g>
					<g>
						<g>
							<g>
								<path style="fill:#263238;" d="M79.289,447.633c-0.04-0.034-0.418,0.503-1.316,1.244c-0.903,0.728-2.396,1.572-4.409,2.104
									c-2.005,0.551-4.505,0.778-7.254,0.638c-2.751-0.199-5.786-0.521-8.94-0.989c-3.145-0.489-6.165-1.055-8.726-2.011
									c-1.258-0.522-2.311-1.321-3.207-2.141c-0.894-0.829-1.634-1.703-2.242-2.547c-1.222-1.688-1.982-3.21-2.461-4.272
									c-0.23-0.537-0.409-0.954-0.516-1.243c-0.114-0.287-0.179-0.435-0.192-0.431c-0.013,0.004,0.029,0.161,0.119,0.457
									c0.084,0.298,0.242,0.726,0.451,1.276c0.44,1.088,1.168,2.642,2.378,4.373c0.602,0.865,1.342,1.764,2.245,2.621
									c0.906,0.848,1.98,1.68,3.285,2.234c2.632,1.003,5.641,1.571,8.808,2.065c3.172,0.471,6.202,0.782,8.979,0.963
									c2.783,0.123,5.314-0.135,7.345-0.73c2.037-0.575,3.543-1.475,4.432-2.251c0.432-0.405,0.759-0.725,0.94-0.979
									C79.203,447.771,79.299,447.641,79.289,447.633z"/>
							</g>
						</g>
					</g>
				</g>
				<g>
					<g>
						<g>
							<g>
								<path style="fill:#263238;" d="M83.264,368.865c-0.103-0.026-2.643,9.835-5.672,22.022
									c-3.03,12.191-5.402,22.091-5.298,22.117c0.103,0.026,2.642-9.833,5.672-22.024
									C80.995,378.793,83.367,368.891,83.264,368.865z"/>
							</g>
						</g>
					</g>
				</g>
				<g>
					<g>
						<g>
							<g>
								<path style="fill:#263238;" d="M86.331,424.514c0.026,0.002,0.072-0.286,0.122-0.811c0.045-0.524,0.117-1.286,0.051-2.239
									c-0.055-0.95-0.378-2.1-1.082-3.159c-0.35-0.525-0.737-1.064-1.236-1.553c-0.494-0.489-1.082-0.907-1.712-1.274
									c-2.565-1.396-5.15-1.979-7.011-2.263c-0.935-0.133-1.699-0.184-2.226-0.198c-0.527-0.015-0.819,0.006-0.82,0.03
									c-0.003,0.064,1.161,0.108,3.001,0.437c1.822,0.345,4.377,0.974,6.863,2.328c0.608,0.354,1.17,0.752,1.641,1.211
									c0.471,0.453,0.857,0.976,1.202,1.476c0.691,1.008,1.018,2.071,1.108,2.991c0.098,0.92,0.069,1.682,0.07,2.206
									C86.3,424.221,86.304,424.513,86.331,424.514z"/>
							</g>
						</g>
					</g>
				</g>
				<g style="opacity:0.3;">
					<g>
						<g>
							<g>
								<path d="M167.57,397.151c6.145-10.407,6.276-23.931,0.916-34.763c1.6,11.535,1.469,23.358-1.097,34.717"/>
							</g>
						</g>
					</g>
				</g>
			</g>
			<g>
				<g>
					<g>
						<g>
							<g>
								<path style="fill:#FFBE9D;" d="M135.043,423.132c-0.014,0.007-0.028,0.013-0.044,0.021
									C135.013,423.146,135.028,423.139,135.043,423.132z"/>
							</g>
						</g>
					</g>
					<g>
						<g>
							<g>
								<path style="fill:#FFBE9D;" d="M134.779,423.258c-0.035,0.017-0.067,0.032-0.098,0.047
									C134.71,423.291,134.741,423.276,134.779,423.258z"/>
							</g>
						</g>
					</g>
					<g>
						<g>
							<g>
								<path style="fill:#FFBE9D;" d="M134.999,423.153c-0.086,0.041-0.161,0.077-0.22,0.105
									C134.855,423.222,134.933,423.184,134.999,423.153z"/>
							</g>
						</g>
					</g>
					<g>
						<g>
							<g>
								<path style="fill:#FFBE9D;" d="M135.14,423.086c-0.037,0.018-0.064,0.031-0.097,0.046
									C135.1,423.105,135.14,423.086,135.14,423.086z"/>
							</g>
						</g>
					</g>
					<g>
						<g>
							<g>
								<path style="fill:#FFBE9D;" d="M157.766,443.869c-1.933-3.657-17.046-13.303-17.046-13.303l4.091-0.945l4.516,1.91
									c0,0,0.283,1.862,1.944,4.231c1.661,2.369,4.48-0.081,4.48-0.081l-1.908-9.148l-8.936-5.379c0,0-8.408,1.285-9.765,1.932
									l-3.585,3.281c-1.573,1.232-6.114,6.095-7.356,6.242c-1.242,0.147-40.249-8.628-40.249-8.628l0,0
									c-5.348,4.235-8.166,12.649-9.015,18.718c0,0-0.951,2.982,0.083,4.6l47.884,3.758l10.146,2.804c0,0,5.614,2.292,8.337,2.864
									c3.376,0.709,5.65-0.379,5.741-2.248c0.091-1.869-2.527-2.07-2.527-2.07s-4.26-1.541-6.525-2.87
									c-2.265-1.328-3.683-4.041-3.683-4.041l3.618,0.433c0,0,7.69,5.338,10.582,6.904c2.891,1.566,3.462-1.307,3.695-2.183
									c0.233-0.876-8.638-9.553-8.638-9.553s8.435,5.2,9.952,6.512c1.518,1.312,3.766,1.704,4.248,0.824
									C158.33,447.551,159.699,447.526,157.766,443.869z"/>
							</g>
						</g>
					</g>
					<g>
						<g>
							<g>
								<path style="fill:#FFBE9D;" d="M134.682,423.304c-0.036,0.017-0.064,0.03-0.085,0.04
									C134.62,423.333,134.649,423.32,134.682,423.304z"/>
							</g>
						</g>
					</g>
					<g>
						<g>
							<g>
								<path style="fill:#FFBE9D;" d="M134.55,423.367C134.537,423.373,134.537,423.373,134.55,423.367L134.55,423.367z"/>
							</g>
						</g>
					</g>
					<g>
						<g>
							<g>
								<path style="fill:#FFBE9D;" d="M134.597,423.345c-0.02,0.01-0.037,0.017-0.047,0.022
									C134.559,423.363,134.574,423.355,134.597,423.345z"/>
							</g>
						</g>
					</g>
				</g>
				<g>
					<g>
						<g>
							<g>
								<path style="fill:#EB996E;" d="M116.151,444.715c-0.024,0-0.04-0.209-0.045-0.593c-0.012-0.193,0.007-0.426,0.046-0.697
									c0.026-0.273,0.074-0.58,0.166-0.912c0.302-1.347,1.167-3.079,2.451-4.724c1.283-1.65,2.664-2.943,3.689-3.834
									c1.03-0.889,1.712-1.382,1.741-1.348c0.034,0.041-0.59,0.602-1.572,1.533c-0.977,0.934-2.316,2.243-3.577,3.865
									c-1.263,1.619-2.135,3.28-2.489,4.572C116.186,443.866,116.225,444.717,116.151,444.715z"/>
							</g>
						</g>
					</g>
				</g>
				<g>
					<g>
						<g>
							<g>
								<path style="fill:#EB996E;" d="M140.37,430.28c0.015,0.088-1.191,0.241-2.579-0.232c-1.393-0.461-2.261-1.31-2.196-1.372
									c0.065-0.085,0.988,0.6,2.309,1.035C139.22,430.163,140.37,430.173,140.37,430.28z"/>
							</g>
						</g>
					</g>
				</g>
				<g>
					<g>
						<g>
							<g>
								<path style="fill:#EB996E;" d="M142.882,440.296c-0.037,0.091-1.76-0.532-3.847-1.391c-2.088-0.859-3.75-1.628-3.712-1.719
									c0.037-0.091,1.759,0.532,3.847,1.391C141.257,439.436,142.919,440.205,142.882,440.296z"/>
							</g>
						</g>
					</g>
				</g>
				<g>
					<g>
						<g>
							<g>
								<path style="fill:#EB996E;" d="M134.778,445.412c-0.047,0.089-0.905-0.282-1.973-0.697
									c-1.067-0.419-1.949-0.728-1.923-0.825c0.023-0.092,0.963,0.067,2.052,0.495
									C134.025,444.809,134.824,445.329,134.778,445.412z"/>
							</g>
						</g>
					</g>
				</g>
				<g>
					<g>
						<g>
							<g>
								<path style="fill:#EB996E;" d="M141.638,440.963c0.038,0.098-0.838,0.423-1.492,1.303c-0.674,0.866-0.753,1.797-0.858,1.786
									c-0.044-0.001-0.089-0.24-0.03-0.623c0.057-0.382,0.245-0.901,0.605-1.377c0.362-0.474,0.813-0.793,1.165-0.95
									C141.383,440.942,141.625,440.922,141.638,440.963z"/>
							</g>
						</g>
					</g>
				</g>
				<g>
					<g>
						<g>
							<g>
								<path style="fill:#EB996E;" d="M145.187,435.373c0.046,0.092-0.615,0.451-1.051,1.217c-0.454,0.756-0.44,1.508-0.544,1.513
									c-0.09,0.033-0.278-0.821,0.238-1.692C144.335,435.535,145.171,435.279,145.187,435.373z"/>
							</g>
						</g>
					</g>
				</g>
				<g>
					<g>
						<g>
							<g>
								<path style="fill:#EB996E;" d="M143.983,425.388c-0.039,0.019-0.177-0.148-0.283-0.476
									c-0.106-0.325-0.153-0.816-0.029-1.332c0.125-0.515,0.392-0.931,0.635-1.172c0.244-0.244,0.443-0.329,0.469-0.294
									c0.068,0.078-0.547,0.618-0.759,1.549C143.779,424.588,144.079,425.35,143.983,425.388z"/>
							</g>
						</g>
					</g>
				</g>
				<g>
					<g>
						<g>
							<g>
								<path style="fill:#263238;" d="M74.595,448.669c0.026-0.001,0.048-0.393,0.064-1.1c0.004-0.354,0.014-0.786,0.05-1.287
									c0.033-0.501,0.045-1.072,0.119-1.699c0.218-2.51,0.778-5.977,2.09-9.595c0.666-1.803,1.455-3.459,2.269-4.911
									c0.439-0.706,0.825-1.399,1.266-1.994c0.212-0.302,0.417-0.595,0.615-0.877c0.213-0.268,0.418-0.526,0.615-0.774
									c1.59-1.957,2.809-2.957,2.752-3.02c-0.017-0.02-0.322,0.226-0.859,0.692c-0.274,0.227-0.596,0.52-0.941,0.89
									c-0.351,0.363-0.766,0.765-1.162,1.264c-0.205,0.246-0.419,0.502-0.641,0.767c-0.213,0.275-0.419,0.572-0.64,0.874
									c-0.458,0.595-0.859,1.289-1.312,1.999c-0.841,1.46-1.65,3.132-2.324,4.957c-1.328,3.661-1.851,7.174-2,9.707
									c-0.056,0.633-0.05,1.209-0.062,1.713c-0.016,0.505-0.004,0.939,0.015,1.294C74.539,448.279,74.568,448.67,74.595,448.669z"
									/>
							</g>
						</g>
					</g>
				</g>
			</g>
			<g style="opacity:0.3;">
				<g>
					<g>
						<path d="M58.165,414.453c4.415-1.844,9.573-2.316,14.19-1.29h0c-8.289-0.507-16.283,4.792-19.147,12.382
							c-0.347,0.92-1.028,2.005-2,1.861c-0.905-0.134-1.243-1.267-1.243-2.183C49.96,420.438,53.75,416.298,58.165,414.453z"/>
					</g>
				</g>
			</g>
			<g>
				<g>
					<g>
						<path style="fill:#FFFFFF;" d="M168.968,360.633c0.011,0.024,0.238-0.053,0.64-0.215c0.403-0.159,0.974-0.418,1.668-0.763
							c1.388-0.688,3.25-1.764,5.156-3.17c1.904-1.41,3.48-2.874,4.545-3.999c0.533-0.562,0.949-1.032,1.219-1.371
							c0.273-0.337,0.413-0.531,0.393-0.548c-0.046-0.04-0.697,0.659-1.805,1.727c-1.107,1.069-2.695,2.485-4.581,3.881
							c-1.888,1.392-3.708,2.494-5.054,3.239C169.802,360.161,168.943,360.578,168.968,360.633z"/>
					</g>
				</g>
			</g>
			<g>
				<g>
					<g>
						<path style="fill:#FFFFFF;" d="M83.572,363.421c-0.003,0.006,0.06,0.049,0.187,0.127c0.146,0.088,0.333,0.2,0.567,0.34
							c0.497,0.303,1.249,0.715,2.226,1.23c1.959,1.02,4.876,2.354,8.621,3.626c3.743,1.269,8.322,2.433,13.486,3.242
							c5.163,0.816,10.902,1.26,16.926,1.405c6.027,0.144,11.766,0.031,16.984-0.087c5.219-0.126,9.922-0.455,13.832-1.044
							c3.912-0.585,7.016-1.409,9.109-2.116c1.047-0.355,1.851-0.652,2.385-0.883c0.252-0.105,0.453-0.189,0.61-0.255
							c0.137-0.059,0.205-0.093,0.203-0.099c-0.003-0.006-0.076,0.015-0.218,0.062c-0.161,0.056-0.366,0.128-0.623,0.219
							c-0.542,0.208-1.353,0.482-2.403,0.813c-2.101,0.661-5.201,1.44-9.102,1.989c-3.901,0.553-8.589,0.853-13.801,0.959
							c-5.214,0.098-10.951,0.201-16.965,0.057c-6.011-0.145-11.733-0.577-16.881-1.371c-5.148-0.787-9.714-1.919-13.454-3.15
							c-3.741-1.234-6.665-2.525-8.64-3.502c-0.985-0.494-1.748-0.883-2.256-1.164c-0.242-0.126-0.435-0.227-0.586-0.306
							C83.645,363.447,83.575,363.415,83.572,363.421z"/>
					</g>
				</g>
			</g>
			<g>
				<g>
					<g>
						<path style="fill:#FFFFFF;" d="M168.708,389.757c0.007,0.026,0.334-0.046,0.917-0.196c0.657-0.18,1.481-0.405,2.462-0.672
							c2.074-0.584,4.931-1.416,8.08-2.358c3.15-0.942,5.995-1.816,8.049-2.467c0.966-0.314,1.779-0.579,2.426-0.79
							c0.57-0.195,0.882-0.314,0.874-0.34c-0.008-0.026-0.334,0.046-0.918,0.196c-0.657,0.179-1.481,0.405-2.462,0.673
							c-2.074,0.584-4.931,1.416-8.081,2.358c-3.149,0.942-5.993,1.815-8.047,2.466c-0.967,0.315-1.779,0.579-2.427,0.79
							C169.012,389.611,168.7,389.731,168.708,389.757z"/>
					</g>
				</g>
			</g>
			<g>
				<g>
					<g>
						<path style="fill:#FFFFFF;" d="M166.555,430.668c0.03,0.102,7.417-2.018,16.497-4.733c9.083-2.717,16.418-5.001,16.388-5.103
							c-0.031-0.102-7.416,2.017-16.498,4.734C173.862,428.281,166.525,430.566,166.555,430.668z"/>
					</g>
				</g>
			</g>
			<g>
				<g>
					<g>
						<path style="fill:#FFFFFF;" d="M59.637,342.212c-0.015,0.022,0.276,0.249,0.815,0.643c0.537,0.396,1.334,0.942,2.334,1.593
							c1.998,1.303,4.842,2.985,8.111,4.593c3.273,1.605,6.342,2.827,8.595,3.611c1.126,0.393,2.045,0.69,2.687,0.873
							c0.641,0.186,0.998,0.277,1.006,0.252c0.008-0.025-0.334-0.164-0.959-0.394c-0.693-0.259-1.579-0.59-2.64-0.986
							c-2.222-0.848-5.261-2.104-8.52-3.702c-3.255-1.601-6.107-3.238-8.136-4.478c-0.963-0.598-1.766-1.097-2.395-1.487
							C59.972,342.376,59.652,342.19,59.637,342.212z"/>
					</g>
				</g>
			</g>
			<g>
				<g>
					<g>
						<path style="fill:#FFFFFF;" d="M44.902,384.242c-0.01,0.025,0.417,0.226,1.2,0.569c0.781,0.349,1.93,0.809,3.365,1.337
							c2.869,1.058,6.922,2.303,11.503,3.218c4.585,0.908,8.806,1.307,11.861,1.428c1.528,0.062,2.766,0.077,3.621,0.054
							c0.855-0.017,1.327-0.039,1.327-0.066c0-0.027-0.472-0.055-1.325-0.084c-0.853-0.023-2.086-0.079-3.607-0.176
							c-3.042-0.19-7.237-0.63-11.801-1.534c-4.561-0.91-8.605-2.107-11.488-3.096c-1.442-0.493-2.603-0.913-3.4-1.219
							C45.359,384.372,44.912,384.217,44.902,384.242z"/>
					</g>
				</g>
			</g>
			<g>
				<g>
					<g>
						<path style="fill:#FFFFFF;" d="M66.204,451.474c0.013-0.003-0.001-0.145-0.038-0.413c-0.049-0.309-0.109-0.694-0.183-1.166
							c-0.091-0.504-0.191-1.121-0.259-1.845c-0.075-0.723-0.202-1.541-0.235-2.455c-0.028-0.457-0.057-0.935-0.087-1.431
							c-0.028-0.498-0.012-1.017-0.021-1.554c-0.034-1.074,0.046-2.22,0.102-3.426c0.187-2.406,0.552-5.041,1.192-7.753
							c0.668-2.707,1.546-5.218,2.479-7.444c0.501-1.098,0.953-2.154,1.474-3.095c0.253-0.474,0.476-0.943,0.728-1.373
							c0.253-0.428,0.497-0.84,0.731-1.234c0.446-0.799,0.933-1.468,1.33-2.077c0.391-0.613,0.762-1.117,1.073-1.523
							c0.281-0.385,0.511-0.701,0.695-0.953c0.156-0.221,0.233-0.341,0.222-0.35c-0.01-0.008-0.107,0.095-0.283,0.301
							c-0.2,0.242-0.449,0.543-0.754,0.911c-0.33,0.394-0.72,0.887-1.13,1.491c-0.415,0.6-0.921,1.263-1.385,2.057
							c-0.242,0.393-0.494,0.803-0.757,1.229c-0.26,0.429-0.492,0.898-0.752,1.372c-0.536,0.941-1.003,1.999-1.517,3.103
							c-0.958,2.236-1.854,4.766-2.528,7.495c-0.646,2.735-1.004,5.394-1.172,7.82c-0.047,1.216-0.114,2.37-0.067,3.452
							c0.016,0.54,0.007,1.063,0.043,1.564c0.039,0.499,0.076,0.979,0.112,1.439c0.05,0.919,0.197,1.74,0.293,2.463
							c0.089,0.725,0.211,1.342,0.325,1.843c0.103,0.467,0.187,0.849,0.254,1.155C66.152,451.34,66.191,451.477,66.204,451.474z"/>
					</g>
				</g>
			</g>
			<g>
				<g>
					<g>
						<path style="fill:#FFFFFF;" d="M37.624,428.798c0.042,0.002,0.061-0.602,0.229-1.668c0.158-1.067,0.578-2.592,1.452-4.309
							c0.863-1.722,2.275-3.577,4.18-5.268c1.909-1.682,4.336-3.175,7.106-4.158c2.783-0.963,5.593-1.35,8.145-1.436
							c2.556-0.088,4.864,0.074,6.794,0.254c1.931,0.182,3.491,0.375,4.571,0.498c0.506,0.055,0.918,0.099,1.244,0.134
							c0.285,0.027,0.436,0.034,0.437,0.021c0.002-0.013-0.145-0.047-0.427-0.098c-0.324-0.054-0.732-0.122-1.235-0.206
							c-1.074-0.169-2.63-0.403-4.563-0.621c-1.933-0.216-4.251-0.408-6.833-0.338c-2.577,0.068-5.43,0.448-8.26,1.427
							c-2.822,1.001-5.286,2.53-7.215,4.256c-1.926,1.735-3.34,3.643-4.188,5.411c-0.858,1.763-1.243,3.325-1.357,4.41
							c-0.096,0.538-0.065,0.968-0.088,1.253C37.609,428.647,37.611,428.797,37.624,428.798z"/>
					</g>
				</g>
			</g>
			<g>
				<g>
					<g>
						<path style="fill:#FFFFFF;" d="M117.209,407.386c-0.001,0.013,0.143,0.037,0.418,0.07c0.318,0.033,0.716,0.074,1.205,0.124
							c1.101,0.092,2.604,0.218,4.438,0.372c3.749,0.29,8.931,0.643,14.661,0.942c5.731,0.301,10.925,0.481,14.686,0.521
							c1.881,0.013,3.403,0.02,4.454-0.014c0.491-0.016,0.891-0.028,1.211-0.039c0.277-0.013,0.422-0.026,0.422-0.04
							c0-0.013-0.146-0.026-0.422-0.038c-0.319-0.009-0.72-0.02-1.21-0.034c-1.104-0.027-2.61-0.064-4.449-0.109
							c-3.756-0.11-8.944-0.333-14.672-0.634c-5.702-0.323-10.862-0.614-14.663-0.829c-1.837-0.103-3.342-0.188-4.445-0.25
							c-0.491-0.021-0.891-0.039-1.21-0.052C117.355,407.371,117.209,407.373,117.209,407.386z"/>
					</g>
				</g>
			</g>
			<g style="opacity:0.3;">
				<g>
					<g>
						<g>
							<path d="M112.91,408.922c-4.663,1.371-11.121,1.706-15.662-0.025c3.555,5.046,10.412,6.876,16.362,5.232
								s11.437-7.599,11.896-13.755C122.624,404.288,117.573,407.551,112.91,408.922z"/>
						</g>
					</g>
				</g>
			</g>
			<g>
				<g>
					<g>
						<path style="fill:#FFFFFF;" d="M75.119,404.046c-0.002,0.013,0.125,0.049,0.371,0.105c0.289,0.061,0.645,0.137,1.077,0.228
							c0.936,0.192,2.295,0.446,3.978,0.741c3.365,0.591,8.031,1.316,13.207,1.95c5.178,0.632,9.882,1.052,13.29,1.289
							c1.704,0.119,3.084,0.2,4.039,0.239c0.441,0.015,0.804,0.027,1.1,0.038c0.252,0.004,0.384,0,0.385-0.013
							c0.001-0.013-0.13-0.035-0.38-0.064c-0.294-0.029-0.656-0.066-1.094-0.11c-1.008-0.09-2.37-0.212-4.028-0.361
							c-3.4-0.306-8.094-0.769-13.265-1.4c-5.169-0.633-9.836-1.315-13.21-1.836c-1.644-0.255-2.996-0.465-3.996-0.62
							c-0.437-0.063-0.796-0.115-1.089-0.157C75.254,404.043,75.121,404.033,75.119,404.046z"/>
					</g>
				</g>
			</g>
			<g style="opacity:0.3;">
				<g>
					<g>
						<path d="M82.872,371.111c1.167,13.39-2.482,26.679-6.095,39.624c-0.221,0.792-0.457,1.611-0.995,2.233
							c-0.538,0.621-1.471,0.982-2.205,0.611c-1.129-0.57-0.979-2.205-0.659-3.428c3.351-12.831,6.702-25.662,10.054-38.493"/>
					</g>
				</g>
			</g>
		</g>
		<g>
			<g>
				<g>
					<g>
						<g>
							<path style="fill:#E0E0E0;" d="M270.175,384.454l-15.205,74.641H149.569h-26.567c-1.456,0-2.636-1.18-2.636-2.636l0,0
								c0-1.456,1.18-2.636,2.636-2.636h26.567l14.096-69.417c0.27-1.332,1.434-2.293,2.793-2.308l100.861-1.101
								C269.155,380.976,270.541,382.655,270.175,384.454z"/>
						</g>
					</g>
				</g>
				<g>
					<g>
						<g>
							<g>
								<path style="fill:#263238;" d="M270.175,384.454c0,0,0.017-0.075,0.041-0.225c0.024-0.149,0.044-0.378,0.013-0.678
									c-0.053-0.577-0.366-1.546-1.396-2.182c-0.253-0.156-0.55-0.268-0.872-0.346c-0.325-0.073-0.679-0.068-1.038-0.064
									c-0.724,0.005-1.516,0.011-2.374,0.018c-1.718,0.014-3.702,0.031-5.938,0.049c-8.952,0.085-21.946,0.208-38.137,0.362
									c-8.098,0.082-16.995,0.172-26.585,0.268c-4.796,0.049-9.764,0.1-14.893,0.153c-2.564,0.026-5.169,0.053-7.812,0.081
									c-1.321,0.014-2.652,0.028-3.993,0.042c-0.34,0.009-0.659-0.005-1.021,0.025c-0.353,0.037-0.7,0.137-1.019,0.295
									c-0.64,0.313-1.165,0.86-1.449,1.519c-0.148,0.33-0.209,0.689-0.276,1.015l-0.204,1.004
									c-0.137,0.67-0.273,1.343-0.411,2.018c-0.275,1.35-0.551,2.708-0.829,4.075c-0.556,2.734-1.12,5.502-1.69,8.303
									c-1.139,5.602-2.306,11.335-3.496,17.186c-2.379,11.702-4.853,23.876-7.403,36.417l0.177-0.145
									c-4.99,0-10.102-0.001-15.299-0.001c-2.599,0-5.218,0-7.854,0l-1.98,0h-0.992c-0.322,0.003-0.675-0.016-1.027,0.062
									c-0.696,0.143-1.326,0.567-1.73,1.152c-0.409,0.583-0.576,1.326-0.467,2.029c0.121,0.864,0.68,1.639,1.44,2.053
									c0.382,0.204,0.81,0.32,1.241,0.335l1.218,0.005c1.614,0,3.224,0,4.829,0c3.21,0,6.401,0,9.571,0
									c6.341-0.001,12.6-0.001,18.764-0.002c12.327-0.003,24.272-0.006,35.727-0.009c22.908-0.012,43.852-0.022,61.961-0.031
									l0.114,0l0.023-0.112c4.647-22.942,8.427-41.605,11.047-54.538c1.3-6.462,2.311-11.492,2.999-14.912
									c0.338-1.704,0.597-3.007,0.772-3.889C270.097,384.906,270.175,384.454,270.175,384.454s-0.105,0.446-0.29,1.321
									c-0.184,0.881-0.456,2.18-0.811,3.881c-0.705,3.417-1.741,8.441-3.073,14.897c-2.648,12.928-6.47,31.582-11.167,54.513
									l0.137-0.112c-18.109-0.009-39.054-0.02-61.961-0.031c-11.454-0.003-23.399-0.005-35.727-0.008
									c-6.164-0.001-12.423-0.001-18.764-0.002c-3.17,0-6.361,0-9.571-0.001c-1.605,0-3.214,0-4.829,0l-1.205-0.005
									c-0.376-0.014-0.748-0.114-1.08-0.291c-0.661-0.361-1.149-1.036-1.253-1.787c-0.095-0.613,0.05-1.259,0.406-1.766
									c0.351-0.509,0.9-0.879,1.505-1.004c0.298-0.067,0.613-0.052,0.952-0.054l0.992,0l1.98,0c2.636,0,5.256,0,7.854,0
									c5.197,0,10.31-0.001,15.299-0.001h0.148l0.029-0.145c2.544-12.542,5.014-24.717,7.388-36.42
									c1.186-5.852,2.348-11.585,3.484-17.188c0.568-2.801,1.129-5.57,1.683-8.305c0.277-1.367,0.552-2.726,0.826-4.076
									c0.137-0.675,0.273-1.348,0.409-2.018l0.203-1.004c0.069-0.341,0.124-0.659,0.255-0.952c0.253-0.59,0.723-1.08,1.296-1.361
									c0.286-0.141,0.596-0.231,0.912-0.265c0.308-0.027,0.662-0.016,0.992-0.024c1.34-0.015,2.671-0.031,3.993-0.046
									c2.643-0.03,5.247-0.06,7.812-0.09c5.129-0.059,10.097-0.117,14.893-0.172c9.59-0.113,18.487-0.217,26.585-0.312
									c16.191-0.2,29.184-0.36,38.136-0.471c2.236-0.03,4.219-0.057,5.938-0.08c0.858-0.012,1.65-0.024,2.374-0.034
									c0.363-0.006,0.704-0.014,1.022,0.055c0.314,0.073,0.605,0.18,0.854,0.33c1.012,0.611,1.333,1.558,1.396,2.128
									C270.255,384.149,270.155,384.453,270.175,384.454z"/>
							</g>
						</g>
					</g>
				</g>
			</g>
			<g>
				<g>
					<g>
						<path style="fill:#FFFFFF;" d="M209.363,418.613c0,2.407,1.951,4.359,4.359,4.359c2.407,0,4.359-1.951,4.359-4.359
							s-1.952-4.359-4.359-4.359C211.314,414.254,209.363,416.206,209.363,418.613z"/>
					</g>
				</g>
			</g>
			<g>
				<g>
					<g>
						<g>
							<path style="fill:#263238;" d="M270.052,385.058c0,0-0.154-0.011-0.455-0.015c-0.313-0.002-0.757-0.004-1.334-0.008
								c-1.186,0.001-2.912,0.004-5.131,0.006c-4.468,0.021-10.912,0.053-18.869,0.091c-15.943,0.112-37.948,0.268-62.252,0.439
								c-3.04,0.024-6.043,0.048-9.004,0.072c-0.74,0.006-1.477,0.012-2.212,0.018c-0.359,0.008-0.742-0.016-1.13,0.068
								c-0.38,0.077-0.745,0.226-1.07,0.434c-0.653,0.414-1.142,1.075-1.339,1.817c-0.165,0.73-0.288,1.421-0.433,2.128
								c-1.116,5.623-2.192,11.046-3.217,16.213c-2.042,10.332-3.881,19.638-5.427,27.457c-1.53,7.809-2.769,14.132-3.627,18.517
								c-0.418,2.178-0.744,3.874-0.968,5.038c-0.105,0.568-0.186,1.004-0.243,1.312c-0.053,0.296-0.07,0.449-0.07,0.449
								s0.042-0.149,0.107-0.442c0.065-0.306,0.158-0.74,0.278-1.305c0.239-1.162,0.588-2.852,1.035-5.024
								c0.886-4.379,2.163-10.694,3.741-18.494c1.567-7.815,3.432-17.115,5.503-27.441c1.032-5.166,2.115-10.588,3.238-16.209
								c0.143-0.696,0.275-1.423,0.429-2.103c0.175-0.657,0.608-1.242,1.187-1.608c0.288-0.184,0.611-0.315,0.948-0.384
								c0.331-0.074,0.687-0.053,1.061-0.06c0.734-0.006,1.472-0.011,2.212-0.017c2.96-0.023,5.964-0.046,9.004-0.07
								c24.304-0.213,46.309-0.406,62.251-0.546c7.957-0.087,14.401-0.158,18.869-0.207c2.219-0.032,3.944-0.057,5.13-0.075
								c0.577-0.012,1.021-0.022,1.334-0.029C269.898,385.072,270.052,385.058,270.052,385.058z"/>
						</g>
					</g>
				</g>
			</g>
		</g>
		<g>
			<g>
				<g>
					<path style="fill:#FFFFFF;" d="M53.055,454.164c0,0.007,0.058,0.017,0.174,0.031c0.139,0.014,0.307,0.031,0.513,0.052
						c0.484,0.04,1.144,0.095,1.977,0.164c1.717,0.137,4.203,0.305,7.278,0.486c6.148,0.364,14.651,0.736,24.047,0.895
						c9.4,0.155,17.911,0.067,24.068-0.091c3.079-0.078,5.569-0.163,7.289-0.242c0.835-0.041,1.496-0.074,1.981-0.098
						c0.207-0.014,0.376-0.026,0.515-0.035c0.116-0.01,0.175-0.019,0.175-0.025c0-0.007-0.06-0.011-0.176-0.014
						c-0.139-0.001-0.309-0.002-0.516-0.003c-0.486,0.006-1.147,0.015-1.983,0.025c-1.756,0.029-4.238,0.07-7.29,0.12
						c-6.156,0.089-14.662,0.133-24.056-0.021c-9.391-0.159-17.89-0.487-24.04-0.781c-3.049-0.152-5.528-0.276-7.283-0.363
						c-0.835-0.039-1.496-0.069-1.981-0.092c-0.207-0.006-0.377-0.01-0.516-0.014C53.115,454.155,53.055,454.158,53.055,454.164z"/>
				</g>
			</g>
		</g>
	</g>
</g>
</svg>
