<?xml version="1.0" encoding="utf-8"?>
<!-- Generator: Adobe Illustrator 27.5.0, SVG Export Plug-In . SVG Version: 6.00 Build 0)  -->
<svg version="1.1" xmlns="http://www.w3.org/2000/svg" xmlns:xlink="http://www.w3.org/1999/xlink" x="0px" y="0px"
	 viewBox="0 0 750 500" style="enable-background:new 0 0 750 500;" xml:space="preserve">
<g id="BACKGROUND">
	<rect style="fill:#FFFFFF;" width="750" height="500"/>
</g>
<g id="OBJECTS">
	<g>
		
			<path style="fill:none;stroke:#8EE4FD;stroke-width:2.5436;stroke-linecap:round;stroke-linejoin:round;stroke-miterlimit:10;stroke-dasharray:8.9024;" d="
			M178.246,423.361c10.515-17.897,18.358-36.988,17.216-57.371c-1.365-24.361-15.393-45.864-27.428-67.089
			c-17.477-30.825-31.774-64.482-33.366-99.881c-1.592-35.399,11.326-72.88,39.698-94.11c17.646-13.204,39.611-19.205,61.31-23.06
			c22.002-3.909,44.981-5.844,66.433,0.41c29.82,8.694,52.756,31.819,77.618,50.439c39.366,29.482,86.252,48.839,134.952,55.714
			c26.82,3.786,56.165,4.64,77.021,21.923c25.583,21.2,28.678,59.497,22.946,92.224c-5.732,32.727-18.235,64.813-16.37,97.986
			c0.701,12.466,4.006,25.757,13.585,33.765"/>
		<g>
			<circle style="fill:#8EE4FD;" cx="598.409" cy="180.693" r="8.479"/>
			
				<ellipse transform="matrix(0.2624 -0.965 0.965 0.2624 178.8395 457.9911)" style="fill:#8EE4FD;" cx="388.99" cy="112.017" rx="8.479" ry="8.479"/>
			<path style="fill:#8EE4FD;" d="M159.222,204.857c0,3.044-2.467,5.511-5.511,5.511c-3.044,0-5.511-2.467-5.511-5.511
				c0-3.044,2.467-5.511,5.511-5.511C156.754,199.346,159.222,201.814,159.222,204.857z"/>
			<circle style="fill:#8EE4FD;" cx="114.285" cy="279.044" r="6.783"/>
			<circle style="fill:none;stroke:#8EE4FD;stroke-width:1.2718;stroke-miterlimit:10;" cx="392.381" cy="100.995" r="9.326"/>
			<circle style="fill:none;stroke:#8EE4FD;stroke-width:1.2718;stroke-miterlimit:10;" cx="607.735" cy="184.085" r="6.783"/>
			
				<ellipse transform="matrix(0.1901 -0.9818 0.9818 0.1901 208.9405 880.0313)" style="fill:none;stroke:#8EE4FD;stroke-width:1.2718;stroke-miterlimit:10;" cx="637.834" cy="313.382" rx="10.598" ry="10.598"/>
			<circle style="fill:none;stroke:#8EE4FD;stroke-width:1.2718;stroke-miterlimit:10;" cx="110.046" cy="270.566" r="8.479"/>
		</g>
	</g>
	<g>
		<g>
			<rect x="121.173" y="116.754" style="fill:#FCB13A;" width="133.961" height="47.48"/>
			<g>
				<rect x="176.496" y="132.333" style="fill:#FFFFFF;" width="40.697" height="5.087"/>
				<rect x="176.496" y="143.567" style="fill:#FFFFFF;" width="66.98" height="5.087"/>
			</g>
			<g>
				
					<ellipse transform="matrix(0.7071 -0.7071 0.7071 0.7071 -55.072 148.0319)" style="fill:#FFFFFF;" cx="151.154" cy="140.494" rx="18.017" ry="18.017"/>
				<g>
					<g>
						<polygon style="fill:#00A2DD;" points="151.076,150.462 139.658,142.022 141.926,138.955 150.007,144.927 157.41,132.937 
							160.656,134.942 						"/>
					</g>
					<g>
						<g>
							<polygon style="fill:#00A2DD;" points="154.762,132.034 162.65,136.903 161.141,130.526 							"/>
						</g>
					</g>
				</g>
			</g>
		</g>
		<g>
			<rect x="522.684" y="228.821" style="fill:#C6F1FE;" width="113.188" height="55.958"/>
			<g>
				<rect x="530.419" y="236.611" style="fill:#F64652;" width="26.863" height="40.379"/>
				<g>
					<g>
						<rect x="562.732" y="256.8" style="fill:#00A2DD;" width="65.406" height="20.19"/>
						<rect x="562.732" y="236.611" style="fill:#00A2DD;" width="65.406" height="15.245"/>
					</g>
				</g>
			</g>
		</g>
	</g>
	<g>
		<g>
			<g>
				<path style="fill:#2CD0D1;" d="M522.009,186.5c-10.071-15.392-37.842-60.877-36.112-91.945c0.1-1.785,2.333-2.53,3.488-1.165
					c9.044,10.683,35.464,45.772,36.255,91.971C525.675,187.356,523.101,188.17,522.009,186.5z"/>
				
					<line style="fill:none;stroke:#0B334C;stroke-linecap:round;stroke-linejoin:round;stroke-miterlimit:10;" x1="489.246" y1="96.567" x2="519.996" y2="160.817"/>
			</g>
			<g>
				<path style="fill:#2FDDDE;" d="M528.016,184.551c-16.054-8.978-61.732-36.432-74.585-64.769
					c-0.739-1.628,0.896-3.323,2.552-2.648c12.963,5.28,52.628,24.145,74.725,64.725
					C531.661,183.612,529.757,185.525,528.016,184.551z"/>
				
					<line style="fill:none;stroke:#0B334C;stroke-linecap:round;stroke-linejoin:round;stroke-miterlimit:10;" x1="458.246" y1="121.567" x2="507.996" y2="157.567"/>
			</g>
			<g>
				<path style="fill:#2FDDDE;" d="M511.426,186.696c13.361-12.641,53.199-48.041,84.081-51.849
					c1.775-0.219,2.904,1.847,1.766,3.226c-8.909,10.796-38.755,43.021-84.081,51.995
					C511.234,190.455,509.977,188.067,511.426,186.696z"/>
				
					<line style="fill:none;stroke:#0B334C;stroke-linecap:round;stroke-linejoin:round;stroke-miterlimit:10;" x1="594.746" y1="136.317" x2="540.746" y2="176.317"/>
			</g>
			<g>
				<path style="fill:#2CD0D1;" d="M557.131,190.09c1.671-4.688,2.251-10.604-1.367-14.023c-1.775-1.677-4.264-2.419-6.089-4.043
					c-2.969-2.641-3.59-7.186-2.564-11.024c1.027-3.839,3.414-7.146,5.754-10.358c2.256-3.096,4.512-6.192,6.768-9.289
					c1.808-2.481,3.642-5.012,4.618-7.922c0.976-2.91,0.974-6.313-0.747-8.854c-1.531-2.261-4.219-3.592-5.562-5.97
					c-1.228-2.175-1.131-4.9-0.784-7.298c0.341-2.358,0.94-4.67,1.737-6.914c2.115-5.952,5.232-12.742,4.227-19.419
					c-0.145-0.96-0.401-1.915-0.749-2.838c-1.334-5.538-5.882-10.375-13.088-8.246c-1.395,0.412-2.709,1.096-3.854,1.993
					c-6.318,4.946-7.445,13.597-9.063,20.643c-0.541,2.356-1.284,4.66-2.279,6.863c-0.997,2.206-2.381,4.551-4.583,5.722
					c-2.411,1.282-5.393,0.958-7.9,2.041c-2.818,1.216-4.649,4.084-5.393,7.062c-0.743,2.978-0.558,6.099-0.369,9.162
					c0.236,3.824,0.473,7.648,0.709,11.471c0.245,3.966,0.478,8.038-0.721,11.826c-1.2,3.788-4.169,7.285-8.092,7.914
					c-2.411,0.387-4.909-0.327-7.308,0.133c-4.888,0.936-7.582,6.235-8.696,11.086c-0.161,0.703-0.305,1.41-0.43,2.119
					c-2.36,13.387,5.77,26.416,18.724,30.538l13.122,4.176c13.823,4.4,28.919-2.653,33.88-16.284
					C557.067,190.269,557.099,190.18,557.131,190.09z"/>
				<g>
					
						<line style="fill:none;stroke:#0B334C;stroke-linecap:round;stroke-linejoin:round;stroke-miterlimit:10;" x1="553.996" y1="76.817" x2="518.496" y2="197.067"/>
					
						<line style="fill:none;stroke:#0B334C;stroke-linecap:round;stroke-linejoin:round;stroke-miterlimit:10;" x1="539.496" y1="94.817" x2="543.746" y2="111.567"/>
					
						<line style="fill:none;stroke:#0B334C;stroke-linecap:round;stroke-linejoin:round;stroke-miterlimit:10;" x1="536.496" y1="104.567" x2="540.746" y2="121.317"/>
					
						<line style="fill:none;stroke:#0B334C;stroke-linecap:round;stroke-linejoin:round;stroke-miterlimit:10;" x1="556.996" y1="125.984" x2="537.579" y2="132.484"/>
					
						<line style="fill:none;stroke:#0B334C;stroke-linecap:round;stroke-linejoin:round;stroke-miterlimit:10;" x1="555.829" y1="130.484" x2="536.412" y2="136.984"/>
					
						<line style="fill:none;stroke:#0B334C;stroke-linecap:round;stroke-linejoin:round;stroke-miterlimit:10;" x1="520.996" y1="134.067" x2="530.662" y2="155.567"/>
					
						<line style="fill:none;stroke:#0B334C;stroke-linecap:round;stroke-linejoin:round;stroke-miterlimit:10;" x1="519.621" y1="137.984" x2="529.287" y2="159.484"/>
				</g>
			</g>
		</g>
	</g>
	<g>
		<g>
			<g>
				<path style="fill:#8EE4FD;" d="M547.093,364.853H199.898V166.244c0-5.502,4.46-9.962,9.962-9.962h327.271
					c5.502,0,9.962,4.46,9.962,9.962V364.853z"/>
				<g>
					
						<line style="fill:none;stroke:#0B334C;stroke-linecap:round;stroke-linejoin:round;stroke-miterlimit:10;" x1="211.603" y1="183.695" x2="235.937" y2="183.695"/>
					
						<line style="fill:none;stroke:#0B334C;stroke-linecap:round;stroke-linejoin:round;stroke-miterlimit:10;" x1="240.437" y1="183.695" x2="264.77" y2="183.695"/>
					
						<line style="fill:none;stroke:#0B334C;stroke-linecap:round;stroke-linejoin:round;stroke-miterlimit:10;" x1="269.27" y1="183.695" x2="293.603" y2="183.695"/>
				</g>
			</g>
			<g>
				<path style="fill:#1F5B99;" d="M547.093,174.086H199.898v-7.843c0-5.502,4.46-9.962,9.962-9.962h327.271
					c5.502,0,9.962,4.46,9.962,9.962V174.086z"/>
				<g>
					<path style="fill:none;stroke:#0B334C;stroke-linecap:round;stroke-linejoin:round;stroke-miterlimit:10;" d="M495.603,165.029
						c0,2.117-1.716,3.833-3.833,3.833c-2.117,0-3.833-1.716-3.833-3.833s1.716-3.833,3.833-3.833
						C493.887,161.195,495.603,162.912,495.603,165.029z"/>
					<path style="fill:none;stroke:#0B334C;stroke-linecap:round;stroke-linejoin:round;stroke-miterlimit:10;" d="M513.603,165.029
						c0,2.117-1.716,3.833-3.833,3.833c-2.117,0-3.833-1.716-3.833-3.833s1.716-3.833,3.833-3.833
						C511.887,161.195,513.603,162.912,513.603,165.029z"/>
					<path style="fill:none;stroke:#0B334C;stroke-linecap:round;stroke-linejoin:round;stroke-miterlimit:10;" d="M531.603,165.029
						c0,2.117-1.716,3.833-3.833,3.833c-2.117,0-3.833-1.716-3.833-3.833s1.716-3.833,3.833-3.833
						C529.887,161.195,531.603,162.912,531.603,165.029z"/>
				</g>
			</g>
		</g>
		<g>
			<path style="fill:#1F5B99;" d="M373.496,235.555c-14.376,0-26.071-11.695-26.071-26.071s11.695-26.072,26.071-26.072
				c5.79,0,11.273,1.859,15.856,5.374l-2.442,3.183c-3.876-2.974-8.515-4.546-13.414-4.546c-12.164,0-22.06,9.896-22.06,22.061
				s9.896,22.06,22.06,22.06c12.164,0,22.06-9.896,22.06-22.06c0-1.497-0.151-2.994-0.448-4.449l3.931-0.803
				c0.351,1.719,0.529,3.485,0.529,5.252C399.567,223.86,387.872,235.555,373.496,235.555z"/>
		</g>
		<g>
			<g>
				<path style="fill:#FFFFFF;" d="M477.464,265.018H269.528c-5.092,0-9.22-4.128-9.22-9.22l0,0c0-5.092,4.128-9.22,9.22-9.22
					h207.936c5.092,0,9.22,4.128,9.22,9.22l0,0C486.684,260.89,482.556,265.018,477.464,265.018z"/>
				<path style="fill:#F64652;" d="M295.281,265.018h-25.753c-5.092,0-9.22-4.128-9.22-9.22l0,0c0-5.092,4.128-9.22,9.22-9.22
					h25.753V265.018z"/>
			</g>
			<g>
				<path style="fill:none;stroke:#FFFFFF;stroke-width:1.2718;stroke-miterlimit:10;" d="M280.735,254.765
					c0,3.029-2.456,5.485-5.484,5.485s-5.485-2.456-5.485-5.485c0-3.029,2.456-5.485,5.485-5.485S280.735,251.736,280.735,254.765z"
					/>
				
					<line style="fill:none;stroke:#FFFFFF;stroke-width:1.2718;stroke-miterlimit:10;" x1="284.471" y1="262.316" x2="279.821" y2="257.666"/>
			</g>
		</g>
		<g>
			<g>
				<g>
					<path style="fill:#FCB13A;" d="M292.738,331.787h-67.404c-1.054,0-1.908-0.854-1.908-1.908v-36.034
						c0-1.054,0.854-1.908,1.908-1.908h67.404c1.054,0,1.908,0.854,1.908,1.908v36.034
						C294.645,330.933,293.791,331.787,292.738,331.787z"/>
					<rect x="223.426" y="340.265" style="fill:#1F5B99;" width="71.22" height="8.479"/>
				</g>
				<g>
					<polyline style="fill:none;stroke:#0B334C;stroke-linecap:round;stroke-linejoin:round;stroke-miterlimit:10;" points="
						229.437,327.029 229.437,320.362 246.437,320.362 246.437,327.029 					"/>
					<polyline style="fill:none;stroke:#0B334C;stroke-linecap:round;stroke-linejoin:round;stroke-miterlimit:10;" points="
						250.437,327.029 250.437,320.362 267.437,320.362 267.437,327.029 					"/>
					<polyline style="fill:none;stroke:#0B334C;stroke-linecap:round;stroke-linejoin:round;stroke-miterlimit:10;" points="
						271.437,327.029 271.437,320.362 288.437,320.362 288.437,327.029 					"/>
				</g>
			</g>
			<g>
				<g>
					<path style="fill:#00A2DD;" d="M407.198,331.787h-67.404c-1.053,0-1.908-0.854-1.908-1.908v-36.034
						c0-1.054,0.854-1.908,1.908-1.908h67.404c1.053,0,1.908,0.854,1.908,1.908v36.034
						C409.105,330.933,408.251,331.787,407.198,331.787z"/>
					<rect x="337.886" y="340.265" style="fill:#1F5B99;" width="71.219" height="8.479"/>
				</g>
				<g>
					<path style="fill:none;stroke:#0B334C;stroke-miterlimit:10;" d="M360.437,320.362c0,2.577-2.089,4.667-4.667,4.667
						c-2.577,0-4.667-2.089-4.667-4.667s2.089-4.667,4.667-4.667C358.347,315.695,360.437,317.785,360.437,320.362z"/>
					<circle style="fill:none;stroke:#0B334C;stroke-miterlimit:10;" cx="366.77" cy="306.029" r="9"/>
					<path style="fill:none;stroke:#0B334C;stroke-miterlimit:10;" d="M391.103,303.029c0,2.025-1.642,3.667-3.667,3.667
						c-2.025,0-3.667-1.642-3.667-3.667c0-2.025,1.642-3.667,3.667-3.667C389.462,299.362,391.103,301.004,391.103,303.029z"/>
					<circle style="fill:none;stroke:#0B334C;stroke-miterlimit:10;" cx="387.27" cy="318.862" r="6.167"/>
				</g>
			</g>
			<g>
				<g>
					<path style="fill:#F64652;" d="M521.658,331.787h-67.404c-1.054,0-1.908-0.854-1.908-1.908v-36.034
						c0-1.054,0.854-1.908,1.908-1.908h67.404c1.054,0,1.908,0.854,1.908,1.908v36.034
						C523.565,330.933,522.711,331.787,521.658,331.787z"/>
					<rect x="452.346" y="340.265" style="fill:#1F5B99;" width="71.22" height="8.479"/>
				</g>
				<g>
					<polyline style="fill:none;stroke:#0B334C;stroke-linecap:round;stroke-linejoin:round;stroke-miterlimit:10;" points="
						460.77,326.362 460.77,297.695 470.103,297.695 					"/>
					<polyline style="fill:none;stroke:#0B334C;stroke-linecap:round;stroke-linejoin:round;stroke-miterlimit:10;" points="
						476.437,297.695 476.437,326.362 487.103,326.362 					"/>
					<polyline style="fill:none;stroke:#0B334C;stroke-linecap:round;stroke-linejoin:round;stroke-miterlimit:10;" points="
						492.103,326.362 492.103,297.695 516.103,297.695 					"/>
				</g>
			</g>
		</g>
	</g>
	<g>
		<g>
			<g>
				<g>
					<path style="fill:#2CD0D1;" d="M166.732,397.141c1.073,2.257,4.534,1.438,4.503-1.062c-0.166-13.702-5.457-27.508-13.632-38.7
						c-2.976-4.074-6.316-7.881-9.114-12.079c-3.888-5.833-6.652-12.294-9.07-18.896c-0.863-2.355-4.266-1.963-4.6,0.523
						c-2.685,20.017,3.872,41.247,18.434,55.276c3.219,3.101,6.767,5.877,9.687,9.262
						C164.607,393.396,165.836,395.255,166.732,397.141z"/>
					<path style="fill:#2CD0D1;" d="M179.426,396.576c-6.251-4.585-10.613-11.67-11.892-19.316
						c-1.279-7.646,0.54-15.765,4.959-22.135c3.09-4.455,7.322-7.994,10.683-12.248c8.17-10.338,10.445-24.949,6.157-37.364
						c-0.465-1.345,1.101-2.493,2.218-1.611c6.879,5.431,11.176,12.953,12.641,21.929c1.735,10.628-0.626,21.685-5.473,31.301
						c-5.126,10.168-13.227,20.001-12.123,31.334c0.27,2.769,1.074,5.714-0.13,8.222
						C185.261,399.195,180.107,399.274,179.426,396.576z"/>
					<path style="fill:#2CD0D1;" d="M169.909,389.241c0.017,0.904-1.049,1.396-1.701,0.77c-7.996-7.666-11.997-19.072-12.056-30.21
						c-0.053-10.215,2.882-20.177,4.458-30.269c1.34-8.578,1.584-17.774-1.602-25.717c-0.392-0.976,0.85-1.808,1.622-1.093
						c7.668,7.097,12.128,16.885,14.229,27.342c2.414,12.014,1.527,24.449-0.195,36.581
						C173.568,374.367,169.77,381.606,169.909,389.241z"/>
				</g>
				<path style="fill:none;stroke:#0B334C;stroke-linecap:round;stroke-linejoin:round;stroke-miterlimit:10;" d="M178.51,380.466
					c-0.973-6.29,1.307-12.652,4.371-18.232c3.064-5.579,6.943-10.709,9.609-16.489c4.259-9.235,5.187-19.965,2.576-29.794"/>
				<path style="fill:none;stroke:#0B334C;stroke-linecap:round;stroke-linejoin:round;stroke-miterlimit:10;" d="M164.829,363.901
					c0,0,8.333-27.333,0-50.667"/>
				<path style="fill:none;stroke:#0B334C;stroke-linecap:round;stroke-linejoin:round;stroke-miterlimit:10;" d="M138.284,336.205
					c4.283,18.136,16.307,34.307,32.441,43.632"/>
			</g>
			<g>
				<path style="fill:#0B334C;" d="M184.776,434.311h-27.37c-0.908,0-1.68-0.661-1.82-1.557l-7.054-45.067
					c-0.175-1.117,0.689-2.127,1.82-2.127h41.478c1.131,0,1.995,1.01,1.82,2.127l-7.054,45.067
					C186.456,433.651,185.684,434.311,184.776,434.311z"/>
				
					<line style="fill:none;stroke:#FFFFFF;stroke-linecap:round;stroke-linejoin:round;stroke-miterlimit:10;" x1="152.329" y1="393.401" x2="190.329" y2="393.401"/>
			</g>
		</g>
	</g>
	<g>
		<g>
			<g>
				<path style="fill:#CC6F49;" d="M497.543,403.777l-1.46,26.543l5.273-0.396c0,0,4.283-11.934,8.314-26.147H497.543z"/>
				<path style="fill:#0B334C;" d="M496.299,428.71c0,0,2.838,2.113,5.6,0.001l0.273,1.397c0.239,1.221,0.249,2.51,0.031,3.809
					l-0.066,0.394l-16.751-0.002l0,0c0.203-1.208,1.142-2.287,2.348-2.695L496.299,428.71z"/>
			</g>
			<g>
				<path style="fill:#CC6F49;" d="M534.929,403.777l2.789,26.543l5.206-0.396c0,0,2.28-11.934,3.925-26.147H534.929z"/>
				<path style="fill:#0B334C;" d="M537.664,428.71c0,0,3.193,2.113,5.6,0.001l0.508,1.397c0.444,1.221,0.671,2.51,0.671,3.809
					l0,0.394l-16.752-0.002l0,0c0-1.208,0.758-2.287,1.896-2.695L537.664,428.71z"/>
			</g>
		</g>
		<g>
			<g>
				<path style="fill:#CC6F49;" d="M528.013,260.347c-3.082-0.587-6.233-0.973-9.3-1.633c-0.416,3.042-0.902,6.067-1.497,9.051
					c-5.154-1.777-10.277-3.903-15.34-6.189c-3.305-1.501-6.59-3.081-9.855-4.722c-3.265-1.611-6.529-3.361-9.674-5.071l-0.08-0.05
					c-0.03-0.02-0.059-0.03-0.089-0.04c-0.744-1.389-2.457-4.435-3.115-4.314c-0.85,0.156-0.515,2.97-0.515,2.97
					s-5.388-3.35-5.977-2.841c-0.589,0.509,3.583,3.506,3.583,3.506s-3.886-1.751-4.519-1.154c-0.633,0.597,4.277,2.97,4.277,2.97
					s-4.26-0.832-4.5,0.075c-0.24,0.907,4.951,1.641,4.951,1.641s-3.091,0.085-3.139,0.758c-0.037,0.518,4.062,1.31,5.957,1.648
					c5.955,4.618,12.061,8.758,18.508,12.598c1.617,0.985,3.274,1.911,4.931,2.846c1.677,0.905,3.344,1.831,5.061,2.676
					c2.236,1.157,4.533,2.225,6.88,3.222c1.218,0.534,2.447,1.038,3.695,1.532c0.022,0.009,0.044,0.018,0.066,0.026
					c3.599,1.432,7.667-0.493,8.927-4.156c0.598-1.739,1.169-3.469,1.515-4.677c0.111-0.39,0.222-0.769,0.334-1.159
					c0.796-2.946,1.465-5.917,2.057-8.894C530.109,260.762,529.062,260.547,528.013,260.347z"/>
				<g>
					<polygon style="fill:#00A2DD;" points="518.308,258.423 517.996,260.61 531.121,263.36 531.496,259.61 					"/>
					<path style="fill:#FCB13A;" d="M517.871,258.735c0,0-1-26.625,6.375-28.625s9.875,2.5,10.125,5.625s-2.875,25.75-2.875,25.75
						L517.871,258.735z"/>
				</g>
			</g>
			<path style="fill:#CC6F49;" d="M547.295,235.61c-0.047-0.611-0.118-1.393-0.198-2.217c-0.26-2.67-2.293-4.751-4.809-4.923
				l-2.748-0.187c-0.964-0.392-1.645-1.335-1.645-2.439v-12.095h-9.507v12.095c0,1.063-0.633,1.973-1.539,2.39
				c-1.85,0.084-3.592,0.966-4.81,2.464l-2.263,2.785c-0.536,0.659-0.984,1.377-1.361,2.128H547.295z"/>
			<g>
				<g>
					<path style="fill:#FCB13A;" d="M546.162,270.777c-1-2-2.833-19-2.75-19.25c0.018-0.052,0.051-0.506,0.044-1.187
						c1.131-4.551,4.236-17.505,3.414-19.355c-1-2.25-5.75-3.5-8.188-3.563c-1.768-0.045-9.079,4.818-10.188,7.813
						c-3.152-4.029-0.219-8.688-0.219-8.688c-6.167,2.25-12.281,9.646-11.615,17.063c0.667,7.417-4.083,35.667-4.083,35.667
						s-19.833,130.75-19.667,134.5s22.417,1.667,27.083,6.917c4.667,5.25,26.75-0.833,26.75-0.833s6.583-100.083,7.5-114.25
						C555.162,291.444,547.162,272.777,546.162,270.777z"/>
					<g>
						
							<path style="fill:none;stroke:#0B334C;stroke-width:0.75;stroke-linecap:round;stroke-linejoin:round;stroke-miterlimit:10;" d="
							M525.579,233.527c0,0,1.75,2.833,2.5,3.333s5.5-6.917,8.583-7.667"/>
						
							<line style="fill:none;stroke:#0B334C;stroke-width:0.75;stroke-linecap:round;stroke-linejoin:round;stroke-miterlimit:10;" x1="519.162" y1="417.444" x2="527.162" y2="351.277"/>
						
							<path style="fill:none;stroke:#0B334C;stroke-width:0.75;stroke-linecap:round;stroke-linejoin:round;stroke-miterlimit:10;" d="
							M547.829,316.944c0,0,1.667,21.333-1,42.833c-2.667,21.5-4.333,60-4.333,60"/>
						<path style="fill:#0B334C;" d="M516.246,309.11c0,0,6.25,12.25,15,15.5L516.246,309.11z"/>
					</g>
				</g>
				<g>
					<path style="fill:#00A2DD;" d="M528.277,226.548c0,0-18.031,33.563,4.969,54.438c23,20.875,21.75,18.5,21.75,18.5
						s-0.25,13.875-1.125,19.25c0,0-38.875-11.375-43.25-31.625c-4.375-20.25,5.646-51.521,9.021-55.146
						S528.277,226.548,528.277,226.548z"/>
					<g>
						
							<path style="fill:none;stroke:#0B334C;stroke-width:0.75;stroke-linecap:round;stroke-linejoin:round;stroke-miterlimit:10;" d="
							M523.162,230.61c0,0-13,29,3.833,48.167"/>
						
							<path style="fill:none;stroke:#0B334C;stroke-width:0.75;stroke-linecap:round;stroke-linejoin:round;stroke-miterlimit:10;" d="
							M526.496,291.944c0,0,12.167,13.5,25.833,15.833"/>
					</g>
				</g>
			</g>
			<g>
				<g>
					<g>
						<g>
							<path style="fill:#0B334C;" d="M435.745,175.553c5.312-2.323,11.153-3.658,17.3-3.769
								c25.014-0.454,45.735,19.527,46.189,44.54c0.221,12.117-4.291,23.595-12.704,32.319
								c-8.413,8.724-19.719,13.651-31.836,13.869c-25.014,0.455-45.734-19.525-46.189-44.539
								C408.163,199.107,419.447,182.68,435.745,175.553z M467.909,249.248c4.144-1.812,7.933-4.439,11.167-7.794
								c6.492-6.732,9.974-15.59,9.804-24.941c-0.351-19.305-16.342-34.724-35.646-34.374
								c-19.309,0.354-34.724,16.343-34.374,35.646c0.351,19.305,16.342,34.724,35.646,34.374
								C459.198,252.072,463.734,251.074,467.909,249.248z"/>
						</g>
					</g>
					<g>
						<g>
							
								<rect x="494.029" y="240.067" transform="matrix(0.6941 -0.7198 0.7198 0.6941 -42.245 442.1725)" style="fill:#0B334C;" width="10.356" height="61.463"/>
						</g>
					</g>
					<g>
						<g>
							
								<rect x="502.447" y="265.102" transform="matrix(0.6942 -0.7198 0.7198 0.6942 -46.3768 452.962)" style="fill:#1F5B99;" width="14.795" height="31.909"/>
						</g>
					</g>
				</g>
				<g>
					<g>
						<path style="fill:#CC6F49;" d="M560.026,264.611c-0.311-1.287-0.63-2.562-0.988-3.831c-0.329-1.239-0.68-2.47-1.049-3.694
							c-4.017,1.13-8,2.566-12.042,3.656c0.992,2.666,1.915,5.342,2.732,8.037c-4.371,2.961-8.988,5.719-13.7,8.33
							c-3.168,1.762-6.398,3.453-9.656,5.098c-3.247,1.653-6.585,3.24-9.847,4.734l-0.084,0.044
							c-0.028,0.015-0.056,0.029-0.084,0.044c-1.559-0.231-5.025-0.672-5.32-0.072c-0.382,0.776,2.077,2.185,2.077,2.185
							s-5.903,2.327-5.845,3.103c0.058,0.776,4.951-0.785,4.951-0.785s-3.723,2.075-3.621,2.94c0.102,0.864,4.935-1.662,4.935-1.662
							s-3.208,2.923-2.623,3.656c0.585,0.733,4.27-2.995,4.27-2.995s-1.775,2.532-1.263,2.972c0.393,0.338,3.46-2.466,4.866-3.79
							c7.256-2.033,14.235-4.465,21.161-7.345c1.747-0.72,3.486-1.49,5.225-2.259c1.721-0.817,3.457-1.606,5.168-2.483
							c0.695-0.336,1.387-0.692,2.079-1.048c2.718-1.415,5.384-2.964,8.047-4.593c0.008-0.005,0.016-0.01,0.023-0.014
							c1.415-0.88,2.124-2.552,1.829-4.192C560.902,268.621,560.477,266.612,560.026,264.611z"/>
						
							<polyline style="fill:none;stroke:#0B334C;stroke-width:0.75;stroke-linecap:round;stroke-linejoin:round;stroke-miterlimit:10;" points="
							550.246,267.277 548.662,268.777 551.162,268.11 						"/>
					</g>
					<g>
						<g>
							<polygon style="fill:#00A2DD;" points="545.246,260.298 546.308,263.11 559.558,259.548 558.121,256.048 							"/>
							<path style="fill:#FCB13A;" d="M545.246,261.485c0,0-12.5-22-10.375-27.5s8-8.125,12-3s12.375,26.625,12.375,26.625
								L545.246,261.485z"/>
						</g>
						<g>
							
								<path style="fill:none;stroke:#0B334C;stroke-width:0.75;stroke-linecap:round;stroke-linejoin:round;stroke-miterlimit:10;" d="
								M544.079,259.694c0,0-4.833-10.417-6-14.833"/>
							
								<line style="fill:none;stroke:#0B334C;stroke-width:0.75;stroke-linecap:round;stroke-linejoin:round;stroke-miterlimit:10;" x1="557.412" y1="256.027" x2="545.329" y2="259.444"/>
						</g>
					</g>
				</g>
			</g>
		</g>
		<g>
			<g>
				<path style="fill:#CC6F49;" d="M533.979,197.246c-5.062-1.545-10.397,1.423-11.732,6.54c-0.603,2.307-1.133,4.688-1.397,6.68
					c-0.276,0.607-0.623,1.139-1.034,1.493c-0.195,0.167-0.408,0.319-0.558,0.528c-0.15,0.208-0.226,0.495-0.11,0.724
					c0.068,0.134,0.19,0.231,0.31,0.323c0.484,0.374,0.968,0.749,1.451,1.123c0.139,0.535,0.324,1.05,0.553,1.534
					c0.8,1.729,2.076,3.139,3.14,4.115c1.155,1.066,2.726,1.543,4.277,1.303c2.065-0.315,5.023-1.147,6.922-3.316
					c1.414-1.606,2.965-5.378,4.261-9.081C541.807,204.229,539.033,198.791,533.979,197.246z"/>
				<g>
					<g>
						<path style="fill:#C4533A;" d="M525.136,214.094c0,1.221,0.99,2.211,2.211,2.211c1.221,0,2.211-0.99,2.211-2.211
							s-0.99-2.211-2.211-2.211C526.126,211.883,525.136,212.873,525.136,214.094z"/>
					</g>
					<g>
						<path style="fill:#0B334C;" d="M523.294,206.47c0.288-0.146,0.566-0.206,0.869-0.231c0.299-0.014,0.608,0.012,0.903,0.112
							c0.297,0.087,0.581,0.247,0.805,0.461c0.241,0.2,0.381,0.482,0.497,0.743c0.038,0.086-0.001,0.187-0.087,0.225
							c-0.068,0.03-0.144,0.013-0.193-0.037l-0.013-0.014c-0.354-0.369-0.75-0.585-1.193-0.662
							c-0.439-0.067-0.924-0.029-1.388-0.003l-0.04,0.002c-0.174,0.01-0.323-0.123-0.333-0.297
							C523.115,206.64,523.186,206.525,523.294,206.47z"/>
					</g>
					<g>
						<ellipse style="fill:#0B334C;" cx="524.432" cy="210.295" rx="0.835" ry="1.343"/>
					</g>
					<g>
						<path style="fill:#0B334C;" d="M524.188,216.706c0.406-0.239,0.796-0.351,1.205-0.554c-0.103,0.221-0.323,0.347-0.527,0.444
							C524.649,216.674,524.425,216.736,524.188,216.706z"/>
						<path style="fill:#0B334C;" d="M522.185,215.969c0.362,0.042,0.713,0.066,1.055,0.053c0.341-0.017,0.676-0.054,0.974-0.185
							c0.312-0.096,0.573-0.298,0.793-0.545c0.237-0.238,0.39-0.552,0.575-0.87c-0.029,0.361-0.117,0.735-0.336,1.054
							c-0.201,0.328-0.53,0.582-0.892,0.727C523.613,216.455,522.81,216.348,522.185,215.969z"/>
					</g>
				</g>
			</g>
			<g>
				<path style="fill:#0B334C;" d="M540.502,200.962c-0.404-0.626-0.911-1.243-1.569-1.852c-4.25-3.938-14.5-4.521-17.438,1.667
					s-0.086,6.522-0.086,6.522l1.211-4.501c0,0,3.75,6.438,8.688,6.688c0,0,1.313-1.625,2.813-1.063s0.875,4.5-2.063,4.563
					c0,0-0.043,0.527,0.002,1.211c-0.033,3.138-0.378,11.493-3.065,14.247c0,0,13.75,2.167,16.583-4.5
					C545.579,223.943,544.347,205.082,540.502,200.962z"/>
				<g>
					
						<path style="fill:none;stroke:#FFFFFF;stroke-width:0.25;stroke-linecap:round;stroke-linejoin:round;stroke-miterlimit:10;" d="
						M540.807,200.408c-5.188,6.313-19.125,5.375-19.125,5.375l-1.395-2.84"/>
					<path style="fill:#FCB13A;" d="M522.352,207.458c-0.064,0.434-0.467,0.733-0.9,0.669c-0.433-0.064-0.733-0.467-0.669-0.9
						c0.064-0.433,0.577-1.66,1.01-1.596C522.225,205.695,522.415,207.025,522.352,207.458z"/>
				</g>
			</g>
		</g>
	</g>
	<g>
		<g>
			<g>
				<path style="fill:#00A2DD;" d="M279.022,156.234c0.126-2.951,0.603-16.389-1.026-19.5l-37-10.417
					c0,0-11.466,6.647-12.227,29.917H279.022z"/>
				<g>
					
						<path style="fill:none;stroke:#0B334C;stroke-width:0.75;stroke-linecap:round;stroke-linejoin:round;stroke-miterlimit:10;" d="
						M254.162,137.65c0,0,16.5,3.917,22.5,2.833"/>
					
						<path style="fill:none;stroke:#0B334C;stroke-width:0.75;stroke-linecap:round;stroke-linejoin:round;stroke-miterlimit:10;" d="
						M272.662,140.734c0,0-0.25,8.083,5.333,9.417"/>
				</g>
			</g>
			<g>
				<g>
					<path style="fill:#FFCBA1;" d="M274.565,82.892l2.835-11.758l-9.242-2.228l-2.835,11.758c-0.341,1.415-1.765,2.285-3.18,1.944
						l0,0c5.232,14.042,14.457,3.486,14.457,3.486l-0.092-0.022C275.094,85.73,274.224,84.307,274.565,82.892z"/>
					<path style="fill:#0B334C;" d="M275.617,78.543l-0.47,1.948c-0.46-0.071-0.905-0.202-1.334-0.402
						c-1.902-0.863-4.524-2.465-5.764-5.069c-0.303-0.623-0.557-1.477-0.768-2.481l0.072-0.298c0.094,0.281,0.201,0.542,0.308,0.769
						c1.24,2.603,3.861,4.206,5.764,5.068C274.124,78.401,274.872,78.549,275.617,78.543z"/>
				</g>
				<g>
					<path style="fill:#FFCBA1;" d="M307.27,174.63c0.02-7.522-0.425-14.9-1.31-22.347c-0.213-1.882-0.486-3.763-0.756-5.646
						c-0.314-1.879-0.6-3.762-0.979-5.642c-0.68-3.767-1.612-7.519-2.678-11.278c-1.087-3.782-2.46-7.454-3.927-11.055
						c-1.504-3.583-3.178-7.067-4.952-10.486c-0.627-1.2-1.292-2.375-1.952-3.553c-3.114,3.262-6.501,6.355-9.431,9.413
						c0.074,0.124,0.153,0.245,0.226,0.369c3.637,6.118,6.935,12.387,9.451,18.871c2.506,6.546,4.455,13.507,6.12,20.563
						c0.834,3.531,1.579,7.099,2.276,10.682c0.712,3.569,1.323,7.22,1.882,10.763l0.015,0.095c0.005,0.03,0.017,0.056,0.022,0.085
						c-0.645,1.435-2.016,4.658-1.518,5.106c0.643,0.578,2.667-1.405,2.667-1.405s0.635,6.313,1.397,6.468
						c0.763,0.156,0.591-4.978,0.591-4.978s0.985,4.147,1.844,4.284c0.859,0.137-0.257-5.201-0.257-5.201s1.941,3.882,2.806,3.519
						c0.864-0.364-1.722-4.924-1.722-4.924s1.954,2.397,2.516,2.023C310.034,180.069,308.159,176.337,307.27,174.63z"/>
					<path style="fill:#F64652;" d="M281.746,89.442c0,0,9.75,14.75,10.875,17.625l-10.125,10c0,0-8-13-10.5-16.375
						S274.871,87.192,281.746,89.442z"/>
				</g>
				<g>
					<path style="fill:#F64652;" d="M263.329,81.734c0,0,9.083,3.25,12.583,3.417c0,0,4.333,1.25,7.167,6.333
						c2.833,5.083-4.583,46.333-4.583,46.333s-29.917-0.25-37.833-11.083l12.48-40.504c0.73-2.368,2.765-4.129,5.225-4.426
						C259.825,81.628,261.548,81.546,263.329,81.734z"/>
					<g>
						
							<path style="fill:none;stroke:#0B334C;stroke-width:0.75;stroke-linecap:round;stroke-linejoin:round;stroke-miterlimit:10;" d="
							M262.079,82.317c0,0,6.417,6.167,14.25,3.917"/>
						
							<path style="fill:none;stroke:#0B334C;stroke-width:0.75;stroke-linecap:round;stroke-linejoin:round;stroke-miterlimit:10;" d="
							M281.996,115.317c0,0,1.375-9.25-0.25-16.125"/>
						<polygon style="fill:#0B334C;" points="248.912,99.963 254.246,98.067 247.35,105.15 						"/>
						<path style="fill:#0B334C;" d="M257.996,119.067c0,0,8.75-1.5,13.75-7L257.996,119.067z"/>
					</g>
				</g>
			</g>
			<g>
				<g>
					<path style="fill:#FFCBA1;" d="M275.119,53.245c-4.887,0.108-8.793,3.954-9.091,8.701c-0.068,0.005-0.135,0-0.204,0.01
						c-1.422,0.217-2.398,1.545-2.181,2.967c0.194,1.268,1.551,3,2.851,3.207c0.273,2.027,0.646,3.794,1.167,4.879
						c1.24,2.603,3.861,4.206,5.764,5.068c1.428,0.651,3.069,0.619,4.47-0.095c1.289-0.651,2.899-1.662,4.137-3.11
						c0.559-0.642,1.043-1.374,1.396-2.202c0.185-0.433,0.337-0.962,0.467-1.569c0.483-2.172,0.685-5.325,0.744-8.383
						C284.742,57.433,280.41,53.131,275.119,53.245z"/>
					<g>
						<path style="fill:#0B334C;" d="M277.926,66.46c0.062,0.871,0.193,1.605,0.182,2.467c-0.032,0.412-0.018,0.877-0.322,1.351
							c-0.331,0.482-0.854,0.547-1.272,0.542c0.338-0.287,0.647-0.567,0.714-0.84c0.076-0.273,0.062-0.67,0.07-1.073
							c0.018-0.4,0.028-0.82,0.115-1.244C277.486,67.24,277.651,66.808,277.926,66.46z"/>
						<g>
							<path style="fill:#0B334C;" d="M276.114,63.948c-0.446-0.135-0.908-0.285-1.35-0.322c-0.448-0.029-0.884,0.088-1.315,0.364
								l-0.016,0.01c-0.079,0.051-0.185,0.028-0.236-0.052c-0.04-0.062-0.034-0.141,0.008-0.196
								c0.174-0.227,0.377-0.468,0.658-0.606c0.268-0.155,0.582-0.244,0.89-0.259c0.31-0.028,0.617,0.02,0.904,0.103
								c0.289,0.095,0.545,0.218,0.791,0.428c0.133,0.113,0.148,0.312,0.035,0.445c-0.084,0.098-0.215,0.132-0.331,0.097
								L276.114,63.948z"/>
							<path style="fill:#0B334C;" d="M280.763,64.457c0.314-0.075,0.599-0.068,0.899-0.021c0.294,0.057,0.589,0.154,0.852,0.32
								c0.268,0.155,0.507,0.377,0.674,0.636c0.187,0.251,0.258,0.558,0.309,0.839c0.017,0.093-0.044,0.182-0.137,0.199
								c-0.073,0.013-0.143-0.021-0.178-0.082l-0.01-0.016c-0.258-0.442-0.592-0.744-1.004-0.923
								c-0.411-0.168-0.891-0.245-1.349-0.328l-0.04-0.007c-0.172-0.031-0.285-0.195-0.254-0.367
								C280.549,64.581,280.645,64.486,280.763,64.457z"/>
						</g>
						<g>
							<path style="fill:#0B334C;" d="M281.785,68.638c-0.174,0.721-0.678,1.218-1.126,1.11c-0.448-0.108-0.671-0.78-0.497-1.501
								s0.678-1.218,1.127-1.11S281.959,67.917,281.785,68.638z"/>
							<path style="fill:#0B334C;" d="M275.258,67.064c-0.174,0.721-0.678,1.218-1.126,1.11c-0.448-0.108-0.671-0.78-0.497-1.501
								c0.174-0.721,0.678-1.218,1.127-1.11S275.432,66.343,275.258,67.064z"/>
						</g>
						<g>
							<path style="fill:#0B334C;" d="M274.578,72.115c-0.238-0.026-0.441-0.139-0.633-0.266c-0.176-0.143-0.36-0.316-0.408-0.556
								C273.886,71.587,274.24,71.787,274.578,72.115z"/>
							<path style="fill:#0B334C;" d="M276.698,71.867c-0.696,0.222-1.503,0.138-2.165-0.282c-0.317-0.226-0.578-0.55-0.696-0.916
								c-0.138-0.361-0.136-0.745-0.079-1.103c0.106,0.352,0.181,0.693,0.355,0.98c0.155,0.292,0.362,0.549,0.643,0.716
								c0.259,0.197,0.576,0.313,0.904,0.409C275.99,71.764,276.337,71.823,276.698,71.867z"/>
						</g>
					</g>
				</g>
				<path style="fill:#0B334C;" d="M277.149,52.934c-2.249-0.479-4.574-0.307-6.713,0.428c0.127-0.667,0.063-1.45-0.38-1.645
					c-0.7-0.308-0.688,1.952-0.688,1.952s-2.501-1.597-3.117-0.615c-0.367,0.586,0.897,1.069,2.073,1.267
					c-0.642,0.364-1.264,0.768-1.837,1.246c-2.305,1.922-4.523,5-4.18,9.625c0.688,9.25,5.046,7.049,5.046,7.049l-0.671-4.112
					c0,0-1.947-0.346-2.745-2.659c-0.433-1.254-0.039-2.713,1.15-3.302c0.273-0.135,0.586-0.222,0.941-0.223
					c1.655-0.004,1.28,3.558,1.28,3.558s2.688,0.875,4.875-4.313c0,0,10.875,2.938,11.813,5.5l-0.1,4.411
					c0,0,1.35-3.224,1.663-6.911C285.811,61.211,284.185,54.433,277.149,52.934z"/>
			</g>
		</g>
		<g>
			<g>
				<g>
					<g>
						<path style="fill:#0B334C;" d="M296.026,288.709c-6.776,0.863-13.823,0.434-20.81-1.48
							c-28.431-7.789-45.226-37.256-37.439-65.686c3.772-13.773,12.682-25.252,25.089-32.323
							c12.407-7.071,26.825-8.889,40.596-5.115c28.431,7.787,45.226,37.253,37.439,65.685
							C335.027,271.234,316.818,286.06,296.026,288.709z M284.12,194.716c-5.286,0.674-10.442,2.386-15.212,5.106
							c-9.574,5.456-16.451,14.315-19.362,24.944c-6.01,21.942,6.952,44.682,28.893,50.694c21.948,6.008,44.682-6.953,50.692-28.893
							c6.01-21.942-6.952-44.682-28.893-50.692C294.905,194.414,289.446,194.038,284.12,194.716z"/>
					</g>
				</g>
				<g>
					<g>
						
							<rect x="249.785" y="123.753" transform="matrix(0.8688 -0.4952 0.4952 0.8688 -45.6364 147.699)" style="fill:#0B334C;" width="12.202" height="72.422"/>
					</g>
				</g>
				<g>
					
						<rect x="238.547" y="126.038" transform="matrix(0.8688 -0.4952 0.4952 0.8688 -39.2769 141.446)" style="fill:#2CD0D1;" width="17.433" height="37.597"/>
				</g>
			</g>
			<g>
				<g>
					<path style="fill:#FFCBA1;" d="M242.627,145.716c-0.001-0.003-0.001-0.006-0.002-0.009c0-0.03-0.01-0.05-0.02-0.08l-0.03-0.09
						c-1.16-3.39-2.32-6.91-3.35-10.4c-1.06-3.49-2.06-7-2.97-10.51c-1.58-6.13-2.94-12.29-3.81-18.39c2.62-1.34,5.3-2.59,8.01-3.79
						c2.593-1.157,5.234-2.225,7.886-3.265c-0.723-1.988-1.377-4.004-1.976-6.044c-0.526-1.792-0.804-4.45-1.339-6.876
						c-3.399,1.431-6.754,2.963-10.061,4.645c-1.18,0.61-2.37,1.23-3.54,1.87c-2.22,1.21-4.41,2.47-6.57,3.81l-0.113,0.072
						c-2.891,1.846-4.386,5.293-3.688,8.652c0.004,0.019,0.008,0.037,0.012,0.056c0.46,2.19,0.96,4.36,1.53,6.5
						c0.41,1.59,0.86,3.17,1.36,4.73c0.54,1.84,1.16,3.64,1.76,5.44c0.64,1.8,1.27,3.59,1.96,5.35
						c2.69,7.009,5.74,13.749,9.259,20.398c0.01,1.931,0.091,6.086,0.607,6.138c0.672,0.068,1.283-2.963,1.283-2.963
						s-0.163,5.24,0.772,5.159c0.934-0.081,0.842-4.421,0.842-4.421s1.5,5.243,2.196,4.722c0.696-0.522-0.365-4.65-0.365-4.65
						s2.241,4.622,2.843,4.129s-1.779-6.374-1.779-6.374s2.715,0.811,3.015,0C246.58,148.896,243.868,146.686,242.627,145.716z"/>
					
						<path style="fill:none;stroke:#0B334C;stroke-width:0.75;stroke-linecap:round;stroke-linejoin:round;stroke-miterlimit:10;" d="
						M230.683,105.13c0,0,1.813,1.438,1.688,1.125s-0.875-3.063-0.875-3.063"/>
				</g>
				<path style="fill:#F64652;" d="M243.746,85.942c0,0,16.061-7.356,19.905-3.24c3.845,4.115,2.72,10.99-1.78,12.24
					s-15.25,6-15.25,6L243.746,85.942z"/>
			</g>
		</g>
	</g>
</g>
<g id="DESIGNED_BY_FREEPIK">
	<g id="XMLID_258_">
		<g id="XMLID_287_">
			<g id="XMLID_306_">
				<path id="XMLID_314_" style="fill:#9EB7C7;" d="M385.104,465.465c-0.433,0.443-0.804,0.932-1.108,1.453l-0.465-0.241
					c-0.067-0.297-0.35-0.502-0.659-0.466c-0.331,0.039-0.567,0.339-0.529,0.67c0.039,0.331,0.339,0.567,0.67,0.528
					c0.066-0.007,0.127-0.025,0.184-0.052l0.451,0.234c-0.251,0.554-0.433,1.139-0.539,1.743l0.747,0.132
					c0.229-1.306,0.85-2.507,1.792-3.473L385.104,465.465z"/>
				<path id="XMLID_313_" style="fill:#9EB7C7;" d="M390.591,463.164c-0.171,0-0.341,0.006-0.509,0.017l-0.074-0.626
					c0.188-0.149,0.296-0.389,0.266-0.645c-0.046-0.393-0.402-0.674-0.795-0.628c-0.394,0.046-0.675,0.402-0.628,0.796
					c0.03,0.254,0.189,0.461,0.404,0.563l0.073,0.624c-0.714,0.116-1.402,0.332-2.06,0.646l0.327,0.685
					c0.935-0.447,1.941-0.674,2.995-0.674c0.497,0,0.993,0.053,1.476,0.158l0.16-0.741
					C391.692,463.222,391.142,463.164,390.591,463.164z"/>
				<path id="XMLID_312_" style="fill:#9EB7C7;" d="M397.194,465.711c0.331-0.04,0.566-0.341,0.525-0.672
					c-0.04-0.331-0.341-0.566-0.672-0.525c-0.31,0.038-0.535,0.304-0.53,0.608l-0.416,0.363c-0.418-0.43-0.89-0.813-1.407-1.14
					l-0.404,0.642c1.135,0.715,2.021,1.727,2.564,2.925l0.69-0.313c-0.251-0.554-0.567-1.071-0.942-1.545l0.402-0.351
					C397.065,465.715,397.128,465.719,397.194,465.711z"/>
				<path id="XMLID_311_" style="fill:#9EB7C7;" d="M390.044,473.372c-0.386,0.023-0.775,0.035-1.157,0.035
					c-0.88,0-1.733-0.061-2.478-0.18c-0.391-0.062-0.846-0.154-1.271-0.292c1.047,1.861,3.069,3.125,5.389,3.125
					c2.855,0,5.263-1.916,5.949-4.503c-0.682,0.449-1.505,0.825-2.458,1.122C392.838,473.047,391.463,473.287,390.044,473.372z"/>
				<path id="XMLID_307_" style="fill:#9EB7C7;" d="M390.591,464.68c-3.352,0-6.079,2.666-6.079,5.943
					c0,0.425,0.046,0.849,0.137,1.261c0.674,0.483,2.706,0.891,5.348,0.731c2.88-0.174,5.297-0.958,6.672-2.159
					c-0.005-0.194-0.02-0.39-0.045-0.581C396.244,466.914,393.65,464.68,390.591,464.68z M388.432,471.195
					c-1.02,0-1.85-0.83-1.85-1.85c0-1.021,0.83-1.851,1.85-1.851c1.02,0,1.85,0.83,1.85,1.851
					C390.282,470.365,389.452,471.195,388.432,471.195z M393.169,470.287c-0.75,0-1.36-0.61-1.36-1.36s0.61-1.36,1.36-1.36
					s1.36,0.61,1.36,1.36S393.919,470.287,393.169,470.287z"/>
			</g>
			<path id="XMLID_304_" style="fill:#9EB7C7;" d="M406.595,466.547c-0.295-0.116-0.806-0.31-1.383-0.238
				c-0.551,0.069-0.844,0.341-0.844,1.007v0.866h2.229v1.717h-2.229v5.455h-1.932v-5.455h-1.339v-1.717h1.339v-0.889
				c0-1.68,0.896-2.782,2.568-2.782c0.643,0,1.157,0.121,1.59,0.308V466.547z"/>
			<path id="XMLID_302_" style="fill:#9EB7C7;" d="M411.297,469.878c-0.177-0.029-0.357-0.046-0.525-0.046
				c-0.896,0-1.51,0.548-1.51,1.613v3.908h-1.933v-7.172h1.873v0.784c0.451-0.673,1.14-0.977,2.02-0.977
				c0.414,0,0.848,0.128,1.095,0.337L411.297,469.878z"/>
			<path id="XMLID_299_" style="fill:#9EB7C7;" d="M418.965,471.757c0,0.222-0.016,0.488-0.037,0.651h-5.085
				c0.207,1.036,0.933,1.487,1.843,1.487c0.622,0,1.295-0.252,1.813-0.689l1.133,1.243c-0.814,0.748-1.851,1.089-3.057,1.089
				c-2.198,0-3.724-1.496-3.724-3.753c0-2.258,1.48-3.797,3.627-3.797C417.543,467.99,418.958,469.522,418.965,471.757z
				 M413.851,471.091h3.175c-0.178-0.918-0.732-1.437-1.561-1.437C414.554,469.655,414.021,470.203,413.851,471.091z"/>
			<path id="XMLID_296_" style="fill:#9EB7C7;" d="M426.619,471.757c0,0.222-0.016,0.488-0.037,0.651h-5.085
				c0.207,1.036,0.933,1.487,1.843,1.487c0.622,0,1.296-0.252,1.814-0.689l1.133,1.243c-0.814,0.748-1.851,1.089-3.058,1.089
				c-2.198,0-3.723-1.496-3.723-3.753c0-2.258,1.48-3.797,3.627-3.797C425.197,467.99,426.611,469.522,426.619,471.757z
				 M421.504,471.091h3.175c-0.178-0.918-0.733-1.437-1.562-1.437C422.208,469.655,421.674,470.203,421.504,471.091z"/>
			<path id="XMLID_293_" style="fill:#9EB7C7;" d="M434.964,471.764c0,2.154-1.495,3.775-3.472,3.775
				c-0.962,0-1.643-0.378-2.109-0.933v3.708h-1.925v-10.133h1.888v0.792c0.467-0.585,1.154-0.984,2.139-0.984
				C433.469,467.99,434.964,469.611,434.964,471.764z M429.287,471.764c0,1.133,0.748,1.977,1.844,1.977
				c1.14,0,1.85-0.881,1.85-1.977c0-1.095-0.71-1.976-1.85-1.976C430.035,469.789,429.287,470.632,429.287,471.764z"/>
			<path id="XMLID_290_" style="fill:#9EB7C7;" d="M438.068,465.836c0,0.696-0.541,1.229-1.236,1.229
				c-0.696,0-1.229-0.533-1.229-1.229c0-0.695,0.532-1.243,1.229-1.243C437.527,464.592,438.068,465.14,438.068,465.836z
				 M437.808,475.354h-1.932v-7.172h1.932V475.354z"/>
			<path id="XMLID_288_" style="fill:#9EB7C7;" d="M441.032,470.736l2.702-2.554h2.368l-3.478,3.375l3.501,3.797h-2.376
				l-2.717-2.901v2.901H439.1v-10.658h1.932V470.736z"/>
		</g>
		<g id="XMLID_259_">
			<path id="XMLID_284_" style="fill:#9EB7C7;" d="M309.412,475.29v-1.055c-0.527,0.718-1.391,1.23-2.387,1.23
				c-1.846,0-3.149-1.406-3.149-3.706c0-2.256,1.289-3.721,3.149-3.721c0.952,0,1.816,0.469,2.387,1.245v-3.765h1.099v9.771H309.412
				z M309.412,473.371v-3.208c-0.395-0.615-1.245-1.143-2.124-1.143c-1.42,0-2.27,1.172-2.27,2.739c0,1.567,0.85,2.725,2.27,2.725
				C308.167,474.484,309.017,473.986,309.412,473.371z"/>
			<path id="XMLID_281_" style="fill:#9EB7C7;" d="M311.932,471.745c0-2.051,1.465-3.706,3.486-3.706
				c2.139,0,3.398,1.67,3.398,3.794v0.278h-5.727c0.088,1.333,1.025,2.446,2.549,2.446c0.806,0,1.626-0.322,2.182-0.894l0.527,0.718
				c-0.703,0.703-1.655,1.084-2.812,1.084C313.44,475.465,311.932,473.957,311.932,471.745z M315.403,468.947
				c-1.509,0-2.256,1.274-2.314,2.358h4.644C317.718,470.25,317.015,468.947,315.403,468.947z"/>
			<path id="XMLID_279_" style="fill:#9EB7C7;" d="M319.607,474.352l0.571-0.791c0.469,0.542,1.362,1.011,2.329,1.011
				c1.084,0,1.67-0.513,1.67-1.216c0-1.714-4.38-0.659-4.38-3.281c0-1.099,0.952-2.036,2.636-2.036c1.202,0,2.051,0.454,2.623,1.025
				l-0.513,0.762c-0.424-0.513-1.201-0.894-2.109-0.894c-0.966,0-1.567,0.483-1.567,1.113c0,1.553,4.379,0.527,4.379,3.281
				c0,1.187-0.952,2.139-2.783,2.139C321.306,475.465,320.325,475.114,319.607,474.352z"/>
			<path id="XMLID_276_" style="fill:#9EB7C7;" d="M326.477,466.471c0-0.41,0.337-0.747,0.732-0.747c0.41,0,0.747,0.337,0.747,0.747
				c0,0.41-0.337,0.732-0.747,0.732C326.814,467.204,326.477,466.881,326.477,466.471z M326.667,475.29v-7.075h1.099v7.075H326.667z
				"/>
			<path id="XMLID_273_" style="fill:#9EB7C7;" d="M329.582,477.106l0.556-0.82c0.586,0.703,1.289,0.967,2.3,0.967
				c1.172,0,2.271-0.571,2.271-2.124v-1.011c-0.513,0.718-1.377,1.26-2.373,1.26c-1.846,0-3.149-1.377-3.149-3.662
				c0-2.271,1.289-3.677,3.149-3.677c0.952,0,1.802,0.469,2.373,1.245v-1.069h1.099v6.87c0,2.344-1.641,3.076-3.369,3.076
				C331.237,478.161,330.417,477.925,329.582,477.106z M334.708,473.253v-3.091c-0.381-0.615-1.23-1.143-2.109-1.143
				c-1.421,0-2.27,1.128-2.27,2.695c0,1.553,0.849,2.695,2.27,2.695C333.478,474.411,334.328,473.869,334.708,473.253z"/>
			<path id="XMLID_271_" style="fill:#9EB7C7;" d="M342.413,475.29v-4.629c0-1.245-0.63-1.641-1.582-1.641
				c-0.864,0-1.685,0.527-2.094,1.099v5.171h-1.099v-7.075h1.099v1.025c0.498-0.586,1.464-1.201,2.519-1.201
				c1.479,0,2.256,0.747,2.256,2.285v4.966H342.413z"/>
			<path id="XMLID_268_" style="fill:#9EB7C7;" d="M344.932,471.745c0-2.051,1.465-3.706,3.486-3.706
				c2.139,0,3.398,1.67,3.398,3.794v0.278h-5.727c0.088,1.333,1.025,2.446,2.548,2.446c0.806,0,1.626-0.322,2.183-0.894l0.527,0.718
				c-0.703,0.703-1.655,1.084-2.813,1.084C346.441,475.465,344.932,473.957,344.932,471.745z M348.404,468.947
				c-1.509,0-2.256,1.274-2.314,2.358h4.643C350.718,470.25,350.015,468.947,348.404,468.947z"/>
			<path id="XMLID_265_" style="fill:#9EB7C7;" d="M358.35,475.29v-1.055c-0.527,0.718-1.392,1.23-2.388,1.23
				c-1.845,0-3.149-1.406-3.149-3.706c0-2.256,1.289-3.721,3.149-3.721c0.952,0,1.817,0.469,2.388,1.245v-3.765h1.098v9.771H358.35z
				 M358.35,473.371v-3.208c-0.396-0.615-1.245-1.143-2.124-1.143c-1.421,0-2.271,1.172-2.271,2.739c0,1.567,0.85,2.725,2.271,2.725
				C357.105,474.484,357.954,473.986,358.35,473.371z"/>
			<path id="XMLID_262_" style="fill:#9EB7C7;" d="M364.692,475.29v-9.771h1.099v3.765c0.571-0.776,1.421-1.245,2.388-1.245
				c1.845,0,3.149,1.465,3.149,3.721c0,2.3-1.304,3.706-3.149,3.706c-0.996,0-1.86-0.513-2.388-1.23v1.055H364.692z M367.9,474.484
				c1.436,0,2.285-1.157,2.285-2.725c0-1.567-0.85-2.739-2.285-2.739c-0.864,0-1.729,0.527-2.109,1.143v3.208
				C366.171,473.986,367.036,474.484,367.9,474.484z"/>
			<path id="XMLID_260_" style="fill:#9EB7C7;" d="M372.528,477.062c0.161,0.073,0.425,0.117,0.6,0.117
				c0.483,0,0.806-0.161,1.055-0.747l0.469-1.069l-2.959-7.148h1.186l2.358,5.801l2.344-5.801h1.2l-3.544,8.511
				c-0.425,1.024-1.143,1.421-2.08,1.436c-0.234,0-0.601-0.044-0.806-0.104L372.528,477.062z"/>
		</g>
	</g>
</g>
</svg>
