<?xml version="1.0" encoding="utf-8"?>
<!-- Generator: Adobe Illustrator 27.5.0, SVG Export Plug-In . SVG Version: 6.00 Build 0)  -->
<svg version="1.1" xmlns="http://www.w3.org/2000/svg" xmlns:xlink="http://www.w3.org/1999/xlink" x="0px" y="0px"
	 viewBox="0 0 500 500" style="enable-background:new 0 0 500 500;" xml:space="preserve">
<g id="BACKGROUND">
	<rect id="XMLID_1_" style="fill:#76AADB;" width="500" height="500"/>
</g>
<g id="OBJECTS">
	<text id="XMLID_47_" transform="matrix(1 0 0 1 115.2002 48.4932)"><tspan x="0" y="0" style="fill:#FFFFFF; font-family:'Poppins-Black'; font-size:20.6607px;">&lt;PROGRAMMERS</tspan><tspan x="176.689" y="0" style="fill:#FFFFFF; font-family:'Poppins-Medium'; font-size:20.6607px;"> CONCEPT&gt;</tspan></text>
	<g id="XMLID_341_">
		<defs>
			<rect id="XMLID_7_" width="500" height="500"/>
		</defs>
		<clipPath id="XMLID_00000081641691805662252880000018017638230300966537_">
			<use xlink:href="#XMLID_7_"  style="overflow:visible;"/>
		</clipPath>
		<g id="XMLID_436_" style="clip-path:url(#XMLID_00000081641691805662252880000018017638230300966537_);">
			<g id="XMLID_327_">
				<g id="XMLID_332_">
					<g id="XMLID_45_">
						<rect id="XMLID_42_" x="282.408" y="387.086" style="fill:#878787;" width="56.126" height="27.497"/>
						<path id="XMLID_37_" style="fill:#131D1F;" d="M436.647,358.895H187.806c-1.938,0-3.509-1.571-3.509-3.509V200.692
							c0-3.255,2.639-5.894,5.894-5.894h240.561c3.255,0,5.895,2.639,5.895,5.894V358.895z"/>
						<path id="XMLID_40_" style="fill:#FFFFFF;" d="M426.572,349.581H194.371c-1.122,0-2.033-0.91-2.033-2.033V206.55
							c0-2.372,1.923-4.294,4.294-4.294H424.31c2.372,0,4.294,1.923,4.294,4.294v140.998
							C428.605,348.671,427.695,349.581,426.572,349.581z"/>
						<path id="XMLID_38_" style="fill:#C6C6C6;" d="M184.297,357.799h252.35v25.935c0,1.851-1.501,3.352-3.352,3.352H187.649
							c-1.851,0-3.352-1.501-3.352-3.352V357.799z"/>
						<path id="XMLID_43_" style="fill:#C6C6C6;" d="M355.449,417.214h-89.956c-0.345,0-0.625-0.28-0.625-0.625v-5.766
							c0-0.345,0.28-0.625,0.625-0.625h84.702c3.246,0,5.878,2.632,5.878,5.878v0.513
							C356.074,416.934,355.795,417.214,355.449,417.214z"/>
						<path id="XMLID_44_" style="fill:#EDEEF0;" d="M314.256,372.443c0,2.79-2.262,5.052-5.052,5.052
							c-2.79,0-5.052-2.262-5.052-5.052c0-2.79,2.262-5.052,5.052-5.052C311.995,367.391,314.256,369.653,314.256,372.443z"/>
					</g>
					<g id="XMLID_65_">
						<rect id="XMLID_46_" x="280.237" y="179.158" style="fill:#131D1F;" width="111.827" height="170.423"/>
						<g id="XMLID_66_">
							<g id="XMLID_191_">
								<rect id="XMLID_253_" x="361.726" y="203.835" style="fill:#BF0411;" width="22.344" height="5.664"/>
								<g id="XMLID_192_">
									<rect id="XMLID_250_" x="294.694" y="191.938" style="fill:#FFFFFF;" width="35.434" height="5.664"/>
									<rect id="XMLID_247_" x="339.382" y="191.938" style="fill:#E6B54A;" width="44.688" height="5.664"/>
									<rect id="XMLID_244_" x="328.21" y="203.835" style="fill:#BF0411;" width="22.344" height="5.664"/>
									<rect id="XMLID_238_" x="294.694" y="203.835" style="fill:#BF0411;" width="22.344" height="5.664"/>
									<rect id="XMLID_235_" x="319.424" y="215.173" style="fill:#FFFFFF;" width="24.729" height="5.664"/>
									<rect id="XMLID_232_" x="350.554" y="215.173" style="fill:#FFFFFF;" width="33.516" height="5.664"/>
									<rect id="XMLID_229_" x="318.949" y="226.017" style="fill:#FFFFFF;" width="20.33" height="5.664"/>
									<rect id="XMLID_226_" x="343.203" y="226.017" style="fill:#FFFFFF;" width="20.33" height="5.664"/>
									<rect id="XMLID_223_" x="367.458" y="226.017" style="fill:#FFFFFF;" width="16.613" height="5.664"/>
									<rect id="XMLID_220_" x="294.694" y="236.86" style="fill:#E6B54A;" width="29.77" height="5.664"/>
									<rect id="XMLID_217_" x="328.21" y="236.86" style="fill:#FFFFFF;" width="55.86" height="5.664"/>
									<rect id="XMLID_214_" x="318.949" y="247.704" style="fill:#FFFFFF;" width="20.33" height="5.664"/>
									<rect id="XMLID_211_" x="343.203" y="247.704" style="fill:#FFFFFF;" width="40.867" height="5.664"/>
									<rect id="XMLID_208_" x="294.694" y="258.547" style="fill:#E6B54A;" width="89.376" height="5.664"/>
									<rect id="XMLID_205_" x="327.94" y="269.391" style="fill:#BF0411;" width="56.13" height="5.664"/>
									<rect id="XMLID_202_" x="367.458" y="280.234" style="fill:#FFFFFF;" width="16.613" height="5.664"/>
									<rect id="XMLID_199_" x="347.699" y="280.234" style="fill:#FFFFFF;" width="16.613" height="5.664"/>
									<rect id="XMLID_196_" x="327.94" y="280.234" style="fill:#FFFFFF;" width="16.613" height="5.664"/>
									<rect id="XMLID_193_" x="308.182" y="280.234" style="fill:#FFFFFF;" width="16.613" height="5.664"/>
								</g>
							</g>
							<g id="XMLID_67_">
								<rect id="XMLID_188_" x="361.726" y="303.775" style="fill:#BF0411;" width="22.344" height="5.664"/>
								<g id="XMLID_69_">
									<rect id="XMLID_185_" x="294.694" y="291.878" style="fill:#FFFFFF;" width="35.434" height="5.664"/>
									<rect id="XMLID_182_" x="339.382" y="291.878" style="fill:#E6B54A;" width="44.688" height="5.664"/>
									<rect id="XMLID_179_" x="328.21" y="303.775" style="fill:#BF0411;" width="22.344" height="5.664"/>
									<rect id="XMLID_176_" x="294.694" y="303.775" style="fill:#BF0411;" width="22.344" height="5.664"/>
									<rect id="XMLID_137_" x="319.424" y="315.113" style="fill:#FFFFFF;" width="24.729" height="5.664"/>
									<rect id="XMLID_134_" x="350.554" y="315.113" style="fill:#FFFFFF;" width="33.516" height="5.664"/>
									<rect id="XMLID_131_" x="318.949" y="325.957" style="fill:#FFFFFF;" width="20.33" height="5.664"/>
									<rect id="XMLID_128_" x="343.203" y="325.957" style="fill:#FFFFFF;" width="20.33" height="5.664"/>
									<rect id="XMLID_125_" x="367.458" y="325.957" style="fill:#FFFFFF;" width="16.613" height="5.664"/>
									<rect id="XMLID_122_" x="294.694" y="336.801" style="fill:#E6B54A;" width="29.77" height="5.664"/>
									<rect id="XMLID_118_" x="328.21" y="336.801" style="fill:#FFFFFF;" width="55.86" height="5.664"/>
								</g>
							</g>
						</g>
						<g id="XMLID_261_">
							<g id="XMLID_364_">
								<rect id="XMLID_424_" x="361.726" y="115.791" style="fill:#BF0411;" width="22.344" height="5.664"/>
								<g id="XMLID_365_">
									<rect id="XMLID_420_" x="294.694" y="103.894" style="fill:#FFFFFF;" width="35.434" height="5.664"/>
									<rect id="XMLID_417_" x="339.382" y="103.894" style="fill:#E6B54A;" width="44.688" height="5.664"/>
									<rect id="XMLID_414_" x="328.21" y="115.791" style="fill:#BF0411;" width="22.344" height="5.664"/>
									<rect id="XMLID_411_" x="294.694" y="115.791" style="fill:#BF0411;" width="22.344" height="5.664"/>
									<rect id="XMLID_408_" x="319.424" y="127.13" style="fill:#FFFFFF;" width="24.729" height="5.664"/>
									<rect id="XMLID_405_" x="350.554" y="127.13" style="fill:#FFFFFF;" width="33.516" height="5.664"/>
									<rect id="XMLID_402_" x="318.949" y="137.973" style="fill:#FFFFFF;" width="20.33" height="5.664"/>
									<rect id="XMLID_399_" x="343.203" y="137.973" style="fill:#FFFFFF;" width="20.33" height="5.664"/>
									<rect id="XMLID_396_" x="367.458" y="137.973" style="fill:#FFFFFF;" width="16.613" height="5.664"/>
									<rect id="XMLID_393_" x="294.694" y="148.817" style="fill:#E6B54A;" width="29.77" height="5.664"/>
									<rect id="XMLID_390_" x="328.21" y="148.817" style="fill:#FFFFFF;" width="55.86" height="5.664"/>
									<rect id="XMLID_387_" x="318.949" y="159.66" style="fill:#FFFFFF;" width="20.33" height="5.664"/>
									<rect id="XMLID_384_" x="343.203" y="159.66" style="fill:#FFFFFF;" width="40.867" height="5.664"/>
									<rect id="XMLID_381_" x="294.694" y="170.503" style="fill:#E6B54A;" width="89.376" height="5.664"/>
								</g>
							</g>
						</g>
					</g>
					<path id="XMLID_56_" style="fill:#FFFFFF;" d="M475.021,429.315H3.88c-3.953,0-7.157-3.204-7.157-7.157v-5.023h485.455v5.023
						C482.178,426.111,478.974,429.315,475.021,429.315z"/>
					<path id="XMLID_259_" style="fill:#EDEEF0;" d="M442.485,441.495H36.416c-3.953,0-7.157-3.204-7.157-7.157v-5.023h420.383
						v5.023C449.642,438.291,446.438,441.495,442.485,441.495z"/>
					<g id="XMLID_258_">
						<g id="XMLID_13_">
							<g id="XMLID_433_">
								<g id="XMLID_18_">
									<path id="XMLID_29_" style="fill:#9D9D9C;" d="M453.34,416.027h-33.387c-3.28,0-5.938-2.659-5.938-5.938v-82.042
										c0-3.28,2.659-5.938,5.938-5.938h33.387c3.28,0,5.938,2.659,5.938,5.938v82.042
										C459.279,413.368,456.62,416.027,453.34,416.027z"/>
								</g>
								<g id="XMLID_17_">
									<path id="XMLID_34_" style="fill:#C6C6C6;" d="M453.34,417.214h-33.387c-3.929,0-7.126-3.197-7.126-7.126v-82.042
										c0-3.929,3.197-7.126,7.126-7.126h33.387c3.929,0,7.126,3.197,7.126,7.126v82.042
										C460.466,414.017,457.27,417.214,453.34,417.214z M419.953,323.296c-2.62,0-4.751,2.131-4.751,4.751v82.042
										c0,2.62,2.131,4.751,4.751,4.751h33.387c2.619,0,4.751-2.131,4.751-4.751v-82.042c0-2.62-2.131-4.751-4.751-4.751H419.953z
										"/>
								</g>
							</g>
							<g id="XMLID_429_">
								<g id="XMLID_16_">
									<path id="XMLID_28_" style="fill:#0C0C0C;" d="M453.413,416.027h-33.387c-3.28,0-5.938-2.659-5.938-5.938v-82.042
										c0-3.28,2.659-5.938,5.938-5.938h33.387c3.28,0,5.938,2.659,5.938,5.938v82.042
										C459.351,413.368,456.692,416.027,453.413,416.027z"/>
								</g>
								<g id="XMLID_15_">
									<path id="XMLID_30_" style="fill:#9D9D9C;" d="M453.413,416.472h-33.387c-3.52,0-6.384-2.864-6.384-6.384v-82.042
										c0-3.52,2.864-6.384,6.384-6.384h33.387c3.52,0,6.384,2.864,6.384,6.384v82.042
										C459.796,413.608,456.933,416.472,453.413,416.472z M420.025,322.553c-3.029,0-5.493,2.464-5.493,5.493v82.042
										c0,3.029,2.464,5.493,5.493,5.493h33.387c3.029,0,5.493-2.464,5.493-5.493v-82.042c0-3.029-2.464-5.493-5.493-5.493
										H420.025z"/>
								</g>
							</g>
							<g id="XMLID_428_">
								<path id="XMLID_26_" style="fill:#131D1F;" d="M452.834,414.476h-32.375c-2.746,0-4.972-2.226-4.972-4.972v-80.971
									c0-2.746,2.226-4.972,4.972-4.972h32.375c2.746,0,4.972,2.226,4.972,4.972v80.971
									C457.806,412.25,455.58,414.476,452.834,414.476z"/>
							</g>
							<g id="XMLID_425_">
								<rect id="XMLID_23_" x="457.806" y="328.686" style="fill:#141414;" width="2.397" height="1.163"/>
							</g>
							<g id="XMLID_421_">
								<rect id="XMLID_19_" x="413.09" y="328.686" style="fill:#141414;" width="2.398" height="1.163"/>
							</g>
							<g id="XMLID_242_">
								<path id="XMLID_14_" style="fill:#0C0C0C;" d="M448.001,323.561v0.543c0,1.535-1.256,2.79-2.79,2.79h-17.129
									c-1.535,0-2.79-1.255-2.79-2.79v-0.543"/>
							</g>
							<g id="XMLID_241_">
								<path id="XMLID_41_" d="M439.655,325.189h-5.639c-0.229,0-0.417-0.188-0.417-0.417l0,0c0-0.229,0.188-0.417,0.417-0.417
									h5.639c0.229,0,0.417,0.188,0.417,0.417l0,0C440.071,325.001,439.884,325.189,439.655,325.189z"/>
							</g>
							<g id="XMLID_240_">
								<path id="XMLID_39_" d="M442.454,324.753c0,0.262-0.212,0.475-0.475,0.475s-0.475-0.213-0.475-0.475
									c0-0.262,0.213-0.475,0.475-0.475S442.454,324.491,442.454,324.753z"/>
							</g>
						</g>
						<g id="XMLID_20_">
							<rect id="XMLID_318_" x="446.177" y="343.078" style="fill:#BF0411;" width="9.262" height="4.119"/>
							<g id="XMLID_22_">
								<rect id="XMLID_315_" x="418.391" y="334.426" style="fill:#FFFFFF;" width="14.688" height="4.119"/>
								<rect id="XMLID_312_" x="436.915" y="334.426" style="fill:#E6B54A;" width="18.524" height="4.119"/>
								<rect id="XMLID_309_" x="432.284" y="343.078" style="fill:#BF0411;" width="9.262" height="4.119"/>
								<rect id="XMLID_306_" x="418.391" y="343.078" style="fill:#BF0411;" width="9.262" height="4.119"/>
								<rect id="XMLID_303_" x="428.642" y="351.324" style="fill:#FFFFFF;" width="10.251" height="4.119"/>
								<rect id="XMLID_300_" x="441.546" y="351.324" style="fill:#FFFFFF;" width="13.893" height="4.119"/>
								<rect id="XMLID_297_" x="428.445" y="359.21" style="fill:#FFFFFF;" width="8.427" height="4.119"/>
								<rect id="XMLID_294_" x="438.499" y="359.21" style="fill:#FFFFFF;" width="8.427" height="4.119"/>
								<rect id="XMLID_291_" x="448.552" y="359.21" style="fill:#FFFFFF;" width="6.886" height="4.119"/>
								<rect id="XMLID_288_" x="418.391" y="367.096" style="fill:#E6B54A;" width="12.34" height="4.119"/>
								<rect id="XMLID_285_" x="432.284" y="367.096" style="fill:#FFFFFF;" width="23.154" height="4.119"/>
								<rect id="XMLID_282_" x="428.445" y="374.982" style="fill:#FFFFFF;" width="8.427" height="4.119"/>
								<rect id="XMLID_279_" x="438.499" y="374.982" style="fill:#FFFFFF;" width="16.94" height="4.119"/>
								<rect id="XMLID_276_" x="418.391" y="382.868" style="fill:#E6B54A;" width="37.047" height="4.119"/>
								<rect id="XMLID_273_" x="432.172" y="390.754" style="fill:#BF0411;" width="23.266" height="4.119"/>
								<rect id="XMLID_270_" x="448.552" y="398.64" style="fill:#FFFFFF;" width="6.886" height="4.119"/>
								<rect id="XMLID_266_" x="440.362" y="398.64" style="fill:#FFFFFF;" width="6.886" height="4.119"/>
								<rect id="XMLID_260_" x="432.172" y="398.64" style="fill:#FFFFFF;" width="6.886" height="4.119"/>
								<rect id="XMLID_257_" x="423.982" y="398.64" style="fill:#FFFFFF;" width="6.886" height="4.119"/>
							</g>
						</g>
						<g id="XMLID_333_">
							<rect id="XMLID_485_" x="446.177" y="303.31" style="fill:#BF0411;" width="9.262" height="4.119"/>
							<g id="XMLID_338_">
								<rect id="XMLID_482_" x="418.391" y="294.658" style="fill:#FFFFFF;" width="14.688" height="4.119"/>
								<rect id="XMLID_479_" x="436.915" y="294.658" style="fill:#E6B54A;" width="18.524" height="4.119"/>
								<rect id="XMLID_476_" x="432.284" y="303.31" style="fill:#BF0411;" width="9.262" height="4.119"/>
								<rect id="XMLID_473_" x="418.391" y="303.31" style="fill:#BF0411;" width="9.262" height="4.119"/>
								<rect id="XMLID_470_" x="428.642" y="311.556" style="fill:#FFFFFF;" width="10.251" height="4.119"/>
								<rect id="XMLID_467_" x="441.546" y="311.556" style="fill:#FFFFFF;" width="13.893" height="4.119"/>
								<rect id="XMLID_464_" x="428.445" y="319.442" style="fill:#FFFFFF;" width="8.427" height="4.119"/>
								<rect id="XMLID_461_" x="438.499" y="319.442" style="fill:#FFFFFF;" width="8.427" height="4.119"/>
								<rect id="XMLID_458_" x="448.552" y="319.442" style="fill:#FFFFFF;" width="6.886" height="4.119"/>
								<rect id="XMLID_437_" x="448.552" y="327.208" style="fill:#FFFFFF;" width="6.886" height="4.119"/>
							</g>
						</g>
					</g>
					<g id="XMLID_12_">
						<path id="XMLID_2_" d="M297.152,412.636H98.03c-2.288,0-4.142-1.854-4.142-4.142V279.85c0-2.288,1.854-4.142,4.142-4.142
							h199.122c2.288,0,4.142,1.854,4.142,4.142v128.644C301.294,410.782,299.44,412.636,297.152,412.636z"/>
						<path id="XMLID_3_" style="fill:#FFFFFF;" d="M292.443,404.544H102.74c-1.122,0-2.033-0.91-2.033-2.033v-116.76
							c0-1.122,0.91-2.033,2.033-2.033h189.702c1.122,0,2.033,0.91,2.033,2.033v116.76
							C294.475,403.634,293.565,404.544,292.443,404.544z"/>
						<path id="XMLID_5_" style="fill:#878787;" d="M70.725,410.193v3.474c0,0.264,0.131,0.508,0.352,0.652
							c1.121,0.731,4.748,2.895,8.374,2.895c4.363,0,236.746,0,236.746,0s4.976-0.263,7.981-2.776
							c0.181-0.151,0.279-0.381,0.279-0.617v-3.277c0-0.611-0.495-1.106-1.106-1.106H71.479
							C71.063,409.439,70.725,409.776,70.725,410.193z"/>
						<path id="XMLID_4_" style="fill:#C6C6C6;" d="M324.164,414.194H70.753c-0.016,0-0.028-0.013-0.028-0.028v-4.243
							c0-0.267,0.217-0.484,0.484-0.484H323.87c0.324,0,0.587,0.263,0.587,0.587v3.874
							C324.458,414.062,324.326,414.194,324.164,414.194z"/>
						<rect id="XMLID_6_" x="174.769" y="409.439" style="fill:#878787;" width="45.645" height="2.377"/>
						<path id="XMLID_8_" style="opacity:0.44;fill:#FFFFFF;" d="M125.561,412.678H80.247c-0.891,0-1.62-0.729-1.62-1.62l0,0
							c0-0.891,0.729-1.62,1.62-1.62h45.314c0.891,0,1.62,0.729,1.62,1.62l0,0C127.181,411.95,126.452,412.678,125.561,412.678z"/>
						<path id="XMLID_11_" style="opacity:0.44;fill:#FFFFFF;" d="M281.059,412.678h-45.314c-0.891,0-1.62-0.729-1.62-1.62l0,0
							c0-0.891,0.729-1.62,1.62-1.62h45.314c0.891,0,1.62,0.729,1.62,1.62l0,0C282.679,411.95,281.95,412.678,281.059,412.678z"/>
						<path id="XMLID_10_" style="opacity:0.44;fill:#FFFFFF;" d="M150.621,412.678h-14.642c-0.891,0-1.62-0.729-1.62-1.62l0,0
							c0-0.891,0.729-1.62,1.62-1.62h14.642c0.891,0,1.62,0.729,1.62,1.62l0,0C152.241,411.95,151.512,412.678,150.621,412.678z"/>
					</g>
					<g id="XMLID_256_">
						<rect id="XMLID_9_" x="141.678" y="234.121" style="fill:#131D1F;" width="111.827" height="170.423"/>
						<g id="XMLID_60_">
							<g id="XMLID_59_">
								<rect id="XMLID_51_" x="219.935" y="261.537" style="fill:#BF0411;" width="22.344" height="5.664"/>
								<g id="XMLID_49_">
									<rect id="XMLID_33_" x="152.903" y="249.64" style="fill:#FFFFFF;" width="35.434" height="5.664"/>
									<rect id="XMLID_50_" x="197.591" y="249.64" style="fill:#E6B54A;" width="44.688" height="5.664"/>
									<rect id="XMLID_52_" x="186.419" y="261.537" style="fill:#BF0411;" width="22.344" height="5.664"/>
									<rect id="XMLID_55_" x="152.903" y="261.537" style="fill:#BF0411;" width="22.344" height="5.664"/>
									<rect id="XMLID_53_" x="177.633" y="272.876" style="fill:#FFFFFF;" width="24.729" height="5.664"/>
									<rect id="XMLID_54_" x="208.763" y="272.876" style="fill:#FFFFFF;" width="33.516" height="5.664"/>
									<rect id="XMLID_57_" x="177.158" y="283.719" style="fill:#FFFFFF;" width="20.33" height="5.664"/>
									<rect id="XMLID_63_" x="201.412" y="283.719" style="fill:#FFFFFF;" width="20.33" height="5.664"/>
									<rect id="XMLID_78_" x="225.667" y="283.719" style="fill:#FFFFFF;" width="16.613" height="5.664"/>
									<rect id="XMLID_81_" x="152.903" y="294.563" style="fill:#E6B54A;" width="29.77" height="5.664"/>
									<rect id="XMLID_82_" x="186.419" y="294.563" style="fill:#FFFFFF;" width="55.86" height="5.664"/>
									<rect id="XMLID_80_" x="177.158" y="305.406" style="fill:#FFFFFF;" width="20.33" height="5.664"/>
									<rect id="XMLID_85_" x="201.412" y="305.406" style="fill:#FFFFFF;" width="40.867" height="5.664"/>
									<rect id="XMLID_93_" x="152.903" y="316.25" style="fill:#E6B54A;" width="89.376" height="5.664"/>
									<rect id="XMLID_61_" x="186.149" y="327.093" style="fill:#BF0411;" width="56.13" height="5.664"/>
									<rect id="XMLID_105_" x="225.667" y="337.937" style="fill:#FFFFFF;" width="16.613" height="5.664"/>
									<rect id="XMLID_76_" x="205.908" y="337.937" style="fill:#FFFFFF;" width="16.613" height="5.664"/>
									<rect id="XMLID_87_" x="186.149" y="337.937" style="fill:#FFFFFF;" width="16.613" height="5.664"/>
									<rect id="XMLID_91_" x="166.391" y="337.937" style="fill:#FFFFFF;" width="16.613" height="5.664"/>
								</g>
							</g>
							<g id="XMLID_62_">
								<rect id="XMLID_172_" x="219.935" y="361.478" style="fill:#BF0411;" width="22.344" height="5.664"/>
								<g id="XMLID_64_">
									<rect id="XMLID_169_" x="152.903" y="349.581" style="fill:#FFFFFF;" width="35.434" height="5.664"/>
									<rect id="XMLID_166_" x="197.591" y="349.581" style="fill:#E6B54A;" width="44.688" height="5.664"/>
									<rect id="XMLID_163_" x="186.419" y="361.478" style="fill:#BF0411;" width="22.344" height="5.664"/>
									<rect id="XMLID_160_" x="152.903" y="361.478" style="fill:#BF0411;" width="22.344" height="5.664"/>
									<rect id="XMLID_157_" x="177.633" y="372.816" style="fill:#FFFFFF;" width="24.729" height="5.664"/>
									<rect id="XMLID_154_" x="208.763" y="372.816" style="fill:#FFFFFF;" width="33.516" height="5.664"/>
									<rect id="XMLID_151_" x="177.158" y="383.66" style="fill:#FFFFFF;" width="20.33" height="5.664"/>
									<rect id="XMLID_148_" x="201.412" y="383.66" style="fill:#FFFFFF;" width="20.33" height="5.664"/>
									<rect id="XMLID_145_" x="225.667" y="383.66" style="fill:#FFFFFF;" width="16.613" height="5.664"/>
									<rect id="XMLID_142_" x="152.903" y="394.503" style="fill:#E6B54A;" width="29.77" height="5.664"/>
									<rect id="XMLID_139_" x="186.419" y="394.503" style="fill:#FFFFFF;" width="55.86" height="5.664"/>
								</g>
							</g>
						</g>
						<g id="XMLID_58_">
							<g id="XMLID_262_">
								<rect id="XMLID_372_" x="220.627" y="182.427" style="fill:#BF0411;" width="22.344" height="5.664"/>
								<g id="XMLID_263_">
									<rect id="XMLID_369_" x="153.595" y="170.53" style="fill:#FFFFFF;" width="35.434" height="5.664"/>
									<rect id="XMLID_366_" x="198.283" y="170.53" style="fill:#E6B54A;" width="44.688" height="5.664"/>
									<rect id="XMLID_361_" x="187.111" y="182.427" style="fill:#BF0411;" width="22.344" height="5.664"/>
									<rect id="XMLID_358_" x="153.595" y="182.427" style="fill:#BF0411;" width="22.344" height="5.664"/>
									<rect id="XMLID_355_" x="178.324" y="193.765" style="fill:#FFFFFF;" width="24.729" height="5.664"/>
									<rect id="XMLID_352_" x="209.455" y="193.765" style="fill:#FFFFFF;" width="33.516" height="5.664"/>
									<rect id="XMLID_349_" x="177.849" y="204.609" style="fill:#FFFFFF;" width="20.33" height="5.664"/>
									<rect id="XMLID_346_" x="202.104" y="204.609" style="fill:#E6B54A;" width="20.33" height="5.664"/>
									<rect id="XMLID_343_" x="226.358" y="204.609" style="fill:#E6B54A;" width="16.612" height="5.664"/>
									<rect id="XMLID_340_" x="153.595" y="215.452" style="fill:#BF0411;" width="29.77" height="5.664"/>
									<rect id="XMLID_337_" x="187.111" y="215.452" style="fill:#E6B54A;" width="55.86" height="5.664"/>
									<rect id="XMLID_334_" x="177.849" y="226.296" style="fill:#FFFFFF;" width="20.33" height="5.664"/>
									<rect id="XMLID_331_" x="202.104" y="226.296" style="fill:#E6B54A;" width="40.867" height="5.664"/>
									<rect id="XMLID_264_" x="153.595" y="237.139" style="fill:#E6B54A;" width="89.376" height="5.664"/>
								</g>
							</g>
						</g>
					</g>
				</g>
				<g id="XMLID_27_">
					
						<circle id="XMLID_540_" style="fill:none;stroke:#211915;stroke-width:4;stroke-miterlimit:10;" cx="75.386" cy="189.326" r="21.045"/>
					<g id="XMLID_527_">
						<path id="XMLID_25_" style="fill:#F0CA90;" d="M188.376,426.881c0,0,18.724,29.925,25.724,38.425s6.855,40-19.323,23
							s-42.372-43.059-42.372-43.059L188.376,426.881z"/>
						<path id="XMLID_526_" style="fill:#F0CA90;" d="M255.1,417.135l-37.979,68.499l-22.344-44.138
							c0,0,46.823-39.521,60.323-42.856s27-2.068,38.5,10.799c0,0-23.212,0.653-28.106,0.76S255.1,417.135,255.1,417.135z"/>
						<path id="XMLID_525_" style="fill:#F0CA90;" d="M242.1,409.305c0,0-6.5-4.667-3.667-10.667c2.833-6,8.559-2.274,14.667-1.569
							c6.107,0.705,6.167,3.097,6.167,3.097L242.1,409.305z"/>
					</g>
					<g id="XMLID_443_">
						<g id="XMLID_448_">
							<path id="XMLID_453_" style="fill:#F0CA90;" d="M33.087,301.49l-1.155,12.232c-1.114,11.802-9.254,21.759-20.599,25.197
								l-5.163,1.565h90.775l-11.764-0.259c-11.975-4.793-19.385-16.876-18.229-29.723l1.314-14.597L33.087,301.49z"/>
							<path id="XMLID_452_" style="fill:#222221;" d="M-21.528,181.615c0,0,8.514,88.737,36.24,113.201
								c27.726,24.464,62.406,9.353,71.59-14.13c9.397-24.03-2.732-105.588-2.732-105.588L-21.528,181.615z"/>
							<circle id="XMLID_450_" style="fill:#222221;" cx="27.228" cy="180.402" r="49.123"/>
						</g>
						<path id="XMLID_444_" style="fill:#E0180E;" d="M153.564,354.701c-2.793-5.497-7.965-9.4-14.018-10.577l-57.141-11.11
							c-29.031-5.467-58.856-5.163-87.77,0.894l-45.938,11.978c-6.687,1.743-12.145,6.564-14.702,12.984l-22.586,56.711
							l36.952,58.859l24.564-47.121l-12.879,116.893h163.708l0.52-120.6l21.16,43.6l51.84-26.467L153.564,354.701z"/>
						<path id="XMLID_21_" style="fill:#FFFFFF;" d="M13.131,330.833l10.303-12.64h47.517l11.455,14.821
							C82.405,333.015,56.161,337.122,13.131,330.833z"/>
					</g>
					<path id="XMLID_1078_" style="fill:#F0CA90;" d="M88.941,238.322C90.07,238.055,87.827,238.748,88.941,238.322
						c13.514-5.174,13.784-18.203,6.534-31.169c-4.613-8.249-2.448-17.442-11.103-19.063L88.941,238.322z"/>
					<path id="XMLID_1075_" style="fill:#F0CA90;" d="M-5.576,258.375C-6.707,258.483-4.409,258.418-5.576,258.375
						c-14.16-0.53-15.376-10.18-14.846-24.34c0.346-9.248-4.288-19.429,3.224-23.664L-5.576,258.375z"/>
					<path id="XMLID_24_" style="fill:#222221;" d="M73.605,196.597c0,0-5.643-5.334,11.119-19.785
						c25.155-21.687,0.41-93.013-69.717-55.766c-70.128,37.247-35.308,70.891-35.308,70.891L73.605,196.597z"/>
				</g>
				<path id="XMLID_339_" style="fill:#FFFFFF;" d="M-37.874,363.765c0.842,14.33,4.53,178.06,4.814,178.273
					c0.557,0.42,175.597-4.23,200.947-1.745c16.39-32.5,13.864-59.557,6.013-71.959c-2.503-3.953-6.673-6.519-11.287-7.298
					c-8.666-1.464-30.892-8.1-27.888-37.541c3.72-36.457-66.218-72.171-156.246-72.171c-1.704,0-3.4,0.013-5.089,0.039
					c-6.572,0.101-11.66,5.723-11.27,12.284C-37.879,363.686-37.876,363.725-37.874,363.765z"/>
			</g>
			<g id="XMLID_435_" style="opacity:0.47;">
				<g id="XMLID_48_">
					<path id="XMLID_532_" style="fill:#FFFFFF;" d="M84.781,101.588h-6.783v8.874H70.86V87.699h7.138v8.198h6.783v-8.198h7.138
						v22.762h-7.138V101.588z"/>
					<path id="XMLID_534_" style="fill:#FFFFFF;" d="M93.85,87.699h19.162v5.658h-6.045v17.104H99.83V93.357h-5.98V87.699z"/>
					<path id="XMLID_536_" style="fill:#FFFFFF;" d="M114.944,87.699h8.745l5.016,13.664l4.887-13.664h8.713v22.762h-7.105V99.112
						l-3.505,11.349h-6.108l-3.504-11.349v11.349h-7.138V87.699z"/>
					<path id="XMLID_538_" style="fill:#FFFFFF;" d="M152.661,87.699v17.361h6.88v5.401h-14.018V87.699H152.661z"/>
				</g>
				<g id="XMLID_68_">
					<path id="XMLID_523_" style="fill:#FFFFFF;" d="M185.645,122.297c2.959,0,4.969,1.772,5.428,4.415h-3.703
						c-0.333-0.744-0.997-1.171-1.788-1.171c-1.187,0-1.915,0.965-1.915,2.453c0,1.487,0.728,2.453,1.915,2.453
						c0.791,0,1.456-0.427,1.788-1.171h3.703c-0.459,2.643-2.469,4.415-5.428,4.415c-3.434,0-5.538-2.358-5.538-5.696
						C180.107,124.654,182.212,122.297,185.645,122.297z"/>
					<path id="XMLID_528_" style="fill:#FFFFFF;" d="M192.334,122.407h4.304l2.468,6.725l2.405-6.725h4.288v11.203h-3.497v-5.586
						l-1.725,5.586h-3.006l-1.725-5.586v5.586h-3.513V122.407z"/>
					<path id="XMLID_530_" style="fill:#FFFFFF;" d="M211.76,133.721c-2.563,0-4.573-1.187-4.731-3.703h3.734
						c0.064,0.823,0.506,0.965,0.855,0.965s0.681-0.158,0.681-0.554c-0.016-1.519-5.301-0.965-5.238-4.794
						c0-2.247,1.899-3.418,4.288-3.418c2.706,0,4.446,1.298,4.542,3.624h-3.782c-0.032-0.681-0.395-0.886-0.775-0.886
						c-0.285,0-0.506,0.19-0.506,0.569c0,1.409,5.206,1.171,5.206,4.621C216.033,132.202,214.466,133.721,211.76,133.721z"/>
				</g>
				<g id="XMLID_70_">
					<path id="XMLID_491_" style="fill:#FFFFFF;" d="M427.197,102.287c4.745,0,7.968,2.842,8.704,7.08h-5.939
						c-0.532-1.193-1.599-1.878-2.867-1.878c-1.903,0-3.07,1.548-3.07,3.933c0,2.385,1.167,3.933,3.07,3.933
						c1.269,0,2.335-0.685,2.867-1.877h5.939c-0.736,4.237-3.959,7.08-8.704,7.08c-5.507,0-8.881-3.781-8.881-9.135
						C418.316,106.068,421.69,102.287,427.197,102.287z"/>
					<path id="XMLID_493_" style="fill:#FFFFFF;" d="M444.959,120.608c-4.111,0-7.334-1.903-7.587-5.938h5.988
						c0.102,1.319,0.812,1.548,1.37,1.548s1.091-0.253,1.091-0.888c-0.025-2.436-8.5-1.548-8.398-7.688
						c0-3.604,3.045-5.481,6.876-5.481c4.34,0,7.131,2.081,7.283,5.811h-6.064c-0.051-1.091-0.635-1.421-1.244-1.421
						c-0.456,0-0.812,0.305-0.812,0.914c0,2.258,8.349,1.878,8.349,7.41C451.811,118.172,449.298,120.608,444.959,120.608z"/>
					<path id="XMLID_520_" style="fill:#FFFFFF;" d="M460.819,120.608c-4.111,0-7.334-1.903-7.587-5.938h5.988
						c0.102,1.319,0.812,1.548,1.37,1.548c0.559,0,1.091-0.253,1.091-0.888c-0.025-2.436-8.5-1.548-8.398-7.688
						c0-3.604,3.045-5.481,6.876-5.481c4.34,0,7.131,2.081,7.283,5.811h-6.064c-0.051-1.091-0.635-1.421-1.244-1.421
						c-0.456,0-0.811,0.305-0.811,0.914c0,2.258,8.349,1.878,8.349,7.41C467.67,118.172,465.158,120.608,460.819,120.608z"/>
				</g>
				<g id="XMLID_434_">
					<path id="XMLID_455_" style="fill:#FFFFFF;" d="M243.808,162.307h-1.693v4.329h-4.271v-13.623h5.965
						c3.425,0,5.176,1.924,5.176,4.676C248.984,160.209,247.233,162.307,243.808,162.307z M243.328,158.939
						c0.962,0,1.327-0.5,1.327-1.251s-0.365-1.251-1.327-1.251h-1.213v2.501H243.328z"/>
					<path id="XMLID_486_" style="fill:#FFFFFF;" d="M258.665,161.325h-4.061v5.311h-4.271v-13.623h4.271v4.907h4.061v-4.907h4.271
						v13.623h-4.271V161.325z"/>
					<path id="XMLID_488_" style="fill:#FFFFFF;" d="M270.828,162.307h-1.693v4.329h-4.271v-13.623h5.965
						c3.425,0,5.176,1.924,5.176,4.676C276.003,160.209,274.252,162.307,270.828,162.307z M270.347,158.939
						c0.962,0,1.327-0.5,1.327-1.251s-0.365-1.251-1.327-1.251h-1.213v2.501H270.347z"/>
				</g>
			</g>
		</g>
	</g>
</g>
<g id="DESIGNED_BY_FREEPIK">
	<g id="XMLID_11896_">
		<g id="XMLID_559_">
			<path id="XMLID_584_" style="fill:#FFFFFF;" d="M186.001,485.078v-0.147c-0.2,0.229-0.397,0.415-0.592,0.558
				c-0.194,0.144-0.405,0.253-0.633,0.327c-0.227,0.076-0.475,0.112-0.744,0.112c-0.357,0-0.686-0.075-0.99-0.226
				c-0.303-0.151-0.566-0.367-0.787-0.646c-0.222-0.28-0.39-0.608-0.504-0.987c-0.114-0.378-0.172-0.787-0.172-1.226
				c0-0.93,0.227-1.656,0.682-2.176c0.454-0.519,1.052-0.779,1.793-0.779c0.429,0,0.79,0.074,1.085,0.22
				c0.294,0.147,0.581,0.374,0.861,0.679v-2.197c0-0.305,0.061-0.536,0.183-0.692c0.121-0.156,0.295-0.234,0.52-0.234
				c0.225,0,0.398,0.072,0.52,0.215c0.122,0.144,0.183,0.355,0.183,0.635v6.563c0,0.284-0.065,0.496-0.196,0.638
				c-0.131,0.141-0.299,0.212-0.507,0.212c-0.203,0-0.372-0.073-0.505-0.22C186.068,485.56,186.001,485.35,186.001,485.078z
				 M183.074,482.892c0,0.404,0.063,0.747,0.188,1.03c0.126,0.284,0.297,0.497,0.515,0.64c0.218,0.144,0.456,0.216,0.714,0.216
				c0.262,0,0.501-0.068,0.717-0.205c0.216-0.136,0.389-0.345,0.518-0.626c0.129-0.282,0.193-0.634,0.193-1.055
				c0-0.396-0.064-0.737-0.193-1.023c-0.129-0.285-0.303-0.503-0.523-0.654c-0.22-0.15-0.461-0.225-0.722-0.225
				c-0.272,0-0.516,0.077-0.73,0.232c-0.214,0.154-0.381,0.375-0.499,0.665C183.133,482.175,183.074,482.51,183.074,482.892z"/>
			<path id="XMLID_581_" style="fill:#FFFFFF;" d="M192.564,483.268h-2.911c0.004,0.337,0.072,0.636,0.205,0.893
				c0.132,0.258,0.309,0.453,0.529,0.583c0.22,0.131,0.463,0.196,0.728,0.196c0.178,0,0.34-0.02,0.488-0.062
				c0.147-0.043,0.29-0.107,0.428-0.197c0.138-0.089,0.265-0.184,0.381-0.286c0.116-0.102,0.266-0.241,0.452-0.415
				c0.076-0.065,0.186-0.098,0.328-0.098c0.152,0,0.276,0.043,0.37,0.126c0.094,0.084,0.142,0.201,0.142,0.354
				c0,0.135-0.053,0.291-0.158,0.471c-0.106,0.18-0.265,0.353-0.477,0.518c-0.213,0.165-0.479,0.302-0.802,0.411
				c-0.321,0.109-0.691,0.164-1.109,0.164c-0.955,0-1.699-0.273-2.229-0.818c-0.531-0.545-0.796-1.285-0.796-2.218
				c0-0.44,0.065-0.848,0.196-1.224c0.131-0.377,0.322-0.699,0.572-0.968c0.251-0.269,0.56-0.475,0.927-0.619
				c0.367-0.143,0.774-0.215,1.221-0.215c0.581,0,1.08,0.122,1.496,0.368c0.417,0.245,0.729,0.562,0.935,0.951
				c0.207,0.389,0.311,0.786,0.311,1.188c0,0.375-0.107,0.617-0.321,0.729C193.255,483.212,192.953,483.268,192.564,483.268z
				 M189.653,482.423h2.699c-0.036-0.509-0.174-0.89-0.412-1.142c-0.238-0.253-0.551-0.379-0.94-0.379
				c-0.371,0-0.675,0.128-0.913,0.384C189.848,481.542,189.704,481.922,189.653,482.423z"/>
			<path id="XMLID_579_" style="fill:#FFFFFF;" d="M199.345,483.981c0,0.411-0.1,0.763-0.3,1.055
				c-0.2,0.293-0.495,0.514-0.886,0.665c-0.39,0.151-0.866,0.226-1.425,0.226c-0.534,0-0.992-0.082-1.374-0.246
				c-0.381-0.163-0.663-0.368-0.845-0.613c-0.182-0.246-0.273-0.492-0.273-0.739c0-0.164,0.058-0.303,0.175-0.419
				c0.116-0.116,0.263-0.174,0.442-0.174c0.156,0,0.275,0.038,0.359,0.114c0.084,0.076,0.164,0.184,0.24,0.321
				c0.153,0.266,0.336,0.463,0.548,0.595c0.213,0.131,0.502,0.196,0.87,0.196c0.298,0,0.542-0.067,0.733-0.199
				c0.19-0.133,0.286-0.285,0.286-0.456c0-0.262-0.099-0.452-0.297-0.572c-0.198-0.12-0.524-0.235-0.979-0.344
				c-0.512-0.127-0.929-0.261-1.251-0.401c-0.322-0.139-0.579-0.324-0.771-0.553c-0.193-0.229-0.289-0.511-0.289-0.845
				c0-0.298,0.089-0.579,0.267-0.845c0.178-0.265,0.441-0.476,0.788-0.635c0.346-0.159,0.765-0.238,1.256-0.238
				c0.385,0,0.732,0.04,1.038,0.121c0.308,0.079,0.564,0.187,0.769,0.322c0.205,0.134,0.361,0.283,0.469,0.446
				c0.107,0.164,0.161,0.323,0.161,0.48c0,0.17-0.057,0.311-0.171,0.42c-0.114,0.108-0.277,0.164-0.488,0.164
				c-0.153,0-0.282-0.044-0.39-0.132c-0.107-0.087-0.23-0.217-0.368-0.392c-0.113-0.145-0.245-0.262-0.398-0.349
				c-0.153-0.087-0.36-0.13-0.622-0.13c-0.269,0-0.492,0.057-0.67,0.172c-0.178,0.114-0.267,0.256-0.267,0.427
				c0,0.157,0.065,0.285,0.196,0.385c0.131,0.1,0.307,0.183,0.529,0.248c0.222,0.065,0.526,0.145,0.916,0.239
				c0.461,0.113,0.838,0.248,1.131,0.404c0.292,0.156,0.514,0.341,0.666,0.554C199.27,483.467,199.345,483.709,199.345,483.981z"/>
			<path id="XMLID_576_" style="fill:#FFFFFF;" d="M200.865,479.185c-0.207,0-0.384-0.064-0.531-0.191
				c-0.147-0.127-0.221-0.307-0.221-0.54c0-0.211,0.075-0.384,0.226-0.521c0.151-0.137,0.326-0.204,0.526-0.204
				c0.193,0,0.363,0.062,0.512,0.186c0.149,0.124,0.224,0.303,0.224,0.54c0,0.229-0.073,0.408-0.219,0.537
				C201.237,479.12,201.065,479.185,200.865,479.185z M201.601,480.722v4.301c0,0.298-0.071,0.524-0.213,0.677
				c-0.142,0.152-0.321,0.229-0.54,0.229c-0.218,0-0.395-0.078-0.532-0.234c-0.137-0.156-0.204-0.38-0.204-0.671v-4.258
				c0-0.294,0.068-0.516,0.204-0.665c0.136-0.149,0.313-0.224,0.532-0.224c0.218,0,0.398,0.075,0.54,0.224
				C201.53,480.25,201.601,480.457,201.601,480.722z"/>
			<path id="XMLID_573_" style="fill:#FFFFFF;" d="M208.12,480.968v4.323c0,0.494-0.053,0.92-0.159,1.276
				c-0.105,0.355-0.274,0.65-0.507,0.883c-0.233,0.232-0.537,0.405-0.913,0.517c-0.376,0.113-0.844,0.169-1.404,0.169
				c-0.512,0-0.97-0.072-1.374-0.215c-0.403-0.144-0.714-0.329-0.932-0.556c-0.218-0.227-0.327-0.461-0.327-0.701
				c0-0.182,0.062-0.33,0.186-0.444c0.123-0.115,0.273-0.172,0.447-0.172c0.218,0,0.409,0.096,0.573,0.289
				c0.08,0.098,0.162,0.198,0.248,0.298c0.085,0.1,0.18,0.186,0.284,0.257c0.104,0.07,0.228,0.123,0.373,0.158
				c0.146,0.034,0.313,0.052,0.502,0.052c0.385,0,0.684-0.053,0.897-0.161c0.213-0.107,0.362-0.257,0.447-0.45
				c0.085-0.192,0.135-0.398,0.15-0.618c0.015-0.22,0.025-0.573,0.033-1.061c-0.229,0.321-0.493,0.564-0.793,0.731
				c-0.3,0.167-0.657,0.251-1.071,0.251c-0.498,0-0.933-0.127-1.306-0.382c-0.372-0.254-0.659-0.61-0.858-1.068
				c-0.2-0.458-0.3-0.987-0.3-1.586c0-0.447,0.06-0.851,0.182-1.21c0.122-0.36,0.296-0.664,0.521-0.911
				c0.225-0.247,0.485-0.433,0.779-0.559c0.294-0.125,0.618-0.188,0.971-0.188c0.421,0,0.787,0.081,1.096,0.242
				c0.309,0.163,0.596,0.416,0.861,0.761v-0.202c0-0.258,0.063-0.457,0.191-0.6c0.128-0.141,0.291-0.212,0.491-0.212
				c0.287,0,0.478,0.094,0.572,0.281C208.073,480.345,208.12,480.615,208.12,480.968z M203.808,482.854
				c0,0.603,0.131,1.059,0.395,1.368c0.263,0.309,0.604,0.464,1.022,0.464c0.247,0,0.48-0.067,0.7-0.199
				c0.22-0.133,0.399-0.333,0.537-0.6c0.138-0.267,0.207-0.591,0.207-0.973c0-0.607-0.133-1.079-0.401-1.417
				c-0.267-0.338-0.619-0.507-1.055-0.507c-0.425,0-0.766,0.162-1.022,0.485C203.936,481.798,203.808,482.258,203.808,482.854z"/>
			<path id="XMLID_571_" style="fill:#FFFFFF;" d="M210.485,480.7v0.18c0.261-0.345,0.548-0.599,0.858-0.761
				c0.311-0.161,0.668-0.243,1.071-0.243c0.393,0,0.743,0.086,1.052,0.257c0.309,0.171,0.54,0.413,0.692,0.724
				c0.099,0.182,0.162,0.379,0.191,0.589c0.029,0.211,0.044,0.48,0.044,0.807v2.769c0,0.298-0.068,0.524-0.205,0.677
				c-0.136,0.152-0.313,0.229-0.531,0.229c-0.222,0-0.402-0.078-0.54-0.234c-0.138-0.156-0.207-0.38-0.207-0.671v-2.48
				c0-0.49-0.069-0.866-0.205-1.125c-0.137-0.259-0.408-0.39-0.815-0.39c-0.265,0-0.507,0.079-0.725,0.237
				c-0.218,0.159-0.378,0.376-0.48,0.652c-0.073,0.222-0.109,0.636-0.109,1.243v1.864c0,0.302-0.07,0.529-0.21,0.679
				c-0.14,0.151-0.321,0.226-0.542,0.226c-0.215,0-0.391-0.078-0.529-0.234c-0.138-0.156-0.207-0.38-0.207-0.671v-4.301
				c0-0.284,0.062-0.495,0.185-0.636c0.124-0.14,0.293-0.21,0.507-0.21c0.131,0,0.249,0.031,0.355,0.093
				c0.105,0.062,0.19,0.155,0.253,0.277C210.454,480.371,210.485,480.523,210.485,480.7z"/>
			<path id="XMLID_568_" style="fill:#FFFFFF;" d="M219.539,483.268h-2.911c0.004,0.337,0.072,0.636,0.205,0.893
				c0.133,0.258,0.309,0.453,0.529,0.583c0.219,0.131,0.462,0.196,0.727,0.196c0.178,0,0.341-0.02,0.488-0.062
				c0.146-0.043,0.289-0.107,0.428-0.197c0.138-0.089,0.265-0.184,0.382-0.286c0.116-0.102,0.266-0.241,0.452-0.415
				c0.076-0.065,0.185-0.098,0.327-0.098c0.153,0,0.276,0.043,0.371,0.126c0.094,0.084,0.142,0.201,0.142,0.354
				c0,0.135-0.052,0.291-0.158,0.471c-0.106,0.18-0.265,0.353-0.477,0.518c-0.213,0.165-0.479,0.302-0.801,0.411
				c-0.322,0.109-0.692,0.164-1.109,0.164c-0.956,0-1.699-0.273-2.23-0.818c-0.53-0.545-0.796-1.285-0.796-2.218
				c0-0.44,0.065-0.848,0.196-1.224c0.131-0.377,0.322-0.699,0.573-0.968c0.251-0.269,0.56-0.475,0.926-0.619
				c0.367-0.143,0.774-0.215,1.221-0.215c0.581,0,1.079,0.122,1.496,0.368c0.417,0.245,0.728,0.562,0.936,0.951
				c0.207,0.389,0.311,0.786,0.311,1.188c0,0.375-0.107,0.617-0.322,0.729C220.23,483.212,219.928,483.268,219.539,483.268z
				 M216.628,482.423h2.698c-0.036-0.509-0.174-0.89-0.411-1.142c-0.238-0.253-0.551-0.379-0.94-0.379
				c-0.371,0-0.676,0.128-0.914,0.384C216.823,481.542,216.679,481.922,216.628,482.423z"/>
			<path id="XMLID_565_" style="fill:#FFFFFF;" d="M225.605,485.078v-0.147c-0.2,0.229-0.397,0.415-0.591,0.558
				c-0.195,0.144-0.405,0.253-0.632,0.327c-0.227,0.076-0.475,0.112-0.744,0.112c-0.357,0-0.686-0.075-0.99-0.226
				c-0.303-0.151-0.566-0.367-0.788-0.646c-0.222-0.28-0.39-0.608-0.504-0.987c-0.115-0.378-0.172-0.787-0.172-1.226
				c0-0.93,0.227-1.656,0.681-2.176c0.454-0.519,1.052-0.779,1.794-0.779c0.429,0,0.791,0.074,1.085,0.22
				c0.294,0.147,0.582,0.374,0.861,0.679v-2.197c0-0.305,0.061-0.536,0.183-0.692c0.121-0.156,0.295-0.234,0.521-0.234
				c0.225,0,0.398,0.072,0.52,0.215c0.122,0.144,0.183,0.355,0.183,0.635v6.563c0,0.284-0.065,0.496-0.196,0.638
				c-0.131,0.141-0.3,0.212-0.507,0.212c-0.204,0-0.372-0.073-0.504-0.22C225.672,485.56,225.605,485.35,225.605,485.078z
				 M222.678,482.892c0,0.404,0.062,0.747,0.188,1.03c0.125,0.284,0.297,0.497,0.516,0.64c0.218,0.144,0.456,0.216,0.713,0.216
				c0.262,0,0.501-0.068,0.717-0.205c0.216-0.136,0.389-0.345,0.518-0.626c0.129-0.282,0.194-0.634,0.194-1.055
				c0-0.396-0.064-0.737-0.194-1.023c-0.129-0.285-0.303-0.503-0.523-0.654c-0.22-0.15-0.461-0.225-0.722-0.225
				c-0.272,0-0.516,0.077-0.73,0.232c-0.214,0.154-0.38,0.375-0.499,0.665C222.737,482.175,222.678,482.51,222.678,482.892z"/>
			<path id="XMLID_562_" style="fill:#FFFFFF;" d="M231.688,478.514v2.273c0.28-0.29,0.565-0.513,0.856-0.668
				c0.291-0.154,0.651-0.231,1.079-0.231c0.494,0,0.927,0.117,1.3,0.351c0.372,0.235,0.661,0.575,0.867,1.02
				c0.205,0.445,0.308,0.973,0.308,1.584c0,0.451-0.057,0.863-0.172,1.24c-0.115,0.376-0.281,0.702-0.499,0.978
				c-0.218,0.276-0.482,0.49-0.793,0.641c-0.311,0.151-0.654,0.226-1.028,0.226c-0.229,0-0.445-0.027-0.646-0.082
				c-0.202-0.054-0.374-0.125-0.515-0.215c-0.141-0.089-0.262-0.18-0.362-0.275c-0.1-0.094-0.232-0.237-0.395-0.425v0.147
				c0,0.28-0.067,0.492-0.202,0.636c-0.134,0.144-0.305,0.215-0.512,0.215c-0.211,0-0.379-0.071-0.504-0.215
				c-0.126-0.144-0.188-0.356-0.188-0.636v-6.498c0-0.302,0.061-0.53,0.182-0.684c0.122-0.154,0.292-0.231,0.51-0.231
				c0.229,0,0.405,0.073,0.529,0.22C231.626,478.032,231.688,478.241,231.688,478.514z M231.759,482.935
				c0,0.593,0.135,1.047,0.406,1.365c0.271,0.318,0.626,0.478,1.066,0.478c0.374,0,0.697-0.163,0.967-0.488
				c0.271-0.326,0.406-0.791,0.406-1.398c0-0.392-0.056-0.731-0.169-1.014c-0.113-0.284-0.272-0.503-0.479-0.657
				c-0.207-0.154-0.449-0.232-0.725-0.232c-0.283,0-0.536,0.077-0.758,0.232c-0.222,0.154-0.396,0.378-0.523,0.67
				C231.823,482.183,231.759,482.532,231.759,482.935z"/>
			<path id="XMLID_560_" style="fill:#FFFFFF;" d="M238.028,486.113l0.136-0.333l-1.832-4.612c-0.112-0.265-0.169-0.458-0.169-0.578
				c0-0.127,0.033-0.245,0.098-0.354c0.066-0.109,0.155-0.197,0.27-0.262c0.115-0.066,0.234-0.099,0.357-0.099
				c0.214,0,0.376,0.068,0.485,0.205c0.109,0.136,0.205,0.331,0.289,0.586l1.259,3.663l1.194-3.407
				c0.094-0.275,0.18-0.492,0.256-0.648c0.076-0.156,0.157-0.262,0.242-0.316c0.085-0.055,0.206-0.082,0.363-0.082
				c0.113,0,0.221,0.03,0.325,0.09c0.103,0.06,0.183,0.141,0.24,0.243c0.056,0.101,0.085,0.208,0.085,0.321
				c-0.015,0.069-0.038,0.167-0.071,0.295c-0.033,0.127-0.072,0.257-0.12,0.387l-1.941,5.081c-0.168,0.447-0.331,0.797-0.491,1.052
				c-0.16,0.254-0.371,0.451-0.635,0.586c-0.264,0.137-0.619,0.205-1.066,0.205c-0.436,0-0.763-0.047-0.981-0.141
				c-0.219-0.095-0.327-0.268-0.327-0.518c0-0.17,0.051-0.303,0.156-0.395c0.103-0.092,0.257-0.14,0.46-0.14
				c0.08,0,0.159,0.011,0.235,0.034c0.094,0.021,0.176,0.033,0.245,0.033c0.171,0,0.305-0.025,0.404-0.077
				c0.098-0.051,0.186-0.138,0.264-0.265C237.836,486.542,237.926,486.357,238.028,486.113z"/>
		</g>
		<g id="XMLID_544_">
			<path id="XMLID_558_" style="fill:#FFFFFF;" d="M259.586,480.006h0.355v-0.447c0-0.467,0.057-0.836,0.176-1.112
				c0.117-0.275,0.319-0.474,0.601-0.6c0.281-0.124,0.668-0.187,1.157-0.187c0.872,0,1.304,0.211,1.304,0.64
				c0,0.137-0.045,0.255-0.138,0.353c-0.089,0.097-0.197,0.147-0.32,0.147c-0.057,0-0.16-0.011-0.303-0.034
				c-0.136-0.019-0.259-0.032-0.358-0.032c-0.268,0-0.44,0.081-0.52,0.238c-0.073,0.158-0.112,0.384-0.112,0.68v0.354h0.363
				c0.569,0,0.85,0.17,0.85,0.514c0,0.24-0.073,0.396-0.225,0.462c-0.15,0.066-0.358,0.098-0.625,0.098h-0.363v3.944
				c0,0.293-0.069,0.517-0.212,0.67c-0.138,0.156-0.318,0.233-0.541,0.233c-0.211,0-0.385-0.077-0.527-0.233
				c-0.14-0.154-0.209-0.377-0.209-0.67v-3.944h-0.41c-0.223,0-0.392-0.048-0.513-0.15c-0.12-0.098-0.181-0.229-0.181-0.389
				C258.838,480.182,259.088,480.006,259.586,480.006"/>
			<path id="XMLID_557_" style="fill:#FFFFFF;" d="M264.459,483.779v1.244c0,0.301-0.076,0.528-0.215,0.677
				c-0.142,0.152-0.321,0.227-0.538,0.227c-0.219,0-0.395-0.075-0.532-0.23c-0.136-0.151-0.207-0.377-0.207-0.674v-4.145
				c0-0.669,0.241-1.004,0.723-1.004c0.249,0,0.427,0.077,0.536,0.234c0.109,0.157,0.169,0.387,0.182,0.693
				c0.177-0.307,0.358-0.536,0.544-0.693c0.191-0.157,0.438-0.234,0.752-0.234c0.315,0,0.615,0.077,0.91,0.234
				c0.296,0.157,0.443,0.365,0.443,0.623c0,0.18-0.063,0.333-0.187,0.448c-0.126,0.12-0.261,0.179-0.405,0.179
				c-0.057,0-0.19-0.036-0.397-0.103c-0.21-0.065-0.395-0.099-0.553-0.099c-0.218,0-0.397,0.059-0.535,0.171
				c-0.139,0.118-0.247,0.285-0.324,0.509c-0.074,0.227-0.126,0.497-0.156,0.806C264.472,482.953,264.459,483.332,264.459,483.779"
				/>
			<path id="XMLID_554_" style="fill:#FFFFFF;" d="M271.301,483.267h-2.912c0.005,0.337,0.071,0.637,0.203,0.894
				c0.135,0.256,0.31,0.451,0.531,0.584c0.221,0.131,0.461,0.195,0.728,0.195c0.178,0,0.34-0.019,0.488-0.064
				c0.146-0.04,0.29-0.106,0.428-0.196c0.139-0.087,0.264-0.183,0.381-0.287c0.116-0.1,0.268-0.239,0.453-0.413
				c0.077-0.065,0.186-0.1,0.326-0.1c0.154,0,0.276,0.043,0.373,0.127c0.095,0.085,0.14,0.201,0.14,0.354
				c0,0.135-0.051,0.292-0.154,0.47c-0.108,0.182-0.266,0.354-0.48,0.52c-0.215,0.164-0.482,0.303-0.802,0.41
				c-0.321,0.109-0.692,0.164-1.109,0.164c-0.959,0-1.701-0.271-2.231-0.816c-0.53-0.547-0.799-1.287-0.799-2.22
				c0-0.44,0.067-0.849,0.199-1.225c0.129-0.378,0.32-0.698,0.573-0.969c0.25-0.27,0.557-0.475,0.925-0.619
				c0.366-0.143,0.773-0.215,1.221-0.215c0.58,0,1.079,0.123,1.496,0.371c0.415,0.243,0.731,0.56,0.935,0.949
				c0.208,0.391,0.311,0.785,0.311,1.19c0,0.372-0.108,0.614-0.322,0.726C271.991,483.211,271.69,483.267,271.301,483.267
				 M268.388,482.421h2.698c-0.036-0.508-0.171-0.889-0.41-1.14c-0.24-0.254-0.55-0.379-0.942-0.379
				c-0.37,0-0.675,0.126-0.914,0.384C268.584,481.542,268.438,481.919,268.388,482.421"/>
			<path id="XMLID_551_" style="fill:#FFFFFF;" d="M277.492,483.267h-2.912c0.003,0.337,0.072,0.637,0.204,0.894
				c0.133,0.256,0.309,0.451,0.529,0.584c0.22,0.131,0.462,0.195,0.73,0.195c0.177,0,0.34-0.019,0.485-0.064
				c0.148-0.04,0.29-0.106,0.43-0.196c0.139-0.087,0.264-0.183,0.381-0.287c0.114-0.1,0.266-0.239,0.452-0.413
				c0.077-0.065,0.187-0.1,0.326-0.1c0.154,0,0.277,0.043,0.373,0.127c0.095,0.085,0.138,0.201,0.138,0.354
				c0,0.135-0.05,0.292-0.157,0.47c-0.102,0.182-0.261,0.354-0.476,0.52c-0.212,0.164-0.482,0.303-0.801,0.41
				c-0.32,0.109-0.693,0.164-1.11,0.164c-0.957,0-1.698-0.271-2.231-0.816c-0.53-0.547-0.797-1.287-0.797-2.22
				c0-0.44,0.067-0.849,0.199-1.225c0.13-0.378,0.321-0.698,0.572-0.969c0.25-0.27,0.558-0.475,0.927-0.619
				c0.366-0.143,0.775-0.215,1.222-0.215c0.579,0,1.078,0.123,1.5,0.371c0.413,0.243,0.726,0.56,0.93,0.949
				c0.206,0.391,0.313,0.785,0.313,1.19c0,0.372-0.11,0.614-0.322,0.726C278.181,483.211,277.88,483.267,277.492,483.267
				 M274.58,482.421h2.698c-0.036-0.508-0.174-0.889-0.41-1.14c-0.242-0.254-0.552-0.379-0.943-0.379
				c-0.37,0-0.675,0.126-0.914,0.384C274.774,481.542,274.628,481.919,274.58,482.421"/>
			<path id="XMLID_11926_" style="fill:#FFFFFF;" d="M280.752,480.711v0.178c0.279-0.345,0.571-0.598,0.875-0.76
				c0.298-0.163,0.642-0.245,1.023-0.245c0.456,0,0.881,0.119,1.267,0.354c0.385,0.238,0.688,0.583,0.912,1.037
				c0.224,0.456,0.336,0.993,0.336,1.615c0,0.457-0.064,0.879-0.193,1.263c-0.128,0.383-0.308,0.704-0.533,0.964
				c-0.226,0.258-0.491,0.46-0.798,0.6c-0.311,0.138-0.638,0.208-0.992,0.208c-0.424,0-0.783-0.085-1.07-0.257
				c-0.289-0.168-0.564-0.421-0.827-0.749v2.234c0,0.652-0.239,0.981-0.714,0.981c-0.281,0-0.464-0.084-0.558-0.252
				c-0.087-0.172-0.134-0.415-0.134-0.741v-6.424c0-0.284,0.061-0.493,0.184-0.636c0.123-0.137,0.294-0.209,0.508-0.209
				c0.212,0,0.382,0.072,0.514,0.215C280.687,480.234,280.752,480.439,280.752,480.711 M283.669,482.874
				c0-0.393-0.061-0.731-0.18-1.012c-0.12-0.283-0.286-0.498-0.497-0.647c-0.211-0.151-0.449-0.228-0.707-0.228
				c-0.41,0-0.757,0.163-1.038,0.484c-0.283,0.325-0.424,0.801-0.424,1.431c0,0.589,0.14,1.052,0.422,1.381
				c0.28,0.329,0.623,0.493,1.04,0.493c0.246,0,0.477-0.072,0.687-0.214c0.213-0.145,0.382-0.36,0.507-0.647
				C283.606,483.628,283.669,483.28,283.669,482.874"/>
			<path id="XMLID_11923_" style="fill:#FFFFFF;" d="M286.663,479.181c-0.208,0-0.384-0.066-0.53-0.192
				c-0.149-0.128-0.223-0.306-0.223-0.538c0-0.211,0.075-0.384,0.228-0.522c0.15-0.135,0.325-0.204,0.525-0.204
				c0.195,0,0.365,0.061,0.513,0.183c0.149,0.125,0.224,0.306,0.224,0.543c0,0.229-0.073,0.408-0.217,0.537
				C287.037,479.116,286.865,479.181,286.663,479.181 M287.4,480.719v4.306c0,0.296-0.071,0.521-0.212,0.673
				c-0.143,0.155-0.322,0.23-0.54,0.23c-0.219,0-0.393-0.077-0.533-0.233c-0.134-0.159-0.204-0.382-0.204-0.669v-4.263
				c0-0.293,0.07-0.513,0.204-0.663c0.14-0.152,0.314-0.225,0.533-0.225c0.219,0,0.397,0.073,0.54,0.225
				C287.329,480.248,287.4,480.456,287.4,480.719"/>
			<path id="XMLID_546_" style="fill:#FFFFFF;" d="M292.198,485.248l-1.311-2.161l-0.808,0.762v1.185
				c0,0.286-0.076,0.506-0.228,0.66c-0.147,0.156-0.325,0.233-0.52,0.233c-0.229,0-0.41-0.075-0.54-0.23
				c-0.13-0.151-0.197-0.377-0.197-0.674v-6.35c0-0.329,0.065-0.58,0.19-0.754c0.128-0.175,0.313-0.26,0.547-0.26
				c0.229,0,0.409,0.079,0.545,0.236c0.134,0.155,0.203,0.387,0.203,0.69v3.612l1.674-1.758c0.208-0.216,0.363-0.368,0.475-0.447
				c0.109-0.08,0.241-0.119,0.396-0.119c0.187,0,0.341,0.059,0.468,0.177c0.121,0.118,0.184,0.267,0.184,0.444
				c0,0.217-0.203,0.51-0.605,0.873l-0.79,0.725l1.526,2.401c0.111,0.18,0.194,0.312,0.243,0.405
				c0.048,0.091,0.074,0.183,0.074,0.265c0,0.237-0.066,0.422-0.195,0.56c-0.129,0.136-0.301,0.203-0.508,0.203
				c-0.182,0-0.324-0.047-0.421-0.147C292.5,485.681,292.364,485.503,292.198,485.248"/>
			<path id="XMLID_545_" style="fill:#FFFFFF;" d="M295.432,485.927c-0.225,0-0.418-0.072-0.582-0.219
				c-0.163-0.143-0.246-0.348-0.246-0.611c0-0.221,0.079-0.412,0.235-0.571c0.158-0.16,0.349-0.241,0.578-0.241
				c0.228,0,0.422,0.08,0.587,0.237c0.16,0.158,0.242,0.351,0.242,0.575c0,0.26-0.082,0.464-0.242,0.608
				C295.84,485.855,295.65,485.927,295.432,485.927"/>
			<path id="XMLID_11919_" style="fill:#FFFFFF;" d="M302.835,484.085c0,0.184-0.055,0.383-0.167,0.594
				c-0.11,0.212-0.28,0.412-0.508,0.603c-0.227,0.191-0.512,0.346-0.858,0.461c-0.345,0.116-0.735,0.176-1.165,0.176
				c-0.922,0-1.641-0.27-2.157-0.804c-0.514-0.537-0.772-1.257-0.772-2.158c0-0.613,0.117-1.151,0.355-1.621
				c0.234-0.467,0.576-0.831,1.022-1.087c0.447-0.257,0.985-0.384,1.603-0.384c0.387,0,0.739,0.056,1.063,0.169
				c0.322,0.112,0.592,0.259,0.818,0.435c0.222,0.181,0.393,0.369,0.511,0.569c0.119,0.202,0.177,0.391,0.177,0.567
				c0,0.177-0.065,0.328-0.197,0.452c-0.135,0.123-0.296,0.186-0.481,0.186c-0.126,0-0.228-0.033-0.311-0.095
				c-0.082-0.064-0.175-0.166-0.275-0.311c-0.182-0.275-0.371-0.483-0.572-0.619c-0.197-0.139-0.448-0.208-0.754-0.208
				c-0.437,0-0.794,0.171-1.064,0.515c-0.268,0.342-0.404,0.815-0.404,1.408c0,0.28,0.036,0.539,0.105,0.773
				c0.067,0.234,0.167,0.434,0.299,0.599c0.132,0.165,0.289,0.29,0.474,0.375c0.186,0.088,0.391,0.13,0.61,0.13
				c0.299,0,0.555-0.069,0.767-0.207c0.216-0.138,0.403-0.349,0.566-0.633c0.091-0.167,0.188-0.297,0.292-0.392
				c0.105-0.094,0.235-0.143,0.388-0.143c0.182,0,0.333,0.071,0.451,0.208C302.774,483.781,302.835,483.929,302.835,484.085"/>
			<path id="XMLID_11916_" style="fill:#FFFFFF;" d="M309.258,482.902c0,0.442-0.07,0.852-0.204,1.228
				c-0.142,0.374-0.34,0.696-0.603,0.963c-0.261,0.269-0.575,0.475-0.936,0.62c-0.367,0.142-0.775,0.215-1.228,0.215
				c-0.451,0-0.857-0.073-1.217-0.22c-0.358-0.143-0.672-0.353-0.933-0.621c-0.265-0.274-0.464-0.594-0.604-0.962
				c-0.132-0.369-0.201-0.777-0.201-1.223c0-0.451,0.071-0.864,0.206-1.239c0.139-0.376,0.338-0.696,0.596-0.96
				c0.259-0.265,0.57-0.469,0.936-0.614c0.369-0.143,0.775-0.215,1.217-0.215c0.45,0,0.86,0.072,1.228,0.219
				c0.366,0.144,0.679,0.353,0.943,0.619c0.263,0.272,0.461,0.591,0.597,0.96C309.189,482.046,309.258,482.453,309.258,482.902
				 M307.764,482.902c0-0.607-0.135-1.079-0.401-1.417c-0.266-0.342-0.625-0.509-1.076-0.509c-0.292,0-0.548,0.076-0.771,0.226
				c-0.222,0.15-0.391,0.373-0.511,0.668c-0.12,0.295-0.181,0.639-0.181,1.032c0,0.39,0.059,0.728,0.178,1.018
				c0.119,0.293,0.288,0.515,0.508,0.669c0.221,0.153,0.479,0.232,0.776,0.232c0.45,0,0.81-0.17,1.076-0.512
				C307.629,483.97,307.764,483.499,307.764,482.902"/>
			<path id="XMLID_11914_" style="fill:#FFFFFF;" d="M314.935,483.011v1.978c0,0.314-0.069,0.546-0.212,0.704
				c-0.144,0.156-0.328,0.234-0.561,0.234c-0.225,0-0.41-0.078-0.546-0.234c-0.142-0.159-0.214-0.391-0.214-0.704v-2.371
				c0-0.375-0.012-0.667-0.036-0.875c-0.026-0.203-0.096-0.376-0.208-0.507c-0.113-0.135-0.292-0.202-0.534-0.202
				c-0.488,0-0.808,0.166-0.962,0.506c-0.154,0.331-0.233,0.811-0.233,1.439v2.01c0,0.309-0.07,0.543-0.207,0.702
				c-0.143,0.157-0.326,0.237-0.554,0.237c-0.227,0-0.411-0.08-0.555-0.237c-0.145-0.159-0.216-0.393-0.216-0.702v-4.258
				c0-0.281,0.064-0.494,0.192-0.638c0.132-0.147,0.302-0.219,0.511-0.219c0.204,0,0.374,0.071,0.512,0.204
				c0.136,0.137,0.203,0.325,0.203,0.565v0.141c0.26-0.307,0.536-0.535,0.829-0.678c0.297-0.149,0.621-0.221,0.983-0.221
				c0.374,0,0.695,0.075,0.963,0.224c0.27,0.15,0.49,0.376,0.666,0.675c0.252-0.303,0.522-0.53,0.809-0.678
				c0.287-0.147,0.604-0.221,0.954-0.221c0.405,0,0.758,0.082,1.053,0.241c0.293,0.16,0.512,0.39,0.659,0.686
				c0.127,0.271,0.189,0.694,0.189,1.272v2.906c0,0.314-0.07,0.546-0.211,0.704c-0.141,0.156-0.33,0.234-0.562,0.234
				c-0.227,0-0.41-0.08-0.554-0.237c-0.143-0.159-0.216-0.393-0.216-0.702v-2.503c0-0.321-0.014-0.576-0.04-0.768
				c-0.027-0.193-0.101-0.356-0.22-0.486c-0.122-0.131-0.304-0.197-0.547-0.197c-0.196,0-0.382,0.061-0.559,0.177
				c-0.176,0.114-0.314,0.273-0.414,0.466C314.992,481.929,314.935,482.374,314.935,483.011"/>
		</g>
		<g id="XMLID_11897_">
			<path id="XMLID_11912_" style="fill:#FFFFFF;" d="M245.658,482.542c-0.001-0.003-0.001-0.006-0.001-0.01
				C245.657,482.536,245.657,482.539,245.658,482.542z"/>
			<path id="XMLID_11911_" style="fill:#FFFFFF;" d="M245.733,483.017c0.001,0,0.001,0,0.002,0c-0.029-0.136-0.051-0.27-0.068-0.403
				C245.684,482.748,245.706,482.883,245.733,483.017z"/>
			<path id="XMLID_11910_" style="fill:#FFFFFF;" d="M246.226,484.398c-0.003-0.006-0.006-0.012-0.01-0.019
				C246.22,484.386,246.223,484.393,246.226,484.398z"/>
			<path id="XMLID_11909_" style="fill:#FFFFFF;" d="M246.179,484.306c-0.013-0.025-0.025-0.052-0.037-0.077
				C246.154,484.257,246.166,484.281,246.179,484.306z"/>
			<path id="XMLID_11907_" style="fill:#FFFFFF;" d="M245.872,483.549c0.073,0.23,0.161,0.452,0.262,0.665
				c-0.103-0.217-0.189-0.44-0.26-0.665C245.873,483.549,245.872,483.549,245.872,483.549z"/>
			<path id="XMLID_543_" style="fill:#FFFFFF;" d="M251.419,476.839c0.288,0,0.5,0.023,0.743,0.064l0.069-0.438
				c0,0-0.672-0.207-1.556-0.134l-0.07-0.238c0.275-0.058,0.481-0.302,0.481-0.594c0-0.334-0.272-0.605-0.607-0.605
				c-0.335,0-0.606,0.271-0.606,0.605c0,0.291,0.206,0.536,0.48,0.594l0.077,0.266c-0.938,0.129-1.685,0.495-1.685,0.495
				l0.132,0.405c0.568-0.189,1.06-0.304,1.506-0.352C250.822,476.859,251.151,476.839,251.419,476.839z"/>
			<path id="XMLID_11905_" style="fill:#FFFFFF;" d="M246.215,479.053l0.003-0.004c0.022-0.029,0.043-0.056,0.065-0.082l-0.18-0.13
				l-0.28-0.204c-0.016,0.022-0.456,0.427-0.804,1.175c-0.015-0.024-0.032-0.047-0.051-0.068c-0.104-0.114-0.25-0.172-0.435-0.169
				c-0.002,0-0.005,0-0.008,0c-0.115,0-0.193-0.038-0.245-0.085c0.051-0.065,0.082-0.147,0.082-0.237
				c0-0.211-0.172-0.384-0.384-0.384c-0.212,0-0.384,0.173-0.384,0.384c0,0.212,0.172,0.384,0.384,0.384
				c0.033,0,0.065-0.005,0.096-0.012c0.094,0.105,0.244,0.196,0.464,0.192c0.113-0.001,0.196,0.028,0.251,0.089
				c0.064,0.07,0.085,0.17,0.092,0.246c-0.001,0.001-0.001,0.003-0.002,0.003c-0.25,0.683-0.178,1.532-0.178,1.532l0.607,0.024
				c0.012-0.309,0.057-0.851,0.213-1.28C245.821,479.595,246.199,479.075,246.215,479.053z"/>
			<path id="XMLID_542_" style="fill:#FFFFFF;" d="M256.699,477.346c-0.211,0-0.384,0.172-0.384,0.384
				c0,0.033,0.005,0.064,0.014,0.095c-0.105,0.095-0.197,0.245-0.193,0.465c0.002,0.113-0.027,0.195-0.089,0.251
				c-0.049,0.043-0.11,0.066-0.17,0.081c-0.452-0.633-1.008-1.019-1.008-1.019l-0.436,0.467c0.329,0.299,0.665,0.674,0.992,1.142
				c0.226,0.323,0.459,0.74,0.652,1.156l0.588-0.279c0,0-0.268-0.663-0.646-1.258c0.066-0.023,0.132-0.059,0.19-0.11
				c0.115-0.104,0.171-0.25,0.168-0.435c-0.001-0.119,0.038-0.2,0.085-0.253c0.065,0.05,0.147,0.082,0.236,0.082
				c0.213,0,0.385-0.172,0.385-0.384C257.083,477.517,256.912,477.346,256.699,477.346z"/>
			<path id="XMLID_11903_" style="fill:#FFFFFF;" d="M255.174,482.627c-0.809,0.394-2.14,0.915-3.892,1.159
				c-0.688,0.095-1.354,0.13-1.968,0.13c-0.798,0-1.503-0.059-2.045-0.128c-0.618-0.078-1.1-0.173-1.396-0.24
				c0.071,0.225,0.157,0.448,0.26,0.665c0.002,0.006,0.004,0.012,0.007,0.016c0.012,0.025,0.025,0.052,0.037,0.077
				c0.012,0.025,0.025,0.05,0.037,0.073c0.004,0.007,0.007,0.013,0.01,0.019c0.174,0.327,0.383,0.628,0.62,0.889
				c0.826,0.904,1.668,1.047,1.676,1.048l0.013,0.002l0.012,0.005c0.008,0.003,0.754,0.244,1.889,0.244
				c1.117,0,2.212-0.225,3.257-0.67c0.773-0.396,1.505-0.996,1.868-1.532c0.28-0.415,0.483-0.857,0.603-1.317
				c0.064-0.244,0.114-0.636,0.085-1.048C256.021,482.172,255.661,482.39,255.174,482.627z"/>
			<path id="XMLID_11898_" style="fill:#FFFFFF;" d="M246.474,479.245c-0.024,0.034-0.374,0.531-0.652,1.293
				c-0.208,0.571-0.198,1.402-0.198,1.412v0.002c0,0.195,0.011,0.389,0.033,0.58c0,0.004,0,0.007,0.001,0.01
				c0.002,0.025,0.006,0.048,0.009,0.073c0.017,0.133,0.04,0.267,0.068,0.403c0.402,0.102,2.8,0.661,5.48,0.288
				c1.68-0.234,2.955-0.73,3.73-1.106c0.643-0.312,1.057-0.595,1.217-0.711c-0.159-0.59-0.598-1.516-1-2.093
				c-1.151-1.645-2.392-2.066-3.029-2.171c-0.243-0.04-0.438-0.063-0.714-0.063c-0.257,0-0.575,0.021-1.001,0.066
				c-0.426,0.044-0.902,0.156-1.453,0.342c-0.773,0.259-1.473,0.665-2.024,1.175l-0.019,0.017
				C246.841,478.837,246.67,478.995,246.474,479.245z M253.516,478.862c0.551,0,1,0.448,1,1s-0.449,1.001-1,1.001
				c-0.552,0-1-0.449-1-1.001S252.964,478.862,253.516,478.862z M248.786,478.822c0.893,0,1.617,0.724,1.617,1.617
				c0,0.893-0.723,1.615-1.617,1.615c-0.892,0-1.616-0.723-1.616-1.615C247.17,479.546,247.894,478.822,248.786,478.822z"/>
		</g>
	</g>
</g>
</svg>
